<svg width="16" height="16" viewBox="0 0 16 16" fill="#00b6ef" xmlns="http://www.w3.org/2000/svg">
                                                                        <path d="M11.551 7.04745L11.046 7.18277L10.7004 5.89324L11.2054 5.75792C11.3586 5.71687 11.4946 5.70852 11.6136 5.73285C11.7326 5.75719 11.8319 5.81044 11.9116 5.89262C11.9908 5.97342 12.0481 6.07936 12.0833 6.21045C12.118 6.34017 12.1216 6.46122 12.094 6.57361C12.0661 6.68463 12.0069 6.78109 11.9164 6.86301C11.8274 6.94455 11.7056 7.00604 11.551 7.04745Z">
                                                                        </path>
                                                                        <path fill-rule="evenodd" clip-rule="evenodd" d="M14.0148 3.28539L15.5664 9.07628C15.9303 10.4344 15.1491 11.7873 13.791 12.1512L5.06052 14.4905C3.70243 14.8544 2.34946 14.0733 1.98555 12.7152L0.433888 6.92438C0.0699903 5.56629 0.851135 4.21331 2.20923 3.8494L10.9398 1.51006C12.2979 1.14616 13.6508 1.92731 14.0148 3.28539ZM10.5884 9.57704L9.45265 5.33789L11.2037 4.86869C11.5212 4.78364 11.8117 4.77234 12.0754 4.83479C12.3402 4.89548 12.5648 5.0194 12.7496 5.20654C12.934 5.3923 13.0652 5.63076 13.1432 5.92192C13.2216 6.21447 13.226 6.48763 13.1564 6.74143C13.0879 6.99347 12.9517 7.21114 12.7479 7.39441C12.5441 7.5777 12.2801 7.71278 11.9558 7.79967L11.2604 7.98603L11.6131 9.30247L10.5884 9.57704ZM8.31398 5.64299L9.44983 9.88207L8.42527 10.1566L7.2894 5.91754L8.31398 5.64299ZM3.25964 6.99731L5.03957 9.8481L5.07476 9.83868L5.19083 6.47984L6.33754 6.17259L6.04312 10.7949L4.67907 11.1604L2.11293 7.30457L3.25964 6.99731Z">
                                                                        </path>
                                                                    </svg>