<svg width="16" height="16" viewBox="0 0 16 16" fill="#ff003d" xmlns="http://www.w3.org/2000/svg">
                                                                        <path d="M1.9797 1.16662C2.35095 0.612114 2.9743 0.279297 3.64161 0.279297H12.3464C13.0115 0.279297 13.6331 0.609898 14.0048 1.16137L15.3502 3.15747C15.5728 3.48776 15.6918 3.87699 15.6918 4.2753V4.74188C15.6918 6.18499 14.5221 7.35461 13.0794 7.35461C12.2162 7.35461 11.4508 6.93594 10.9751 6.29052C10.8193 6.07917 10.2599 6.07917 10.1042 6.29053C9.62854 6.93595 8.86315 7.35461 7.99994 7.35461C7.13701 7.35461 6.3718 6.9362 5.89611 6.29112C5.74023 6.07972 5.1797 6.07972 5.02382 6.29111C4.54813 6.93618 3.78292 7.35459 2.91999 7.35459C1.47721 7.35459 0.307617 6.18497 0.307617 4.74186V4.27177C0.307617 3.87557 0.425289 3.48831 0.645707 3.15909L1.9797 1.16662Z">
                                                                        </path>
                                                                        <path d="M1.39014 8.46869V13.7211C1.39014 14.8257 2.28557 15.7211 3.39014 15.7211H5.99756V11.877C5.99756 11.3247 6.44527 10.877 6.99756 10.877H8.99756C9.54984 10.877 9.99756 11.3247 9.99756 11.877V15.7211H12.6046C13.7092 15.7211 14.6046 14.8257 14.6046 13.7211V8.47207C14.1754 8.78122 13.6487 8.96332 13.0794 8.96332C12.2162 8.96332 11.4508 8.54465 10.9751 7.89924C10.8193 7.68788 10.2599 7.68789 10.1042 7.89924C9.62854 8.54466 8.86315 8.96332 7.99994 8.96332C7.13701 8.96332 6.3718 8.54491 5.89611 7.89983C5.74023 7.68843 5.1797 7.68843 5.02382 7.89982C4.54813 8.5449 3.78292 8.9633 2.91999 8.9633C2.34864 8.9633 1.82014 8.77988 1.39014 8.46869Z">
                                                                        </path>
                                                                    </svg>