<svg width="17" height="12" viewBox="0 0 17 12" fill="#8194c8" xmlns="http://www.w3.org/2000/svg">
                                                                        <path d="M14.196 0.524675C13.7826 0.0316489 13.0444 0.0325648 12.573 0.470516L10.0235 3.56798C10.7429 4.38276 11.2221 6.17127 11.0066 7.23659L14.7632 8.6443C15.3904 8.7879 16.0301 8.41958 16.1416 7.78592C16.6076 5.13731 15.9239 2.58542 14.196 0.524675Z" fill="#8194C8"></path>
                                                                        <path d="M1.80518 3.35575L5.56323 4.7638C5.34801 5.8288 5.82699 7.6164 6.54581 8.43116L3.99533 11.5295C3.52399 11.9675 2.78577 11.9684 2.37238 11.4754C0.644485 9.41463 -0.0392897 6.86274 0.426735 4.21413C0.538229 3.58046 1.178 3.21215 1.80518 3.35575Z" fill="#8194C8"></path>
                                                                        <path d="M7.82016 4.26648C7.11509 4.4554 6.69667 5.18013 6.88559 5.8852L7.13045 6.79901C7.31937 7.50408 8.04409 7.9225 8.74916 7.73358C9.45424 7.54465 9.87266 6.81993 9.68373 6.11486L9.43888 5.20105C9.24996 4.49598 8.52523 4.07755 7.82016 4.26648Z" fill="#8194C8"></path>
                                                                    </svg>