<svg width="17" height="17" viewBox="0 0 17 17" fill="#8194c8" xmlns="http://www.w3.org/2000/svg">
                                                                        <path fill-rule="evenodd" clip-rule="evenodd" d="M8.23139 16.5C8.25976 16.5001 8.28815 16.5 8.31654 16.4998L8.34129 16.5C8.39682 16.5002 8.45258 16.4988 8.50844 16.4957C9.94302 16.4461 11.3801 15.9666 12.4907 15.0249C13.6874 14.0102 14.465 12.4905 14.465 10.517C14.465 6.61262 8.75229 5.29101 10.1383 0.658333C5.2378 2.0734 2.00293 7.38835 2.00293 10.517C2.00293 12.4713 2.78243 13.9842 3.97652 14.9998C5.15635 16.0034 6.70621 16.494 8.23139 16.5ZM6.92004 14.7803C7.67714 15.4243 9.00577 15.44 9.76883 14.793C10.097 14.5147 10.3498 14.0825 10.3498 13.4007C10.3498 12.1962 8.50844 11.1464 8.31728 9.27978C7.65498 10.2136 6.33781 12.1554 6.33781 13.4007C6.33781 14.066 6.58752 14.4975 6.92004 14.7803Z" fill="#8194c8"></path>
                                                                        <defs>
                                                                            <rect width="16" height="16" fill="white" transform="translate(0.234375 0.5)">
                                                                            </rect>
                                                                        </defs>
                                                                    </svg>