<svg width="432" height="433" viewBox="0 0 432 433" fill="none" xmlns="http://www.w3.org/2000/svg">
<g opacity="0.2">
<mask id="mask0_8554_71728" style="mask-type:alpha" maskUnits="userSpaceOnUse" x="73" y="63" width="281" height="281">
<circle cx="213.348" cy="203.385" r="140" fill="#D9D9D9"/>
</mask>
<g mask="url(#mask0_8554_71728)">
<g filter="url(#filter0_f_8554_71728)">
<path fill-rule="evenodd" clip-rule="evenodd" d="M211.022 217.622C211.046 217.713 211.068 217.796 211.093 217.888L16.9153 273.304C22.9182 291.892 19.5831 282.696 26.9328 300.87L211.344 218.558C211.382 218.637 211.423 218.723 211.464 218.81C211.514 218.895 211.553 218.973 211.6 219.05L37.2905 321.046C47.8387 337.687 42.2787 329.577 53.952 345.374L211.999 219.645C212.063 219.717 212.118 219.791 212.171 219.856C212.233 219.92 212.297 219.992 212.366 220.053L69.0039 362.302C83.2695 375.697 75.9089 369.261 91.0815 381.596L212.882 220.519C212.958 220.57 213.036 220.629 213.112 220.68C213.188 220.731 213.264 220.781 213.337 220.824L109.756 394.193C126.86 403.619 118.15 399.215 135.886 407.414L213.993 221.146C214.081 221.176 214.16 221.208 214.242 221.248C214.33 221.278 214.418 221.308 214.506 221.337L157.169 415.018C176.204 419.936 166.614 417.821 185.913 421.37L215.196 221.49C215.296 221.499 215.38 221.512 215.472 221.523C215.563 221.534 215.655 221.545 215.745 221.548L208.555 423.428C228.2 423.426 218.402 423.785 237.965 422.383L216.46 221.498C216.548 221.493 216.635 221.487 216.737 221.469C216.82 221.446 216.913 221.43 216.999 221.416L260.226 418.774C279.203 413.92 269.808 416.678 288.321 410.526L217.691 221.213C217.772 221.183 217.861 221.15 217.947 221.109C218.034 221.068 218.107 221.039 218.191 220.99L309.153 401.451C326.389 391.997 317.943 397.033 334.478 386.354L218.806 220.63C218.882 220.583 218.956 220.527 219.028 220.464C219.104 220.417 219.174 220.345 219.248 220.289L352.343 372.375C366.607 358.962 359.724 365.917 373 351.533L219.746 219.791C219.805 219.713 219.858 219.646 219.919 219.576C219.97 219.5 220.029 219.422 220.082 219.355L386.752 333.652C397.226 317.174 392.282 325.592 401.563 308.412L220.438 218.726C220.478 218.644 220.518 218.562 220.557 218.472C220.589 218.392 220.627 218.302 220.656 218.214L410.493 287.663C416.579 269.036 413.867 278.456 418.626 259.394L220.849 217.54C220.873 217.463 220.89 217.36 220.903 217.277C220.914 217.185 220.933 217.091 220.936 217.001L422.105 236.976C423.345 217.354 423.077 227.169 422.919 207.504L220.965 216.282C220.958 216.186 220.952 216.099 220.944 216.003C220.936 215.908 220.922 215.823 220.906 215.729L420.698 185.049C417.038 165.816 419.213 175.358 414.199 156.416L220.747 215.034C220.722 214.943 220.692 214.862 220.659 214.773C220.626 214.684 220.593 214.595 220.555 214.517L406.509 135.214C398.156 117.407 402.637 126.135 393.046 108.989L220.234 213.883C220.186 213.806 220.131 213.732 220.082 213.648C220.037 213.58 219.973 213.508 219.918 213.434L380.224 90.2638C367.687 75.1247 374.213 82.4608 360.674 68.2925L219.455 212.9C219.385 212.839 219.313 212.769 219.254 212.714C219.178 212.663 219.106 212.594 219.038 212.541L343.665 53.4181C327.878 41.9411 335.962 47.3931 319.404 37.0558L218.44 212.132C218.366 212.09 218.276 212.051 218.203 212.009C218.121 211.969 218.039 211.928 217.957 211.888L299.271 26.8766C281.091 19.6408 290.284 22.9289 271.637 17.0006L217.28 211.652C217.194 211.63 217.1 211.611 217.012 211.581C216.927 211.56 216.835 211.549 216.741 211.53L249.489 12.1081C229.95 9.6189 239.748 10.5225 220.13 9.43215L216.029 211.462C215.929 211.454 215.85 211.457 215.763 211.463C215.667 211.471 215.571 211.478 215.484 211.484L197.428 10.2349C178.091 12.6785 187.727 11.1188 168.533 14.9284L214.776 211.594C214.693 211.616 214.601 211.641 214.518 211.663C214.419 211.689 214.338 211.72 214.257 211.75L146.901 21.2846C128.641 28.4797 137.636 24.5585 119.918 33.0482L213.604 212.032C213.519 212.082 213.441 212.12 213.365 212.167C213.288 212.215 213.212 212.262 213.136 212.309L100.396 44.6883C84.5143 56.2151 92.2544 50.1677 77.2084 62.8218L212.573 212.762C212.509 212.823 212.437 212.887 212.374 212.949C212.313 213.018 212.249 213.08 212.186 213.141L61.2969 78.8812C48.8406 93.9348 54.7862 86.1993 43.4332 102.086L211.737 213.724C211.684 213.791 211.636 213.875 211.593 213.949C211.544 214.033 211.494 214.109 211.445 214.193L32.0087 121.521C23.6601 139.199 27.5123 130.22 20.4355 148.463L211.177 214.851C211.147 214.939 211.118 215.027 211.086 215.107C211.064 215.193 211.045 215.287 211.015 215.375L14.172 170.24C10.4621 189.537 11.9754 179.824 9.65077 199.381L210.91 216.079C210.908 216.168 210.897 216.26 210.896 216.358C210.902 216.445 210.899 216.535 210.897 216.624L9.02561 222.03C10.2525 241.604 9.28899 231.87 11.895 251.217L210.96 217.327C210.985 217.419 210.999 217.504 211.017 217.606L211.022 217.622Z" fill="url(#paint0_radial_8554_71728)"/>
</g>
<path opacity="0.7" fill-rule="evenodd" clip-rule="evenodd" d="M211.022 217.622C211.046 217.713 211.068 217.796 211.093 217.888L16.9153 273.304C22.9182 291.892 19.5831 282.696 26.9328 300.87L211.344 218.558C211.382 218.637 211.423 218.723 211.464 218.81C211.514 218.895 211.553 218.973 211.6 219.05L37.2905 321.046C47.8387 337.687 42.2787 329.577 53.952 345.374L211.999 219.645C212.063 219.717 212.118 219.791 212.171 219.856C212.233 219.92 212.297 219.992 212.366 220.053L69.0039 362.302C83.2695 375.697 75.9089 369.261 91.0815 381.596L212.882 220.519C212.958 220.57 213.036 220.629 213.112 220.68C213.188 220.731 213.264 220.781 213.337 220.824L109.756 394.193C126.86 403.619 118.15 399.215 135.886 407.414L213.993 221.146C214.081 221.176 214.16 221.208 214.242 221.248C214.33 221.278 214.418 221.308 214.506 221.337L157.169 415.018C176.204 419.936 166.614 417.821 185.913 421.37L215.196 221.49C215.296 221.499 215.38 221.512 215.472 221.523C215.563 221.534 215.655 221.545 215.745 221.548L208.555 423.428C228.2 423.426 218.402 423.785 237.965 422.383L216.46 221.498C216.548 221.493 216.635 221.487 216.737 221.469C216.82 221.446 216.913 221.43 216.999 221.416L260.226 418.774C279.203 413.92 269.808 416.678 288.321 410.526L217.691 221.213C217.772 221.183 217.861 221.15 217.947 221.109C218.034 221.068 218.107 221.039 218.191 220.99L309.153 401.451C326.389 391.997 317.943 397.033 334.478 386.354L218.806 220.63C218.882 220.583 218.956 220.527 219.028 220.464C219.104 220.417 219.174 220.345 219.248 220.289L352.343 372.375C366.607 358.962 359.724 365.917 373 351.533L219.746 219.791C219.805 219.713 219.858 219.646 219.919 219.576C219.97 219.5 220.029 219.422 220.082 219.355L386.752 333.652C397.226 317.174 392.282 325.592 401.563 308.412L220.438 218.726C220.478 218.644 220.518 218.562 220.557 218.472C220.589 218.392 220.627 218.302 220.656 218.214L410.493 287.663C416.579 269.036 413.867 278.456 418.626 259.394L220.849 217.54C220.873 217.463 220.89 217.36 220.903 217.277C220.914 217.185 220.933 217.091 220.936 217.001L422.105 236.976C423.345 217.354 423.077 227.169 422.919 207.504L220.965 216.282C220.958 216.186 220.952 216.099 220.944 216.003C220.936 215.908 220.922 215.823 220.906 215.729L420.698 185.049C417.038 165.816 419.213 175.358 414.199 156.416L220.747 215.034C220.722 214.943 220.692 214.862 220.659 214.773C220.626 214.684 220.593 214.595 220.555 214.517L406.509 135.214C398.156 117.407 402.637 126.135 393.046 108.989L220.234 213.883C220.186 213.806 220.131 213.732 220.082 213.648C220.037 213.58 219.973 213.508 219.918 213.434L380.224 90.2638C367.687 75.1247 374.213 82.4608 360.674 68.2925L219.455 212.9C219.385 212.839 219.313 212.769 219.254 212.714C219.178 212.663 219.106 212.594 219.038 212.541L343.665 53.4181C327.878 41.9411 335.962 47.3931 319.404 37.0558L218.44 212.132C218.366 212.09 218.276 212.051 218.203 212.009C218.121 211.969 218.039 211.928 217.957 211.888L299.271 26.8766C281.091 19.6408 290.284 22.9289 271.637 17.0006L217.28 211.652C217.194 211.63 217.1 211.611 217.012 211.581C216.927 211.56 216.835 211.549 216.741 211.53L249.489 12.1081C229.95 9.6189 239.748 10.5225 220.13 9.43215L216.029 211.462C215.929 211.454 215.85 211.457 215.763 211.463C215.667 211.471 215.571 211.478 215.484 211.484L197.428 10.2349C178.091 12.6785 187.727 11.1188 168.533 14.9284L214.776 211.594C214.693 211.616 214.601 211.641 214.518 211.663C214.419 211.689 214.338 211.72 214.257 211.75L146.901 21.2846C128.641 28.4797 137.636 24.5585 119.918 33.0482L213.604 212.032C213.519 212.082 213.441 212.12 213.365 212.167C213.288 212.215 213.212 212.262 213.136 212.309L100.396 44.6883C84.5143 56.2151 92.2544 50.1677 77.2084 62.8218L212.573 212.762C212.509 212.823 212.437 212.887 212.374 212.949C212.313 213.018 212.249 213.08 212.186 213.141L61.2969 78.8812C48.8406 93.9348 54.7862 86.1993 43.4332 102.086L211.737 213.724C211.684 213.791 211.636 213.875 211.593 213.949C211.544 214.033 211.494 214.109 211.445 214.193L32.0087 121.521C23.6601 139.199 27.5123 130.22 20.4355 148.463L211.177 214.851C211.147 214.939 211.118 215.027 211.086 215.107C211.064 215.193 211.045 215.287 211.015 215.375L14.172 170.24C10.4621 189.537 11.9754 179.824 9.65077 199.381L210.91 216.079C210.908 216.168 210.897 216.26 210.896 216.358C210.902 216.445 210.899 216.535 210.897 216.624L9.02561 222.03C10.2525 241.604 9.28899 231.87 11.895 251.217L210.96 217.327C210.985 217.419 210.999 217.504 211.017 217.606L211.022 217.622Z" fill="url(#paint1_radial_8554_71728)"/>
</g>
</g>
<defs>
<filter id="filter0_f_8554_71728" x="0.42539" y="0.832129" width="431.233" height="431.236" filterUnits="userSpaceOnUse" color-interpolation-filters="sRGB">
<feFlood flood-opacity="0" result="BackgroundImageFix"/>
<feBlend mode="normal" in="SourceGraphic" in2="BackgroundImageFix" result="shape"/>
<feGaussianBlur stdDeviation="4.3" result="effect1_foregroundBlur_8554_71728"/>
</filter>
<radialGradient id="paint0_radial_8554_71728" cx="0" cy="0" r="1" gradientUnits="userSpaceOnUse" gradientTransform="translate(215.995 216.512) rotate(166.215) scale(164.392 164.388)">
<stop stop-color="#FFA800"/>
<stop offset="0.171666" stop-color="#FFA800" stop-opacity="0.83"/>
<stop offset="0.396666" stop-color="#FFC700" stop-opacity="0.54"/>
<stop offset="0.606666" stop-color="#FFC900" stop-opacity="0.31"/>
<stop offset="1" stop-color="#FFB600" stop-opacity="0"/>
</radialGradient>
<radialGradient id="paint1_radial_8554_71728" cx="0" cy="0" r="1" gradientUnits="userSpaceOnUse" gradientTransform="translate(215.995 216.512) rotate(166.215) scale(164.392 164.388)">
<stop stop-color="#FFA800"/>
<stop offset="0.171666" stop-color="#FFA800" stop-opacity="0.83"/>
<stop offset="0.396666" stop-color="#FFC700" stop-opacity="0.54"/>
<stop offset="0.606666" stop-color="#FFC900" stop-opacity="0.31"/>
<stop offset="1" stop-color="#FFB600" stop-opacity="0"/>
</radialGradient>
</defs>
</svg>
