<svg width="403" height="164" viewBox="0 0 403 164" fill="none" xmlns="http://www.w3.org/2000/svg">
<path d="M134.94 64.4488H147.174C149.123 64.4488 150.891 64.7368 152.479 65.3128C154.067 65.8528 155.42 66.6448 156.539 67.6888C157.694 68.6968 158.578 69.9388 159.191 71.4148C159.841 72.8548 160.166 74.4928 160.166 76.3288V76.5988C160.166 78.4348 159.859 80.0908 159.245 81.5668C158.632 83.0428 157.766 84.3208 156.647 85.4008C155.528 86.4448 154.175 87.2548 152.587 87.8308C150.999 88.3708 149.231 88.6408 147.282 88.6408H139.27V102.249H134.94V64.4488ZM147.174 84.5368C149.88 84.5368 151.956 83.8528 153.399 82.4848C154.879 81.0808 155.618 79.1368 155.618 76.6528V76.3828C155.618 73.8988 154.879 71.9728 153.399 70.6048C151.919 69.2368 149.844 68.5528 147.174 68.5528H139.27V84.5368H147.174Z" fill="white"/>
<path d="M173.469 64.4488H179.748L193.606 102.249H188.843L184.945 91.3948H168.272L164.375 102.249H159.611L173.469 64.4488ZM183.484 87.2908L176.717 68.2828H176.501L169.734 87.2908H183.484Z" fill="white"/>
<path d="M199.222 64.4488H212.214C216.256 64.4488 219.396 65.4568 221.633 67.4728C223.907 69.4528 225.043 72.1888 225.043 75.6808V76.2208C225.043 78.8128 224.412 81.0088 223.149 82.8088C221.922 84.5728 220.153 85.8688 217.844 86.6968L227.804 102.249H222.283L213.243 87.6148H203.553V102.249H199.222V64.4488ZM212.052 83.5108C214.866 83.5108 216.978 82.8988 218.385 81.6748C219.793 80.4148 220.496 78.6328 220.496 76.3288V75.7888C220.496 73.4488 219.774 71.6668 218.331 70.4428C216.924 69.1828 214.83 68.5528 212.052 68.5528H203.553V83.5108H212.052Z" fill="white"/>
<path d="M239.816 68.5528H228.395V64.4488H255.569V68.5528H244.147V102.249H239.816V68.5528Z" fill="white"/>
<path d="M261.549 64.4488H266.529L284.826 94.9588H285.367V64.4488H289.697V102.249H284.826L266.42 71.5768H265.879V102.249H261.549V64.4488Z" fill="white"/>
<path d="M300.509 64.4488H322.649V68.5528H304.84V80.8108H321.567V84.9148H304.84V98.1448H323.191V102.249H300.509V64.4488Z" fill="white"/>
<path d="M331.593 64.4488H344.585C348.627 64.4488 351.766 65.4568 354.004 67.4728C356.277 69.4528 357.414 72.1888 357.414 75.6808V76.2208C357.414 78.8128 356.783 81.0088 355.52 82.8088C354.293 84.5728 352.524 85.8688 350.215 86.6968L360.175 102.249H354.653L345.613 87.6148H335.924V102.249H331.593V64.4488ZM344.422 83.5108C347.237 83.5108 349.348 82.8988 350.756 81.6748C352.163 80.4148 352.867 78.6328 352.867 76.3288V75.7888C352.867 73.4488 352.145 71.6668 350.702 70.4428C349.294 69.1828 347.201 68.5528 344.422 68.5528H335.924V83.5108H344.422Z" fill="white"/>
<path d="M377.521 102.789C376.294 102.789 375.031 102.681 373.732 102.465C372.469 102.249 371.224 101.907 369.997 101.439C368.806 100.971 367.651 100.395 366.532 99.7108C365.413 98.9908 364.385 98.1448 363.447 97.1728L366.261 93.8788C367.669 95.4988 369.401 96.7048 371.458 97.4968C373.515 98.2528 375.626 98.6308 377.792 98.6308C380.426 98.6308 382.519 98.0908 384.071 97.0108C385.659 95.9308 386.453 94.4188 386.453 92.4748C386.453 91.2868 386.164 90.2968 385.587 89.5048C385.045 88.7128 384.306 88.0288 383.367 87.4528C382.465 86.8768 381.401 86.3908 380.174 85.9948C378.983 85.5988 377.738 85.2028 376.438 84.8068C374.995 84.3748 373.551 83.8888 372.108 83.3488C370.7 82.8088 369.419 82.1428 368.264 81.3508C367.146 80.5228 366.225 79.5328 365.504 78.3808C364.818 77.1928 364.475 75.7348 364.475 74.0068C364.475 72.3148 364.818 70.8388 365.504 69.5788C366.189 68.3188 367.091 67.2748 368.21 66.4468C369.365 65.5828 370.7 64.9528 372.216 64.5568C373.732 64.1248 375.302 63.9088 376.926 63.9088C379.416 63.9088 381.779 64.3408 384.017 65.2048C386.254 66.0688 388.095 67.2568 389.538 68.7688L386.724 71.9008C385.533 70.6408 384.035 69.7048 382.231 69.0928C380.426 68.4808 378.622 68.1748 376.817 68.1748C374.363 68.1748 372.433 68.6968 371.025 69.7408C369.618 70.7488 368.914 72.0988 368.914 73.7908C368.914 74.7988 369.167 75.6628 369.672 76.3828C370.177 77.0668 370.863 77.6788 371.729 78.2188C372.631 78.7588 373.66 79.2268 374.814 79.6228C375.969 80.0188 377.196 80.4148 378.495 80.8108C379.939 81.2428 381.401 81.7468 382.88 82.3228C384.36 82.8628 385.695 83.5648 386.886 84.4288C388.113 85.2568 389.105 86.2828 389.863 87.5068C390.621 88.7308 391 90.2608 391 92.0968C391 93.8608 390.621 95.4268 389.863 96.7948C389.141 98.1268 388.149 99.2428 386.886 100.143C385.659 101.007 384.233 101.673 382.609 102.141C380.986 102.573 379.289 102.789 377.521 102.789Z" fill="white"/>
<path fill-rule="evenodd" clip-rule="evenodd" d="M57.5584 28.5717H72.7177V42.9399C70.2466 42.4611 67.6939 42.2103 65.0825 42.2103C62.5103 42.2103 59.995 42.4537 57.5584 42.9185V28.5717ZM57.5584 121.081V135.428H72.7177V121.06C70.2466 121.538 67.6939 121.789 65.0825 121.789C62.5103 121.789 59.995 121.546 57.5584 121.081Z" fill="#B81700"/>
<path fill-rule="evenodd" clip-rule="evenodd" d="M95.5643 107.631L108.194 114.671L115.589 101.469L102.951 94.4252C101.343 99.3136 98.8124 103.784 95.5643 107.631ZM27.2254 69.5394C28.8379 64.6527 31.3729 60.1845 34.6247 56.3403L22.0745 49.3448L14.6798 62.5465L27.2254 69.5394Z" fill="#B81700"/>
<path fill-rule="evenodd" clip-rule="evenodd" d="M102.982 69.6679L115.635 62.6505L108.269 49.4337L95.628 56.4443C98.8661 60.2988 101.386 64.7751 102.982 69.6679ZM34.5778 107.604C31.3334 103.754 28.8065 99.282 27.2029 94.3921L14.6478 101.355L22.0137 114.572L34.5778 107.604Z" fill="#B81700"/>
<path d="M65.1325 41.5825C42.7959 41.5825 24.6158 59.7181 24.6158 82C24.6158 104.282 42.7959 122.418 65.1325 122.418C87.469 122.418 105.649 104.293 105.649 82C105.649 59.7071 87.48 41.5825 65.1325 41.5825ZM65.1325 121.571C43.259 121.571 25.4757 103.82 25.4757 82.011C25.4757 60.202 43.27 42.4403 65.1325 42.4403C86.9949 42.4403 104.8 60.191 104.8 82C104.8 103.809 87.006 121.571 65.1325 121.571Z" fill="url(#paint0_linear_1245_720)"/>
<path d="M65.1325 28C35.2879 28 11 52.2285 11 82C11 111.771 35.2879 136 65.1325 136C94.977 136 119.265 111.771 119.265 82C119.265 52.2285 94.988 28 65.1325 28ZM65.1325 134.867C35.9164 134.867 12.1356 111.156 12.1356 82C12.1356 52.8444 35.9164 29.1328 65.1325 29.1328C94.3486 29.1328 118.129 52.8554 118.129 82C118.129 111.145 94.3596 134.867 65.1325 134.867Z" fill="url(#paint1_linear_1245_720)"/>
<path fill-rule="evenodd" clip-rule="evenodd" d="M65.1325 114.81C83.2972 114.81 98.0227 100.121 98.0227 82.0006C98.0227 63.8803 83.2972 49.1909 65.1325 49.1909C46.9678 49.1909 32.2424 63.8803 32.2424 82.0006C32.2424 100.121 46.9678 114.81 65.1325 114.81ZM104.789 82.0006C104.789 103.849 87.0343 121.56 65.1325 121.56C43.2307 121.56 25.4758 103.849 25.4758 82.0006C25.4758 60.1524 43.2307 42.4409 65.1325 42.4409C87.0343 42.4409 104.789 60.1524 104.789 82.0006ZM56.1695 45.8483C56.0042 45.2545 56.368 44.6496 56.9743 44.5286C59.5873 43.9677 66.4338 42.8349 73.4456 44.5066C74.041 44.6496 74.3938 45.2544 74.2284 45.8373C74.074 46.3872 73.5118 46.7172 72.9605 46.5852C66.4227 45.0235 59.8519 46.1013 57.4153 46.6182C56.8641 46.7172 56.3239 46.3872 56.1695 45.8483ZM73.6218 119.481C74.2282 119.36 74.592 118.755 74.4266 118.161C74.2833 117.622 73.732 117.292 73.1808 117.391C70.7443 117.908 64.1734 118.986 57.6356 117.424C57.0844 117.292 56.5221 117.622 56.3678 118.172C56.2024 118.755 56.5552 119.36 57.1505 119.503C64.1624 121.174 71.0089 120.042 73.6218 119.481ZM101.548 72.8931C102.143 72.7281 102.749 73.0911 102.871 73.696C103.433 76.3025 104.569 83.1322 102.893 90.1269C102.749 90.7208 102.143 91.0727 101.559 90.9078C101.008 90.7538 100.677 90.1929 100.809 89.643C102.375 83.1212 101.294 76.5664 100.776 74.1359C100.666 73.586 101.008 73.0471 101.548 72.8931ZM27.725 90.3028C27.8463 90.9077 28.4526 91.2707 29.048 91.1057C29.5992 90.9627 29.93 90.4128 29.8197 89.8629C29.3015 87.4324 28.2211 80.8776 29.7866 74.3558C29.9189 73.8059 29.5882 73.245 29.037 73.091C28.4526 72.9261 27.8463 73.278 27.7029 73.8719C26.0271 80.8666 27.1627 87.6963 27.725 90.3028Z" fill="url(#paint2_linear_1245_720)"/>
<path d="M40.5469 43.6285C41.4907 43.6285 42.2558 42.8652 42.2558 41.9238C42.2558 40.9823 41.4907 40.2191 40.5469 40.2191C39.6031 40.2191 38.838 40.9823 38.838 41.9238C38.838 42.8652 39.6031 43.6285 40.5469 43.6285Z" fill="url(#paint3_linear_1245_720)"/>
<path d="M88.8805 123.275C89.8242 123.275 90.5893 122.512 90.5893 121.571C90.5893 120.629 89.8242 119.866 88.8805 119.866C87.9367 119.866 87.1716 120.629 87.1716 121.571C87.1716 122.512 87.9367 123.275 88.8805 123.275Z" fill="url(#paint4_linear_1245_720)"/>
<path d="M91.5096 42.9495C91.7885 42.0501 91.2837 41.0955 90.3821 40.8173C89.4805 40.5391 88.5236 41.0426 88.2447 41.942C87.9658 42.8414 88.4706 43.796 89.3722 44.0742C90.2738 44.3524 91.2308 43.8489 91.5096 42.9495Z" fill="url(#paint5_linear_1245_720)"/>
<path d="M42.1012 123.924C41.2633 124.364 40.238 124.045 39.797 123.209C39.356 122.373 39.6757 121.35 40.5136 120.91C41.3515 120.47 42.3769 120.789 42.8179 121.625C43.2589 122.461 42.9391 123.484 42.1012 123.924Z" fill="url(#paint6_linear_1245_720)"/>
<path d="M111.592 83.6495C110.787 83.1656 110.511 82.1208 110.996 81.318C111.481 80.5151 112.529 80.2402 113.334 80.7241C114.138 81.208 114.414 82.2528 113.929 83.0557C113.444 83.8585 112.397 84.1225 111.592 83.6495Z" fill="url(#paint7_linear_1245_720)"/>
<path d="M20.4289 82.7436C20.4709 81.8031 19.7406 81.0068 18.7977 80.965C17.8549 80.9232 17.0565 81.6518 17.0146 82.5923C16.9726 83.5329 17.703 84.3292 18.6458 84.371C19.5886 84.4127 20.387 83.6841 20.4289 82.7436Z" fill="url(#paint8_linear_1245_720)"/>
<path d="M59.6247 72.4V72.1H44.8328V69.25H63.2008V71.8375L51.9849 95.5H48.3682L59.6247 72.4Z" fill="url(#paint9_linear_1245_720)"/>
<path d="M67.6737 68.5H70.6809V84.5125H70.8434L81.0027 76H84.8226L73.9725 85.1125L85.4322 95.5H81.3278L70.8841 85.8625H70.6809V95.5H67.6737V68.5Z" fill="url(#paint10_linear_1245_720)"/>
<path d="M59.6247 72.4V72.1H44.8328V69.25H63.2008V71.8375L51.9849 95.5H48.3682L59.6247 72.4Z" stroke="url(#paint11_linear_1245_720)"/>
<path d="M67.6737 68.5H70.6809V84.5125H70.8434L81.0027 76H84.8226L73.9725 85.1125L85.4322 95.5H81.3278L70.8841 85.8625H70.6809V95.5H67.6737V68.5Z" stroke="url(#paint12_linear_1245_720)"/>
<defs>
<linearGradient id="paint0_linear_1245_720" x1="65.1325" y1="41.5825" x2="65.1325" y2="122.418" gradientUnits="userSpaceOnUse">
<stop stop-color="#FF4E27"/>
<stop offset="1" stop-color="#B81700"/>
</linearGradient>
<linearGradient id="paint1_linear_1245_720" x1="65.1325" y1="28" x2="65.1325" y2="136" gradientUnits="userSpaceOnUse">
<stop stop-color="#FF4E27"/>
<stop offset="1" stop-color="#B81700"/>
</linearGradient>
<linearGradient id="paint2_linear_1245_720" x1="65.1325" y1="42.4409" x2="65.1325" y2="121.56" gradientUnits="userSpaceOnUse">
<stop stop-color="#FF4E27"/>
<stop offset="1" stop-color="#B81700"/>
</linearGradient>
<linearGradient id="paint3_linear_1245_720" x1="40.5469" y1="40.2191" x2="40.5469" y2="43.6285" gradientUnits="userSpaceOnUse">
<stop stop-color="#FF4E27"/>
<stop offset="1" stop-color="#B81700"/>
</linearGradient>
<linearGradient id="paint4_linear_1245_720" x1="88.8805" y1="119.866" x2="88.8805" y2="123.275" gradientUnits="userSpaceOnUse">
<stop stop-color="#FF4E27"/>
<stop offset="1" stop-color="#B81700"/>
</linearGradient>
<linearGradient id="paint5_linear_1245_720" x1="88.2447" y1="41.942" x2="91.5082" y2="42.954" gradientUnits="userSpaceOnUse">
<stop stop-color="#FF4E27"/>
<stop offset="1" stop-color="#B81700"/>
</linearGradient>
<linearGradient id="paint6_linear_1245_720" x1="41.3074" y1="120.713" x2="41.3074" y2="124.121" gradientUnits="userSpaceOnUse">
<stop stop-color="#FF4E27"/>
<stop offset="1" stop-color="#B81700"/>
</linearGradient>
<linearGradient id="paint7_linear_1245_720" x1="112.463" y1="80.4846" x2="112.463" y2="83.8842" gradientUnits="userSpaceOnUse">
<stop stop-color="#FF4E27"/>
<stop offset="1" stop-color="#B81700"/>
</linearGradient>
<linearGradient id="paint8_linear_1245_720" x1="17.0146" y1="82.5923" x2="20.4289" y2="82.7446" gradientUnits="userSpaceOnUse">
<stop stop-color="#FF4E27"/>
<stop offset="1" stop-color="#B81700"/>
</linearGradient>
<linearGradient id="paint9_linear_1245_720" x1="65.1325" y1="68.5" x2="65.1325" y2="95.5" gradientUnits="userSpaceOnUse">
<stop stop-color="#FF4E27"/>
<stop offset="1" stop-color="#B81700"/>
</linearGradient>
<linearGradient id="paint10_linear_1245_720" x1="65.1325" y1="68.5" x2="65.1325" y2="95.5" gradientUnits="userSpaceOnUse">
<stop stop-color="#FF4E27"/>
<stop offset="1" stop-color="#B81700"/>
</linearGradient>
<linearGradient id="paint11_linear_1245_720" x1="65.1325" y1="68.5" x2="65.1325" y2="95.5" gradientUnits="userSpaceOnUse">
<stop stop-color="#FF4E27"/>
<stop offset="1" stop-color="#B81700"/>
</linearGradient>
<linearGradient id="paint12_linear_1245_720" x1="65.1325" y1="68.5" x2="65.1325" y2="95.5" gradientUnits="userSpaceOnUse">
<stop stop-color="#FF4E27"/>
<stop offset="1" stop-color="#B81700"/>
</linearGradient>
</defs>
</svg>
