<svg width="184" height="184" viewBox="0 0 184 184" fill="none" xmlns="http://www.w3.org/2000/svg">
<path d="M29.7202 98.5792L18.0056 99.8398C17.2155 92.2813 17.5743 84.7103 19.0666 77.3251L30.6029 79.7419C29.3589 85.9174 29.0657 92.2504 29.7202 98.5792ZM76.4406 164.873C69.1357 163.315 62.1305 160.665 55.5999 156.994L61.439 146.761C66.8936 149.816 72.7368 152.024 78.8247 153.332L76.4406 164.873ZM122.149 160.129C115.34 163.145 108.117 165.116 100.664 165.99L99.3675 154.273C105.594 153.537 111.621 151.893 117.301 149.386L122.149 160.129ZM146.109 123.58L156.341 129.428C152.589 135.892 147.907 141.732 142.416 146.801L134.477 138.09C139.057 133.848 142.969 128.972 146.109 123.58ZM154.28 85.9027L165.986 84.518C166.752 91.9838 166.399 99.4582 164.938 106.748L153.398 104.355C154.6 98.3057 154.899 92.1014 154.28 85.9027ZM138.681 50.4047L147.404 42.4773C152.408 48.0545 156.517 54.3176 159.627 61.1041L148.877 65.942C146.278 60.2855 142.851 55.0642 138.681 50.4047ZM105.272 30.9162L107.678 19.3774C114.978 20.9511 121.979 23.6129 128.506 27.2964L122.644 37.5216C117.197 34.4569 111.358 32.235 105.272 30.9162ZM83.457 18.2129L84.7315 29.9298C78.502 30.6532 72.4722 32.283 66.7905 34.7816L61.9612 24.0312C68.7719 21.0284 76 19.072 83.457 18.2129ZM49.5874 46.0448C44.9992 50.2761 41.0778 55.1442 37.9259 60.5316L27.7073 54.6608C31.474 48.204 36.1657 42.3733 41.6688 37.3157L49.5874 46.0448ZM36.6675 141.853C31.652 136.284 27.5296 130.027 24.4124 123.248L35.1495 118.394C37.759 124.041 41.1946 129.256 45.3735 133.907L36.6675 141.853Z" fill="#F5C66B" stroke="#F5C66B"/>
<circle cx="91.9997" cy="91.9999" r="66" transform="rotate(165 91.9997 91.9999)" stroke="#F5C66B" stroke-width="2"/>
<circle cx="91.9996" cy="92" r="74" transform="rotate(165 91.9996 92)" stroke="#F5C66B" stroke-width="2"/>
</svg>
