<svg xmlns="http://www.w3.org/2000/svg" width="17" height="16" fill="#8194D7" viewBox="0 0 17 16">
                                                                <g>
                                                                    <path d="M8.68.628A7.696 7.696 0 0 0 .984 8.324v5.047a2 2 0 0 0 2 2V8.324a5.696 5.696 0 1 1 11.392 0v7.047a2 2 0 0 0 2-2V8.324A7.696 7.696 0 0 0 8.68.628Z">
                                                                    </path>
                                                                    <path d="M4.997 10.32H4.19v5.052h.806a2 2 0 0 0 2-2V12.32a2 2 0 0 0-2-2ZM12.363 10.32h.805v5.052h-.805a2 2 0 0 1-2-2V12.32a2 2 0 0 1 2-2Z">
                                                                    </path>
                                                                </g>
                                                                <defs></defs>
                                                            </svg>