<svg id="eYhOIH6eqCg1" xmlns="http://www.w3.org/2000/svg" xmlns:xlink="http://www.w3.org/1999/xlink" viewBox="0 0 120 50" shape-rendering="geometricPrecision" text-rendering="geometricPrecision" project-id="5be7f66c4845462684b8a08807d95b48" export-id="3d1dc1d0c1b84e9a8723b663eb245513" cached="false">
<style><![CDATA[
#eYhOIH6eqCg5_to {animation: eYhOIH6eqCg5_to__to 15000ms linear infinite normal forwards}@keyframes eYhOIH6eqCg5_to__to { 0% {transform: translate(40.911227px,16.867185px)} 2% {transform: translate(40.911227px,16.867185px);animation-timing-function: cubic-bezier(0.42,0,0.58,1)} 6.666667% {transform: translate(53.830147px,16.867185px)} 16% {transform: translate(53.830147px,16.867185px)} 19.333333% {transform: translate(40.911227px,16.867185px)} 100% {transform: translate(40.911227px,16.867185px)}} #eYhOIH6eqCg7_tr {animation: eYhOIH6eqCg7_tr__tr 15000ms linear infinite normal forwards}@keyframes eYhOIH6eqCg7_tr__tr { 0% {transform: translate(41.719475px,16.867177px) rotate(0deg);animation-timing-function: cubic-bezier(0.42,0,0.58,1)} 2% {transform: translate(41.719475px,16.867177px) rotate(-32.061531deg);animation-timing-function: cubic-bezier(0.42,0,0.58,1)} 6.666667% {transform: translate(41.719475px,16.867177px) rotate(360deg)} 14% {transform: translate(41.719475px,16.867177px) rotate(360deg)} 15.333333% {transform: translate(41.719475px,16.867177px) rotate(367.850292deg)} 20% {transform: translate(41.719475px,16.867177px) rotate(180deg)} 100% {transform: translate(41.719475px,16.867177px) rotate(180deg)}} #eYhOIH6eqCg7_ts {animation: eYhOIH6eqCg7_ts__ts 15000ms linear infinite normal forwards}@keyframes eYhOIH6eqCg7_ts__ts { 0% {transform: scale(1,1)} 6.666667% {transform: scale(1,1);animation-timing-function: cubic-bezier(0.42,0,0.58,1)} 8% {transform: scale(0,1);animation-timing-function: cubic-bezier(0.42,0,0.58,1)} 9.333333% {transform: scale(1,1);animation-timing-function: cubic-bezier(0.42,0,0.58,1)} 10.666667% {transform: scale(0,1);animation-timing-function: cubic-bezier(0.42,0,0.58,1)} 12% {transform: scale(1,1)} 100% {transform: scale(1,1)}} #eYhOIH6eqCg7 {animation: eYhOIH6eqCg7_c_o 15000ms linear infinite normal forwards}@keyframes eYhOIH6eqCg7_c_o { 0% {opacity: 0;animation-timing-function: cubic-bezier(0.42,0,0.58,1)} 1.333333% {opacity: 1} 18.666667% {opacity: 1} 20% {opacity: 0} 100% {opacity: 0}} #eYhOIH6eqCg9 {animation: eYhOIH6eqCg9__m 15000ms linear infinite normal forwards}@keyframes eYhOIH6eqCg9__m { 0% {d: path('M50.544777,15.897662C50.544777,15.897662,34.87939,15.820111,34.87939,15.820111L34.87939,7.227009L73.810205,7.227009L73.810205,43.908833L34.724286,43.908833L34.724288,37.499476L50.544777,37.499476L50.544777,15.897662Z')} 4% {d: path('M50.544777,15.897662C50.544777,15.897662,34.87939,15.820111,34.87939,15.820111L34.87939,7.227009L73.810205,7.227009L73.810205,43.908833L34.724286,43.908833L34.724288,37.499476L50.544777,37.499476L50.544777,15.897662Z')} 4.666667% {d: path('M34.788671,15.447461C34.788671,15.447461,34.87939,15.36991,34.87939,15.36991L34.87939,7.227009L73.810205,7.227009L73.810205,43.908833L34.724286,43.908833L34.724286,37.161859L34.691082,37.161859L34.788671,15.447461Z');animation-timing-function: cubic-bezier(0.42,0,0.58,1)} 18% {d: path('M34.788671,15.447461C34.788671,15.447461,34.87939,15.36991,34.87939,15.36991L34.87939,7.227009L73.810205,7.227009L73.810205,43.908833L34.724286,43.908833L34.724286,37.161859L34.691082,37.161859L34.788671,15.447461Z');animation-timing-function: cubic-bezier(0.42,0,0.58,1)} 18.666667% {d: path('M50.544777,15.897662C50.544777,15.897662,34.87939,15.820111,34.87939,15.820111L34.87939,7.227009L73.810205,7.227009L73.810205,43.908833L34.724286,43.908833L34.724288,37.499476L50.544777,37.499476L50.544777,15.897662Z')} 100% {d: path('M50.544777,15.897662C50.544777,15.897662,34.87939,15.820111,34.87939,15.820111L34.87939,7.227009L73.810205,7.227009L73.810205,43.908833L34.724286,43.908833L34.724288,37.499476L50.544777,37.499476L50.544777,15.897662Z')}} #eYhOIH6eqCg10_ts {animation: eYhOIH6eqCg10_ts__ts 15000ms linear infinite normal forwards}@keyframes eYhOIH6eqCg10_ts__ts { 0% {transform: translate(41.364301px,17.13346px) scale(1,1)} 7.333333% {transform: translate(41.364301px,17.13346px) scale(1,1);animation-timing-function: cubic-bezier(0.42,0,0.58,1)} 8.666667% {transform: translate(41.364301px,17.13346px) scale(0,1);animation-timing-function: cubic-bezier(0.42,0,0.58,1)} 10% {transform: translate(41.364301px,17.13346px) scale(1,1);animation-timing-function: cubic-bezier(0.42,0,0.58,1)} 11.333333% {transform: translate(41.364301px,17.13346px) scale(0,1);animation-timing-function: cubic-bezier(0.42,0,0.58,1)} 12.666667% {transform: translate(41.364301px,17.13346px) scale(1,1)} 100% {transform: translate(41.364301px,17.13346px) scale(1,1)}} #eYhOIH6eqCg10 {animation: eYhOIH6eqCg10_c_o 15000ms linear infinite normal forwards}@keyframes eYhOIH6eqCg10_c_o { 0% {opacity: 0} 7.333333% {opacity: 0} 8.666667% {opacity: 1} 10% {opacity: 1} 11.333333% {opacity: 0} 100% {opacity: 0}} #eYhOIH6eqCg11_ts {animation: eYhOIH6eqCg11_ts__ts 15000ms linear infinite normal forwards}@keyframes eYhOIH6eqCg11_ts__ts { 0% {transform: translate(41.391538px,17.932666px) scale(1,1)} 7.333333% {transform: translate(41.391538px,17.932666px) scale(1,1)} 8.666667% {transform: translate(41.391538px,17.932666px) scale(0,1)} 11.333333% {transform: translate(41.391538px,17.932666px) scale(0,1)} 12.666667% {transform: translate(41.391538px,17.932666px) scale(1,1)} 100% {transform: translate(41.391538px,17.932666px) scale(1,1)}} #eYhOIH6eqCg12_to {animation: eYhOIH6eqCg12_to__to 15000ms linear infinite normal forwards}@keyframes eYhOIH6eqCg12_to__to { 0% {transform: translate(18.419414px,11.643171px)} 15.333333% {transform: translate(18.419414px,11.643171px)} 16.666667% {transform: translate(14.627164px,10.126271px)} 100% {transform: translate(14.627164px,10.126271px)}} #eYhOIH6eqCg12_ts {animation: eYhOIH6eqCg12_ts__ts 15000ms linear infinite normal forwards}@keyframes eYhOIH6eqCg12_ts__ts { 0% {transform: scale(0,0)} 15.333333% {transform: scale(0,0)} 16.666667% {transform: scale(0.977913,0.977913)} 100% {transform: scale(0.977913,0.977913)}} #eYhOIH6eqCg13_to {animation: eYhOIH6eqCg13_to__to 15000ms linear infinite normal forwards}@keyframes eYhOIH6eqCg13_to__to { 0% {transform: translate(14.627164px,10.126271px)} 3.333333% {transform: translate(8.25px,4.89px)} 6.666667% {transform: translate(15.23px,-5.83px)} 100% {transform: translate(15.23px,-5.83px)}} #eYhOIH6eqCg13_tr {animation: eYhOIH6eqCg13_tr__tr 15000ms linear infinite normal forwards}@keyframes eYhOIH6eqCg13_tr__tr { 0% {transform: rotate(0deg)} 3.333333% {transform: rotate(69.992407deg)} 6.666667% {transform: rotate(32.305716deg)} 100% {transform: rotate(32.305716deg)}} #eYhOIH6eqCg13_ts {animation: eYhOIH6eqCg13_ts__ts 15000ms linear infinite normal forwards}@keyframes eYhOIH6eqCg13_ts__ts { 0% {transform: scale(0.977913,0.977913)} 6.666667% {transform: scale(0.2,0.2)} 100% {transform: scale(0.2,0.2)}} #eYhOIH6eqCg13 {animation: eYhOIH6eqCg13_c_o 15000ms linear infinite normal forwards}@keyframes eYhOIH6eqCg13_c_o { 0% {opacity: 1} 6% {opacity: 1} 6.666667% {opacity: 0} 100% {opacity: 0}} #eYhOIH6eqCg15 {animation: eYhOIH6eqCg15_c_o 15000ms linear infinite normal forwards}@keyframes eYhOIH6eqCg15_c_o { 0% {opacity: 1} 0.666667% {opacity: 1;animation-timing-function: cubic-bezier(0.42,0,0.58,1)} 2% {opacity: 0} 18.666667% {opacity: 0} 20% {opacity: 1} 100% {opacity: 1}} #eYhOIH6eqCg16 {animation: eYhOIH6eqCg16_c_o 15000ms linear infinite normal forwards}@keyframes eYhOIH6eqCg16_c_o { 0% {opacity: 0} 8% {opacity: 0} 8.666667% {opacity: 1} 9.333333% {opacity: 0} 10.666667% {opacity: 0} 11.333333% {opacity: 1} 12% {opacity: 0} 100% {opacity: 0}} #eYhOIH6eqCg17 {animation: eYhOIH6eqCg17_c_o 15000ms linear infinite normal forwards}@keyframes eYhOIH6eqCg17_c_o { 0% {opacity: 0} 7.333333% {opacity: 0;animation-timing-function: cubic-bezier(0.42,0,0.58,1)} 8% {opacity: 1;animation-timing-function: cubic-bezier(0.42,0,0.58,1)} 8.666667% {opacity: 0} 10% {opacity: 0;animation-timing-function: cubic-bezier(0.42,0,0.58,1)} 10.666667% {opacity: 1;animation-timing-function: cubic-bezier(0.42,0,0.58,1)} 11.333333% {opacity: 0} 100% {opacity: 0}} #eYhOIH6eqCg28_to {animation: eYhOIH6eqCg28_to__to 15000ms linear infinite normal forwards}@keyframes eYhOIH6eqCg28_to__to { 0% {transform: translate(10.449987px,31.176376px)} 18% {transform: translate(10.449987px,31.176376px)} 20% {transform: translate(8.536069px,29.576081px)} 100% {transform: translate(8.536069px,29.576081px)}} #eYhOIH6eqCg28_tr {animation: eYhOIH6eqCg28_tr__tr 15000ms linear infinite normal forwards}@keyframes eYhOIH6eqCg28_tr__tr { 0% {transform: rotate(0deg)} 20% {transform: rotate(0deg)} 100% {transform: rotate(0deg)}} #eYhOIH6eqCg28_ts {animation: eYhOIH6eqCg28_ts__ts 15000ms linear infinite normal forwards}@keyframes eYhOIH6eqCg28_ts__ts { 0% {transform: scale(0,0)} 18% {transform: scale(0,0)} 20% {transform: scale(1,1)} 100% {transform: scale(1,1)}} #eYhOIH6eqCg28 {animation: eYhOIH6eqCg28_c_o 15000ms linear infinite normal forwards}@keyframes eYhOIH6eqCg28_c_o { 0% {opacity: 1} 18% {opacity: 0} 20% {opacity: 1} 100% {opacity: 1}} #eYhOIH6eqCg29_to {animation: eYhOIH6eqCg29_to__to 15000ms linear infinite normal forwards}@keyframes eYhOIH6eqCg29_to__to { 0% {transform: translate(5.289853px,26.64613px)} 5.333333% {transform: translate(5.289853px,26.64613px)} 8.666667% {transform: translate(5.29px,17.02px)} 12% {transform: translate(0.56px,6.87px)} 100% {transform: translate(0.56px,6.87px)}} #eYhOIH6eqCg29_tr {animation: eYhOIH6eqCg29_tr__tr 15000ms linear infinite normal forwards}@keyframes eYhOIH6eqCg29_tr__tr { 0% {transform: rotate(0deg)} 5.333333% {transform: rotate(0deg)} 8.666667% {transform: rotate(69.992407deg)} 12% {transform: rotate(32.305716deg)} 100% {transform: rotate(32.305716deg)}} #eYhOIH6eqCg29_ts {animation: eYhOIH6eqCg29_ts__ts 15000ms linear infinite normal forwards}@keyframes eYhOIH6eqCg29_ts__ts { 0% {transform: scale(0.625719,0.625719)} 5.333333% {transform: scale(0.625719,0.625719)} 12% {transform: scale(0.1,0.1)} 100% {transform: scale(0.1,0.1)}} #eYhOIH6eqCg29 {animation: eYhOIH6eqCg29_c_o 15000ms linear infinite normal forwards}@keyframes eYhOIH6eqCg29_c_o { 0% {opacity: 1} 5.333333% {opacity: 1} 11.333333% {opacity: 1} 12% {opacity: 0} 100% {opacity: 0}} #eYhOIH6eqCg31_to {animation: eYhOIH6eqCg31_to__to 15000ms linear infinite normal forwards}@keyframes eYhOIH6eqCg31_to__to { 0% {transform: translate(31.783783px,30.363629px)} 9.333333% {transform: translate(31.783783px,30.363629px)} 12.666667% {transform: translate(42.49px,21.72px)} 16% {transform: translate(52.27px,4.74px)} 100% {transform: translate(52.27px,4.74px)}} #eYhOIH6eqCg31_tr {animation: eYhOIH6eqCg31_tr__tr 15000ms linear infinite normal forwards}@keyframes eYhOIH6eqCg31_tr__tr { 0% {transform: rotate(39.68deg)} 9.333333% {transform: rotate(39.68deg)} 12.666667% {transform: rotate(-30.247183deg)} 16% {transform: rotate(80.81196deg)} 23.333333% {transform: rotate(31.58deg)} 100% {transform: rotate(31.58deg)}} #eYhOIH6eqCg31_ts {animation: eYhOIH6eqCg31_ts__ts 15000ms linear infinite normal forwards}@keyframes eYhOIH6eqCg31_ts__ts { 0% {transform: scale(0.57933,0.57933)} 9.333333% {transform: scale(0.57933,0.57933)} 16% {transform: scale(0.1,0.1)} 100% {transform: scale(0.1,0.1)}} #eYhOIH6eqCg31 {animation: eYhOIH6eqCg31_c_o 15000ms linear infinite normal forwards}@keyframes eYhOIH6eqCg31_c_o { 0% {opacity: 1} 9.333333% {opacity: 1} 15.333333% {opacity: 1} 16% {opacity: 0} 100% {opacity: 0}} #eYhOIH6eqCg33_to {animation: eYhOIH6eqCg33_to__to 15000ms linear infinite normal forwards}@keyframes eYhOIH6eqCg33_to__to { 0% {transform: translate(30.802869px,32.229633px)} 10% {transform: translate(30.802869px,32.229633px)} 10.6% {transform: translate(30.802869px,32.229633px)} 10.666667% {transform: translate(45.802869px,28.229633px)} 12.666667% {transform: translate(45.802869px,28.229633px)} 14% {transform: translate(45.802869px,18.229633px)} 14.666667% {transform: translate(50.802869px,13.229633px)} 100% {transform: translate(50.802869px,13.229633px)}} #eYhOIH6eqCg33_ts {animation: eYhOIH6eqCg33_ts__ts 15000ms linear infinite normal forwards}@keyframes eYhOIH6eqCg33_ts__ts { 0% {transform: rotate(-40.305832deg) scale(1,1)} 10% {transform: rotate(-40.305832deg) scale(1,1)} 10.6% {transform: rotate(-40.305832deg) scale(1,1)} 10.666667% {transform: rotate(-40.305832deg) scale(1,1)} 12.666667% {transform: rotate(-40.305832deg) scale(1.327047,2.137999)} 13.333333% {transform: rotate(-40.305832deg) scale(2.097231,2.137999)} 100% {transform: rotate(-40.305832deg) scale(2.097231,2.137999)}} #eYhOIH6eqCg35_to {animation: eYhOIH6eqCg35_to__to 15000ms linear infinite normal forwards}@keyframes eYhOIH6eqCg35_to__to { 0% {transform: translate(33.868537px,27.363629px)} 20% {transform: translate(33.868537px,27.363629px)} 23.333333% {transform: translate(31.868537px,30.363629px)} 100% {transform: translate(31.868537px,30.363629px)}} #eYhOIH6eqCg35_ts {animation: eYhOIH6eqCg35_ts__ts 15000ms linear infinite normal forwards}@keyframes eYhOIH6eqCg35_ts__ts { 0% {transform: rotate(40.672249deg) scale(0.1,0.1)} 20% {transform: rotate(40.672249deg) scale(0.1,0.1)} 23.333333% {transform: rotate(40.672249deg) scale(0.57933,0.57933)} 100% {transform: rotate(40.672249deg) scale(0.57933,0.57933)}} #eYhOIH6eqCg35 {animation: eYhOIH6eqCg35_c_o 15000ms linear infinite normal forwards}@keyframes eYhOIH6eqCg35_c_o { 0% {opacity: 0} 20% {opacity: 0} 23.333333% {opacity: 1} 100% {opacity: 1}}
]]></style>
<defs><linearGradient id="eYhOIH6eqCg4-fill" x1="8" y1="29.2532" x2="8.82194" y2="6.07284" spreadMethod="pad" gradientUnits="userSpaceOnUse" gradientTransform="translate(0 0)"><stop id="eYhOIH6eqCg4-fill-0" offset="0%" stop-color="#bb772d"/><stop id="eYhOIH6eqCg4-fill-1" offset="28.6458%" stop-color="#fcf296"/><stop id="eYhOIH6eqCg4-fill-2" offset="82.2917%" stop-color="#fcf296"/><stop id="eYhOIH6eqCg4-fill-3" offset="100%" stop-color="#fda648"/></linearGradient><linearGradient id="eYhOIH6eqCg7-fill" x1="45.812748" y1="-5.099293" x2="45.812748" y2="38.894684" spreadMethod="pad" gradientUnits="userSpaceOnUse" gradientTransform="translate(0 0)"><stop id="eYhOIH6eqCg7-fill-0" offset="0%" stop-color="#bb772d"/><stop id="eYhOIH6eqCg7-fill-1" offset="29%" stop-color="#fcf296"/><stop id="eYhOIH6eqCg7-fill-2" offset="48%" stop-color="#fffce0"/><stop id="eYhOIH6eqCg7-fill-3" offset="70%" stop-color="#fcf296"/><stop id="eYhOIH6eqCg7-fill-4" offset="100%" stop-color="#bb772d"/></linearGradient><linearGradient id="eYhOIH6eqCg11-fill" x1="44.1935" y1="14.5513" x2="38.8066" y2="27.1597" spreadMethod="pad" gradientUnits="userSpaceOnUse" gradientTransform="translate(0 0)"><stop id="eYhOIH6eqCg11-fill-0" offset="0%" stop-color="#ff4e27"/><stop id="eYhOIH6eqCg11-fill-1" offset="100%" stop-color="#b81700"/></linearGradient><linearGradient id="eYhOIH6eqCg12-fill" x1="14" y1="5" x2="14" y2="16" spreadMethod="pad" gradientUnits="userSpaceOnUse" gradientTransform="translate(0 0)"><stop id="eYhOIH6eqCg12-fill-0" offset="0%" stop-color="#ff4e27"/><stop id="eYhOIH6eqCg12-fill-1" offset="100%" stop-color="#b81700"/></linearGradient><linearGradient id="eYhOIH6eqCg13-fill" x1="14" y1="5" x2="14" y2="16" spreadMethod="pad" gradientUnits="userSpaceOnUse" gradientTransform="translate(0 0)"><stop id="eYhOIH6eqCg13-fill-0" offset="0%" stop-color="#ff4e27"/><stop id="eYhOIH6eqCg13-fill-1" offset="100%" stop-color="#b81700"/></linearGradient><linearGradient id="eYhOIH6eqCg14-fill" x1="27.117" y1="29.2595" x2="27.6657" y2="6.05057" spreadMethod="pad" gradientUnits="userSpaceOnUse" gradientTransform="translate(0 0)"><stop id="eYhOIH6eqCg14-fill-0" offset="0%" stop-color="#bb772d"/><stop id="eYhOIH6eqCg14-fill-1" offset="28.6458%" stop-color="#fcf296"/><stop id="eYhOIH6eqCg14-fill-2" offset="82.2917%" stop-color="#fcf296"/><stop id="eYhOIH6eqCg14-fill-3" offset="100%" stop-color="#fda648"/></linearGradient><linearGradient id="eYhOIH6eqCg15-fill" x1="46.6174" y1="39.6118" x2="47.8926" y2="-3.98852" spreadMethod="pad" gradientUnits="userSpaceOnUse" gradientTransform="translate(0 0)"><stop id="eYhOIH6eqCg15-fill-0" offset="1%" stop-color="#bb772d"/><stop id="eYhOIH6eqCg15-fill-1" offset="28.6458%" stop-color="#fcf296"/><stop id="eYhOIH6eqCg15-fill-2" offset="47.9167%" stop-color="#fffce0"/><stop id="eYhOIH6eqCg15-fill-3" offset="69.7917%" stop-color="#fcf296"/><stop id="eYhOIH6eqCg15-fill-4" offset="100%" stop-color="#bb772d"/></linearGradient><linearGradient id="eYhOIH6eqCg20-fill" x1="14" y1="5" x2="14" y2="16" spreadMethod="pad" gradientUnits="userSpaceOnUse" gradientTransform="translate(0 0)"><stop id="eYhOIH6eqCg20-fill-0" offset="0%" stop-color="#ff4e27"/><stop id="eYhOIH6eqCg20-fill-1" offset="100%" stop-color="#b81700"/></linearGradient><linearGradient id="eYhOIH6eqCg21-fill" x1="8" y1="33.2532" x2="8.82194" y2="10.0728" spreadMethod="pad" gradientUnits="userSpaceOnUse" gradientTransform="translate(0 0)"><stop id="eYhOIH6eqCg21-fill-0" offset="0%" stop-color="#bb772d"/><stop id="eYhOIH6eqCg21-fill-1" offset="28.6458%" stop-color="#fcf296"/><stop id="eYhOIH6eqCg21-fill-2" offset="82.2917%" stop-color="#fcf296"/><stop id="eYhOIH6eqCg21-fill-3" offset="100%" stop-color="#fda648"/></linearGradient><linearGradient id="eYhOIH6eqCg22-fill" x1="27.1162" y1="33.2595" x2="27.6648" y2="10.0506" spreadMethod="pad" gradientUnits="userSpaceOnUse" gradientTransform="translate(0 0)"><stop id="eYhOIH6eqCg22-fill-0" offset="0%" stop-color="#bb772d"/><stop id="eYhOIH6eqCg22-fill-1" offset="28.6458%" stop-color="#fcf296"/><stop id="eYhOIH6eqCg22-fill-2" offset="82.2917%" stop-color="#fcf296"/><stop id="eYhOIH6eqCg22-fill-3" offset="100%" stop-color="#fda648"/></linearGradient><linearGradient id="eYhOIH6eqCg23-fill" x1="3.5" y1="19" x2="3.5" y2="25" spreadMethod="pad" gradientUnits="userSpaceOnUse" gradientTransform="translate(0 0)"><stop id="eYhOIH6eqCg23-fill-0" offset="0%" stop-color="#ff4e27"/><stop id="eYhOIH6eqCg23-fill-1" offset="100%" stop-color="#b81700"/></linearGradient><linearGradient id="eYhOIH6eqCg24-fill" x1="24.9887" y1="21.713" x2="22.0522" y2="26.9452" spreadMethod="pad" gradientUnits="userSpaceOnUse" gradientTransform="translate(0 0)"><stop id="eYhOIH6eqCg24-fill-0" offset="0%" stop-color="#ff4e27"/><stop id="eYhOIH6eqCg24-fill-1" offset="100%" stop-color="#b81700"/></linearGradient><linearGradient id="eYhOIH6eqCg25-fill" x1="46.6174" y1="43.6118" x2="47.8926" y2="0.011485" spreadMethod="pad" gradientUnits="userSpaceOnUse" gradientTransform="translate(0 0)"><stop id="eYhOIH6eqCg25-fill-0" offset="0%" stop-color="#bb772d"/><stop id="eYhOIH6eqCg25-fill-1" offset="28.6458%" stop-color="#fcf296"/><stop id="eYhOIH6eqCg25-fill-2" offset="47.9167%" stop-color="#fffce0"/><stop id="eYhOIH6eqCg25-fill-3" offset="69.7917%" stop-color="#fcf296"/><stop id="eYhOIH6eqCg25-fill-4" offset="100%" stop-color="#bb772d"/></linearGradient><linearGradient id="eYhOIH6eqCg28-fill" x1="3.5" y1="19" x2="3.5" y2="25" spreadMethod="pad" gradientUnits="userSpaceOnUse" gradientTransform="translate(0 0)"><stop id="eYhOIH6eqCg28-fill-0" offset="0%" stop-color="#ff4e27"/><stop id="eYhOIH6eqCg28-fill-1" offset="100%" stop-color="#b81700"/></linearGradient><linearGradient id="eYhOIH6eqCg29-fill" x1="14" y1="5" x2="14" y2="16" spreadMethod="pad" gradientUnits="userSpaceOnUse" gradientTransform="translate(0 0)"><stop id="eYhOIH6eqCg29-fill-0" offset="0%" stop-color="#ff4e27"/><stop id="eYhOIH6eqCg29-fill-1" offset="100%" stop-color="#b81700"/></linearGradient><linearGradient id="eYhOIH6eqCg31-fill" x1="14" y1="5" x2="14" y2="16" spreadMethod="pad" gradientUnits="userSpaceOnUse" gradientTransform="translate(0 0)"><stop id="eYhOIH6eqCg31-fill-0" offset="0%" stop-color="#ff4e27"/><stop id="eYhOIH6eqCg31-fill-1" offset="100%" stop-color="#b81700"/></linearGradient><linearGradient id="eYhOIH6eqCg35-fill" x1="14" y1="5" x2="14" y2="16" spreadMethod="pad" gradientUnits="userSpaceOnUse" gradientTransform="translate(0 0)"><stop id="eYhOIH6eqCg35-fill-0" offset="0%" stop-color="#ff4e27"/><stop id="eYhOIH6eqCg35-fill-1" offset="100%" stop-color="#b81700"/></linearGradient></defs><g transform="matrix(1.318479 0 0 1.318479-15.711693-9.248092)"><g transform="translate(12.268353 9.04556)"><path d="M8.24988,23.1724h2.57812v3.0931h-9.5676v-3.0931h2.45873c.26258-2.0813.87368-4.1916,1.82853-6.3404.95962-2.1488,2.1675-4.0229,3.62365-5.6225h-5.89141v2.4957h-3.2799v-5.52133h13.4347v2.32703c-.9214.8865-1.7712,2.0573-2.5638,3.5171-.7877,1.455-1.41314,3.0016-1.87624,4.63-.4631,1.6333-.71136,3.1365-.74478,4.5096v.0048Z" fill="url(#eYhOIH6eqCg4-fill)"/><g id="eYhOIH6eqCg5_to" transform="translate(40.911227,16.867185)"><g transform="translate(-40.911226,-16.867185)"><g mask="url(#eYhOIH6eqCg8)"><g id="eYhOIH6eqCg7_tr" transform="translate(41.719475,16.867177) rotate(0)"><g id="eYhOIH6eqCg7_ts" transform="scale(1,1)"><path id="eYhOIH6eqCg7" d="M52.61156,26.20991l2.5232,1.46693c.32169.19217.4021.63735.16087.92057-2.60367,3.04516-6.19249,5.19997-10.28389,5.96882-.3619.06072-.70372-.23269-.70372-.60696v-2.92372c0-.33387-.27142-.60702-.60312-.60702h-3.97079c-.33176,0-.60318.27315-.60318.87004v2.67083c0,.37427-.33176.66768-.70372.59683-4.08134-.76886-7.68022-2.92366-10.28384-5.96882-.25132-.28322-.16085-.7284.16084-.92057l2.52319-1.46693c.29155-.17197.39209-.53617.22121-.82958l-1.99045-3.45989c-.17089-.29335-.53279-.39453-.82431-.22256l-2.53328,1.46693c-.33173.19223-.75395.04046-.87458-.31361-.65342-1.87158-1.02537-3.88481-1.02537-5.97895s.37195-4.10737,1.02537-5.97895c.13068-.35407.5529-.50584.87458-.31361l2.53328,1.46693c.29152.17197.65342.07079.82431-.22256l1.99045-3.45989c.17088-.29341.07034-.65761-.22121-.82958L28.30421,6.06766c-.32169-.19217-.40211-.63735-.16084-.92057c2.60362-3.04513,6.19244-5.19998,10.28384-5.96884.3619-.0607.70372.23268.70372.607v2.91359c0,.33385.27142.607.60318.607h3.97079c.3317,0,.60312-.27315.60312-.87003v-2.6708c0-.37431.34182-.6677.70372-.59688c4.0914.77898,7.69028,2.93383,10.28389,5.97896.25129.28322.16082.7284-.16087.92057l-2.5232,1.46693c-.29155.17197-.39203.53617-.22115.82958l1.99043,3.45989c.17088.29335.53278.39453.82433.22256l2.53327-1.46693c.3317-.19223.75393-.04046.87454.31361.65345,1.87158,1.02535,3.88481,1.02535,5.97895s-.3719,4.10737-1.02535,5.97895c-.13068.35407-.55291.50584-.87454.31361l-2.53327-1.46693c-.29155-.17197-.65345-.07079-.82433.22256l-1.99043,3.45989c-.17088.29341-.0704.65761.22115.82958Zm1.03542-9.33767c0-6.6365-5.33796-12.00844-11.93249-12.00844s-11.93249,5.37194-11.93249,12.00844s5.34797,12.00844,11.93249,12.00844c6.59453,0,11.93249-5.37194,11.93249-12.00844Z" transform="translate(-41.719475,-16.867177)" opacity="0" fill="url(#eYhOIH6eqCg7-fill)"/></g></g><mask id="eYhOIH6eqCg8"><path id="eYhOIH6eqCg9" d="M50.544777,15.897662c0,0-15.665387-.077551-15.665387-.077551v-8.593102h38.930815v36.681824h-39.085919l.000002-6.409357h15.820489v-21.601814Z" transform="translate(-11.773298-9.439853)" fill="#fff" stroke="#3f5787" stroke-width="0"/></mask></g><g id="eYhOIH6eqCg10_ts" transform="translate(41.364301,17.13346) scale(1,1)"><path id="eYhOIH6eqCg10" d="M44.757,15.0673c-.3994,0-1.1326.1903-1.1326.1903s1.1326-1.3577,1.1326-2.2656c0-1.6517-1.4569-2.992-3.2523-2.992s-3.2523,1.3403-3.2523,2.992c0,.9079.4417,1.7165,1.1326,2.2656-.3525-.1211-.7332-.1903-1.1326-.1903-1.7954,0-3.2524,1.3404-3.2524,2.992s1.457,2.992,3.2524,2.992c1.0245,0,1.941-.4367,2.5332-1.1199.0564,1.7338-.2914,3.1433-.6063,4.0686h2.9187c-.3807-.8431-.8836-2.2699-.8977-4.0859.5969.6918,1.5134,1.1372,2.5474,1.1372c1.7953,0,3.2523-1.3404,3.2523-2.992s-1.457-2.992-3.2523-2.992h.0093Z" transform="translate(-41.5,-17)" opacity="0" fill="#d1021b"/></g><g id="eYhOIH6eqCg11_ts" transform="translate(41.391538,17.932666) scale(1,1)"><path d="M47.2568,24.6333c-1.6147,1.6585-5.0411,3.9236-5.1035,3.9562-.1885-.0914-4.1993-2.5298-5.9204-4.4608-1.4526-1.63-2.783-4.0452-1.574-6.3103c1.5658-2.9324,5.706-2.5468,7.2823-.3617c1.4919-2.2412,5.6148-2.7762,7.2907.0971c1.4934,2.5598-.3827,5.4443-1.9749,7.0789l-.0002.0006Z" transform="translate(-41.982498,-22.086657)" fill="url(#eYhOIH6eqCg11-fill)"/></g></g></g><g id="eYhOIH6eqCg12_to" transform="translate(18.419414,11.643171)"><g id="eYhOIH6eqCg12_ts" transform="scale(0,0)"><path d="M19.4225,11.4726c-.6666,1.7325-2.4754,4.4836-2.5111,4.5274-.1674-.0081-3.8844-.5428-5.7574-1.4249-1.58106-.7447-3.31891-2.1071-3.14146-4.1594.23024-2.65693,3.39726-3.67752,5.24376-2.56228.3931-2.12374,3.258-3.81801,5.394-2.22646c1.9033,1.41785,1.4297,4.13723.7722,5.84514v.0005Z" transform="translate(-14.000009,-10.499999)" fill="url(#eYhOIH6eqCg12-fill)"/></g></g><g id="eYhOIH6eqCg13_to" transform="translate(14.627164,10.126271)"><g id="eYhOIH6eqCg13_tr" transform="rotate(0)"><g id="eYhOIH6eqCg13_ts" transform="scale(0.977913,0.977913)"><path id="eYhOIH6eqCg13" d="M19.4225,11.4726c-.6666,1.7325-2.4754,4.4836-2.5111,4.5274-.1674-.0081-3.8844-.5428-5.7574-1.4249-1.58106-.7447-3.31891-2.1071-3.14146-4.1594.23024-2.65693,3.39726-3.67752,5.24376-2.56228.3931-2.12374,3.258-3.81801,5.394-2.22646c1.9033,1.41785,1.4297,4.13723.7722,5.84514v.0005Z" transform="translate(-14.000009,-10.499999)" fill="url(#eYhOIH6eqCg13-fill)"/></g></g></g><path d="M22.1724,11.2576v11.9387h2.0911v3.0739h-9.1522v-3.0739h2.3871v-11.9387h-2.3871v-3.07387h9.3337v3.07387h-2.2726Zm10.4269,0l-5.0654,4.9528l5.8866,6.9811h1.8524v3.0738h-9.6201v-3.0738h2.0912l-5.4236-6.4174l5.8389-5.5214h-2.1388v-3.07379h8.7607v3.07379h-2.1866l.0047.0049Z" fill="url(#eYhOIH6eqCg14-fill)"/><path id="eYhOIH6eqCg15" d="M58.174,11.6543c-.0716-.2168-.3246-.3131-.5204-.1975l-1.9622,1.1418c-.3246.1928-.7447.0771-.9309-.2505l-1.967-3.43516c-.191-.32762-.0764-.7516.2482-.9395l1.6997-.98767c.4201-.24571.5108-.80941.2005-1.1852-2.454-2.92447-5.8437-5.01063-9.7108-5.786314-.5013-.101176-.9692.284257-.9692.794955v1.965709c0,.38061-.3055.68896-.6827.68896h-3.934c-.3771,0-.6827-.30835-.6827-.68896v-2.028342c0-.428794-.3962-.741958-.8164-.650418-3.9387.881678-7.3618,3.13646-9.7633,6.23438h8.1305c1.3464-.6986,2.8312-1.15148,4.4067-1.27675c7.2902-.57815,13.3296,5.51171,12.7519,12.86861-.4535,5.7863-5.0988,10.4742-10.8327,10.9319-1.8476.1493-3.6141-.1349-5.2135-.7613h-8.8228c2.4588,2.9342,5.8724,5.0348,9.7586,5.8056.21.0434.4058-.1252.4058-.342v-1.4069c0-.3806.3055-.6889.6827-.6889h3.934c.3771,0,.6827.3083.6827.6889v1.4839c0,.2168.1957.3903.4106.3566c4.0008-.6649,7.5337-2.7173,10.0879-5.6611.2006-.2312.1385-.5974-.1289-.7516l-1.5898-.925c-.3246-.1927-.4392-.6119-.2483-.9395l1.967-3.4352c.191-.3276.6064-.4432.931-.2505l1.6423.9588c.2531.1493.5825.0337.678-.2458.635-1.8067.9883-3.7531.9883-5.7766c0-1.8501-.2913-3.6327-.826-5.3046l-.0048-.0048Z" fill="url(#eYhOIH6eqCg15-fill)"/><rect id="eYhOIH6eqCg16" width="2.819016" height="13.444539" rx="0" ry="0" transform="matrix(.599689 0 0 1.042642 53.602143 10.18023)" opacity="0" fill="#c33218" stroke-width="0"/></g><rect id="eYhOIH6eqCg17" width="4.67352" height="35.965783" rx="1" ry="1" transform="matrix(.61085 0 0 1.028242 65.381979 7.612675)" opacity="0" fill="#f3bb78" stroke-width="0" stroke-linecap="round"/></g><g display="none" transform="matrix(1.32 0 0 1.32 0.671782-2.715018)" clip-path="url(#eYhOIH6eqCg26)"><g><path d="M19.4225,11.4726c-.6666,1.7325-2.4754,4.4836-2.5111,4.5274-.1674-.0081-3.8844-.5428-5.7574-1.4249-1.58106-.7447-3.31891-2.1071-3.14146-4.1594.23024-2.65693,3.39726-3.67752,5.24376-2.56228.3931-2.12374,3.258-3.81801,5.394-2.22646c1.9033,1.41785,1.4297,4.13723.7722,5.84514v.0005Z" fill="url(#eYhOIH6eqCg20-fill)"/><path d="M8.24988,27.1724h2.57812v3.0931h-9.5676v-3.0931h2.45873c.26258-2.0814.87368-4.1916,1.82853-6.3404.95962-2.1488,2.1675-4.023,3.62365-5.6225h-5.89141v2.4957h-3.2799v-5.5214h13.4347v2.3271c-.9214.8865-1.7712,2.0572-2.5638,3.5171-.7877,1.455-1.41314,3.0015-1.87624,4.63-.4631,1.6333-.71136,3.1364-.74478,4.5095v.0049Z" fill="url(#eYhOIH6eqCg21-fill)"/><path d="M22.1716,15.2575v11.9388h2.0911v3.0739h-9.1522v-3.0739h2.3871v-11.9388h-2.3871v-3.0738h9.3336v3.0738h-2.2725Zm10.4269,0L27.533,20.2104l5.8867,6.9811h1.8524v3.0738h-9.6201v-3.0738h2.0911L22.3196,20.774l5.8389-5.5213h-2.1389v-3.0738h8.7607v3.0738h-2.1866l.0048.0048Z" fill="url(#eYhOIH6eqCg22-fill)"/><path d="M6.6631,22.5305c-.38884.945-1.44393,2.4456-1.46476,2.4695-.09765-.0044-2.2659-.2961-3.35853-.7772-.922259-.4062-1.936008-1.1494-1.832492-2.2688.134306-1.4492,1.981752-2.0059,3.058842-1.3976.22931-1.1584,1.90052-2.0825,3.14652-1.2144c1.11023.7734.83399,2.2567.45042,3.1882v.0003Z" fill="url(#eYhOIH6eqCg23-fill)"/><path d="M27.1245,26.4595c-.3101.5092-.7977.9267-1.2274,1.2095l-.0001.0003c-.8535.562-2.5703,1.2081-2.601,1.2161-.0782-.0586-1.7059-1.5204-2.338-2.5333-.5335-.8549-.9528-2.0399-.237-2.9067.927-1.1221,2.7672-.542,3.3148.5672.1853-.1823.422-.3159.6842-.3983l2.4045,2.8452Z" clip-rule="evenodd" fill="url(#eYhOIH6eqCg24-fill)" fill-rule="evenodd"/><path d="M58.174,15.6543c-.0716-.2168-.3246-.3131-.5204-.1975l-1.9622,1.1418c-.3246.1928-.7447.0771-.9309-.2505l-1.967-3.4352c-.191-.3276-.0764-.7516.2482-.9395l1.6997-.9876c.4201-.2457.5108-.8094.2005-1.18523-2.454-2.92447-5.8437-5.01063-9.7108-5.78631-.5013-.10118-.9692.28425-.9692.79495v1.96571c0,.38061-.3055.68896-.6827.68896h-3.934c-.3771,0-.6827-.30835-.6827-.68896v-2.02834c0-.4288-.3962-.74196-.8164-.65042-3.9387.88168-7.3618,3.13646-9.7633,6.23434h8.1305c1.3464-.69856,2.8312-1.15144,4.4067-1.27671c7.2902-.57815,13.3296,5.51171,12.7519,12.86861-.4535,5.7863-5.0988,10.4742-10.8327,10.9319-1.8476.1493-3.6141-.1349-5.2135-.7613h-8.8228c2.4588,2.9342,5.8724,5.0348,9.7586,5.8056.21.0434.4058-.1252.4058-.342v-1.4069c0-.3806.3055-.6889.6827-.6889h3.934c.3771,0,.6827.3083.6827.6889v1.4839c0,.2168.1957.3903.4106.3566c4.0008-.6649,7.5337-2.7173,10.0879-5.6611.2006-.2312.1385-.5974-.1289-.7516l-1.5898-.925c-.3246-.1927-.4392-.6119-.2483-.9395l1.967-3.4352c.191-.3276.6064-.4432.931-.2505l1.6423.9588c.2531.1493.5825.0337.678-.2458.635-1.8067.9883-3.7531.9883-5.7766c0-1.8501-.2913-3.6327-.826-5.3046l-.0048-.0048Z" fill="url(#eYhOIH6eqCg25-fill)"/></g><clipPath id="eYhOIH6eqCg26"><rect width="59" height="42" rx="0" ry="0" fill="#fff"/></clipPath></g><g id="eYhOIH6eqCg28_to" transform="translate(10.449987,31.176376)"><g id="eYhOIH6eqCg28_tr" transform="rotate(0)"><g id="eYhOIH6eqCg28_ts" transform="scale(0,0)"><path id="eYhOIH6eqCg28" d="M6.6631,22.5305c-.38884.945-1.44393,2.4456-1.46476,2.4695-.09765-.0044-2.2659-.2961-3.35853-.7772-.922259-.4062-1.936008-1.1494-1.832492-2.2688.134306-1.4492,1.981752-2.0059,3.058842-1.3976.22931-1.1584,1.90052-2.0825,3.14652-1.2144c1.11023.7734.83399,2.2567.45042,3.1882v.0003Z" transform="translate(-6.872863,-25.030602)" fill="url(#eYhOIH6eqCg28-fill)"/></g></g></g><g id="eYhOIH6eqCg29_to" transform="translate(5.289853,26.64613)"><g id="eYhOIH6eqCg29_tr" transform="rotate(0)"><g id="eYhOIH6eqCg29_ts" transform="scale(0.625719,0.625719)"><path id="eYhOIH6eqCg29" d="M19.4225,11.4726c-.6666,1.7325-2.4754,4.4836-2.5111,4.5274-.1674-.0081-3.8844-.5428-5.7574-1.4249-1.58106-.7447-3.31891-2.1071-3.14146-4.1594.23024-2.65693,3.39726-3.67752,5.24376-2.56228.3931-2.12374,3.258-3.81801,5.394-2.22646c1.9033,1.41785,1.4297,4.13723.7722,5.84514v.0005Z" transform="translate(-14.000009,-10.499999)" fill="url(#eYhOIH6eqCg29-fill)"/></g></g></g><g mask="url(#eYhOIH6eqCg32)"><g id="eYhOIH6eqCg31_to" transform="translate(31.783783,30.363629)"><g id="eYhOIH6eqCg31_tr" transform="rotate(39.68)"><g id="eYhOIH6eqCg31_ts" transform="scale(0.57933,0.57933)"><path id="eYhOIH6eqCg31" d="M19.4225,11.4726c-.6666,1.7325-2.4754,4.4836-2.5111,4.5274-.1674-.0081-3.8844-.5428-5.7574-1.4249-1.58106-.7447-3.31891-2.1071-3.14146-4.1594.23024-2.65693,3.39726-3.67752,5.24376-2.56228.3931-2.12374,3.258-3.81801,5.394-2.22646c1.9033,1.41785,1.4297,4.13723.7722,5.84514v.0005Z" transform="translate(-14.000009,-10.499999)" fill="url(#eYhOIH6eqCg31-fill)"/></g></g></g><mask id="eYhOIH6eqCg32" mask-type="luminance" x="-150%" y="-150%" height="400%" width="400%"><g id="eYhOIH6eqCg33_to" transform="translate(30.802869,32.229633)"><g id="eYhOIH6eqCg33_ts" transform="rotate(-40.305832) scale(1,1)"><rect width="8.094185" height="12.928213" rx="0" ry="0" transform="translate(-4.047092,-6.464106)" fill="#fff" stroke-width="0"/></g></g></mask></g><g mask="url(#eYhOIH6eqCg36)"><g id="eYhOIH6eqCg35_to" transform="translate(33.868537,27.363629)"><g id="eYhOIH6eqCg35_ts" transform="rotate(40.672249) scale(0.1,0.1)"><path id="eYhOIH6eqCg35" d="M19.4225,11.4726c-.6666,1.7325-2.4754,4.4836-2.5111,4.5274-.1674-.0081-3.8844-.5428-5.7574-1.4249-1.58106-.7447-3.31891-2.1071-3.14146-4.1594.23024-2.65693,3.39726-3.67752,5.24376-2.56228.3931-2.12374,3.258-3.81801,5.394-2.22646c1.9033,1.41785,1.4297,4.13723.7722,5.84514v.0005Z" transform="translate(-14.000009,-10.499999)" opacity="0" fill="url(#eYhOIH6eqCg35-fill)"/></g></g><mask id="eYhOIH6eqCg36" mask-type="luminance" x="-150%" y="-150%" height="400%" width="400%"><rect width="7.20403" height="16.442139" rx="0" ry="0" transform="matrix(.763094-.646288 0.646288 0.763094 23.673456 28.757437)" fill="#fff" stroke-width="0"/></mask></g></svg>
