<svg width="30" height="30" viewBox="0 0 30 30" fill="rgba(118,151,244,.5)" xmlns="http://www.w3.org/2000/svg">
                                        <path d="M19.9528 8.29609C19.9528 7.35915 19.1932 6.59961 18.2563 6.59961H2.07441C1.13747 6.59961 0.37793 7.35915 0.37793 8.29609C0.37793 9.23304 1.13747 9.99258 2.07441 9.99258H18.2563C19.1932 9.99258 19.9528 9.23304 19.9528 8.29609Z">
                                        </path>
                                        <path d="M24.7431 13.3855L23.0934 11.7358C22.4564 11.0988 22.4564 10.0659 23.0934 9.42891C23.7304 8.79187 24.7633 8.79187 25.4003 9.42891L29.9002 13.9287C30.5372 14.5658 30.5372 15.5986 29.9002 16.2357L25.4003 20.7355C24.7633 21.3725 23.7304 21.3725 23.0934 20.7355C22.4564 20.0985 22.4564 19.0656 23.0934 18.4286L24.7435 16.7785H2.07441C1.13747 16.7785 0.37793 16.0189 0.37793 15.082C0.37793 14.145 1.13747 13.3855 2.07441 13.3855H24.7431Z">
                                        </path>
                                        <path d="M19.9528 21.868C19.9528 20.9311 19.1932 20.1715 18.2563 20.1715H2.07441C1.13747 20.1715 0.37793 20.9311 0.37793 21.868C0.37793 22.8049 1.13747 23.5645 2.07441 23.5645H18.2563C19.1932 23.5645 19.9528 22.8049 19.9528 21.868Z">
                                        </path>
                                    </svg>