<svg width="69" height="32" viewBox="0 0 69 32" fill="none" xmlns="http://www.w3.org/2000/svg">
<g opacity="0.8" clip-path="url(#clip0_1627_3645)">
<g clip-path="url(#clip1_1627_3645)">
<path fill-rule="evenodd" clip-rule="evenodd" d="M33.9095 17.2739L37.0162 10.4765C37.4283 9.57967 38.3228 9 39.3096 9H43.0562V22.9995H38.6428V14.7311H38.3283L35.2215 21.523C34.8094 22.4198 33.9149 22.9995 32.9281 22.9995H29.1815V9H33.595V17.2739H33.9095ZM20.4465 10.8375L18.6084 17.2685H18.294L16.4559 10.8375C16.1415 9.74923 15.1547 9.00004 14.0269 9.00004H9.6189V22.9995H14.0323V14.7256H14.3468L16.8734 22.9995H20.029L22.5502 14.7256H22.8647V22.9995H27.2781V9.00004H22.8701C21.7477 9.00004 20.761 9.74923 20.4465 10.8375ZM44.8831 22.9994H49.3237V18.8597H53.7915C56.1283 18.8597 58.1183 17.5254 58.888 15.6497H44.8831V22.9994Z" fill="white"/>
<path d="M54.2307 8.99991C55.5048 8.99991 56.6597 9.49208 57.5326 10.3014C58.5086 11.1983 59.1213 12.4889 59.1213 13.9271C59.1213 14.2224 59.0887 14.5122 59.0399 14.7966H50.842C48.0659 14.7966 45.7128 12.9591 44.9212 10.4217C44.9104 10.3944 44.905 10.3616 44.8941 10.3288C44.8724 10.2522 44.8562 10.1702 44.8345 10.0936C44.7532 9.73816 44.6989 9.37724 44.6772 8.99991H54.2307Z" fill="url(#paint0_linear_1627_3645)"/>
</g>
</g>
<defs>
<linearGradient id="paint0_linear_1627_3645" x1="59.1213" y1="24.2485" x2="44.7657" y2="24.2485" gradientUnits="userSpaceOnUse">
<stop stop-color="white"/>
<stop offset="1" stop-color="white"/>
</linearGradient>
<clipPath id="clip0_1627_3645">
<rect width="49.5023" height="14" fill="white" transform="translate(9.6189 9)"/>
</clipPath>
<clipPath id="clip1_1627_3645">
<rect width="49.5023" height="14" fill="white" transform="translate(9.6189 9)"/>
</clipPath>
</defs>
</svg>
