<svg width="90" height="32" viewBox="0 0 90 32" fill="none" xmlns="http://www.w3.org/2000/svg">
<path d="M30.6704 18.661C29.2013 24.5539 23.2327 28.1402 17.3391 26.6707C11.4479 25.2015 7.86161 19.2326 9.33139 13.3402C10.7999 7.44661 16.7684 3.86003 22.6602 5.32916C28.5534 6.79829 32.1395 12.7679 30.6702 18.6611L30.6703 18.661H30.6704Z" fill="#F7931A"/>
<path fill-rule="evenodd" clip-rule="evenodd" d="M24.8517 14.4327C25.0706 12.9689 23.9561 12.182 22.4322 11.6571L22.9265 9.67413L21.7195 9.37336L21.2382 11.3041C20.9209 11.2249 20.595 11.1504 20.2711 11.0764L20.7559 9.13296L19.5495 8.83219L19.0549 10.8145C18.7923 10.7547 18.5344 10.6956 18.2841 10.6333L18.2855 10.6271L16.621 10.2114L16.2999 11.5006C16.2999 11.5006 17.1954 11.7059 17.1765 11.7186C17.6653 11.8406 17.7537 12.1641 17.739 12.4206L17.1759 14.6796C17.2095 14.6882 17.2532 14.7005 17.3014 14.7199L17.2663 14.7111L17.2662 14.7111C17.2365 14.7037 17.2056 14.6959 17.1738 14.6883L16.3844 17.8529C16.3247 18.0014 16.1731 18.2243 15.8313 18.1396C15.8434 18.1572 14.954 17.9207 14.954 17.9207L14.3547 19.3024L15.9255 19.694C16.0975 19.7371 16.2673 19.7814 16.4355 19.8252L16.4358 19.8253L16.4358 19.8253C16.5534 19.856 16.6701 19.8864 16.7861 19.916L16.2866 21.9217L17.4923 22.2225L17.987 20.2381C18.3163 20.3275 18.636 20.41 18.9489 20.4877L18.4559 22.4628L19.663 22.7635L20.1625 20.7616C22.2208 21.1512 23.7685 20.9941 24.4199 19.1324C24.9448 17.6335 24.3938 16.7689 23.3109 16.2051C24.0996 16.0232 24.6937 15.5045 24.8521 14.4329L24.8517 14.4326L24.8517 14.4327ZM22.0938 18.3005C21.7515 19.6757 19.599 19.1071 18.6141 18.847C18.5255 18.8236 18.4463 18.8027 18.3788 18.7859L19.0416 16.1288C19.124 16.1493 19.2245 16.1719 19.3385 16.1974C20.3572 16.4261 22.4444 16.8945 22.0938 18.3005H22.0938ZM19.5426 14.9638C20.3637 15.1829 22.1549 15.661 22.4669 14.4111H22.467C22.7856 13.1327 21.0448 12.7473 20.1946 12.5591C20.0989 12.5379 20.0146 12.5192 19.9457 12.5021L19.3447 14.912C19.4015 14.9261 19.468 14.9439 19.5426 14.9638Z" fill="white"/>
<path d="M41.7329 15.407C42.3233 15.4619 42.8169 15.6908 43.2137 16.0936C43.6202 16.4873 43.8234 17.0137 43.8234 17.6729C43.8234 18.506 43.5331 19.1606 42.9524 19.6367C42.3813 20.1127 41.5925 20.3508 40.5859 20.3508H37V10.7378H40.3972C41.4135 10.7378 42.2119 10.9621 42.7927 11.4107C43.3734 11.8502 43.6637 12.459 43.6637 13.2372C43.6637 14.4457 43.0201 15.1689 41.7329 15.407ZM40.3246 12.1248H38.6696V14.7615H40.3246C40.8473 14.7615 41.2538 14.6471 41.5441 14.4182C41.8442 14.1802 41.9942 13.8551 41.9942 13.4432C41.9942 13.022 41.849 12.697 41.5586 12.4681C41.2683 12.2392 40.8569 12.1248 40.3246 12.1248ZM40.5569 18.9638C41.0602 18.9638 41.4522 18.8356 41.7329 18.5792C42.0135 18.3229 42.1539 17.9658 42.1539 17.5081C42.1539 17.1053 42.0087 16.7802 41.7183 16.533C41.428 16.2767 41.0457 16.1485 40.5714 16.1485H38.6696V18.9638H40.5569Z" fill="white"/>
<path d="M47.0604 12.7153C46.8378 12.9259 46.5571 13.0312 46.2183 13.0312C45.8796 13.0312 45.5989 12.9259 45.3763 12.7153C45.1537 12.4956 45.0424 12.2301 45.0424 11.9188C45.0424 11.6075 45.1537 11.3466 45.3763 11.136C45.5989 10.9163 45.8796 10.8065 46.2183 10.8065C46.5571 10.8065 46.8378 10.9163 47.0604 11.136C47.283 11.3466 47.3943 11.6075 47.3943 11.9188C47.3943 12.2301 47.283 12.4956 47.0604 12.7153ZM45.4199 20.3508V13.9513H47.0023V20.3508H45.4199Z" fill="white"/>
<path d="M52.0985 19.0874C52.4178 19.0874 52.684 19.069 52.8969 19.0324V20.3508C52.5679 20.4057 52.1759 20.4332 51.721 20.4332C51.4597 20.4332 51.2322 20.4149 51.0386 20.3782C50.8451 20.3416 50.6176 20.2592 50.3563 20.1311C50.095 19.9937 49.8917 19.7603 49.7465 19.4307C49.6014 19.1011 49.5288 18.6845 49.5288 18.181V15.201H48.3819V13.9513H49.5288V12.0149H51.1112V13.9513H52.6647V15.201H51.1112V17.8377C51.1112 18.3504 51.1887 18.6891 51.3435 18.8539C51.4984 19.0095 51.75 19.0874 52.0985 19.0874Z" fill="white"/>
<path d="M57.1409 20.5156C56.1053 20.5156 55.2826 20.2089 54.6729 19.5955C54.0728 18.9729 53.7728 18.1581 53.7728 17.151C53.7728 16.144 54.0728 15.3337 54.6729 14.7203C55.2826 14.0978 56.1053 13.7865 57.1409 13.7865C58.0701 13.7865 58.8154 14.0108 59.3767 14.4594C59.9478 14.8988 60.272 15.4894 60.3494 16.2309H58.767C58.5927 15.4894 58.0507 15.1186 57.1409 15.1186C56.5796 15.1186 56.1392 15.2971 55.8198 15.6541C55.5101 16.002 55.3552 16.501 55.3552 17.151C55.3552 17.801 55.5101 18.3046 55.8198 18.6616C56.1392 19.0095 56.5796 19.1835 57.1409 19.1835C58.0411 19.1835 58.5831 18.8356 58.767 18.1398H60.3494C60.272 18.8631 59.9478 19.4398 59.3767 19.8701C58.8154 20.3004 58.0701 20.5156 57.1409 20.5156Z" fill="white"/>
<path d="M67.6839 19.568C67.0451 20.1997 66.1789 20.5156 65.0852 20.5156C63.9915 20.5156 63.1205 20.1997 62.472 19.568C61.8332 18.9271 61.5138 18.1215 61.5138 17.151C61.5138 16.1806 61.8332 15.3795 62.472 14.7478C63.1205 14.1069 63.9915 13.7865 65.0852 13.7865C66.1789 13.7865 67.0451 14.1069 67.6839 14.7478C68.3324 15.3795 68.6566 16.1806 68.6566 17.151C68.6566 18.1215 68.3324 18.9271 67.6839 19.568ZM63.6189 18.6204C63.977 18.9958 64.4658 19.1835 65.0852 19.1835C65.7047 19.1835 66.1886 18.9958 66.537 18.6204C66.8951 18.2451 67.0742 17.7553 67.0742 17.151C67.0742 16.5468 66.8951 16.057 66.537 15.6816C66.1886 15.3062 65.7047 15.1186 65.0852 15.1186C64.4658 15.1186 63.977 15.3062 63.6189 15.6816C63.2705 16.057 63.0963 16.5468 63.0963 17.151C63.0963 17.7553 63.2705 18.2451 63.6189 18.6204Z" fill="white"/>
<path d="M71.8146 12.7153C71.592 12.9259 71.3113 13.0312 70.9726 13.0312C70.6338 13.0312 70.3532 12.9259 70.1306 12.7153C69.9079 12.4956 69.7966 12.2301 69.7966 11.9188C69.7966 11.6075 69.9079 11.3466 70.1306 11.136C70.3532 10.9163 70.6338 10.8065 70.9726 10.8065C71.3113 10.8065 71.592 10.9163 71.8146 11.136C72.0372 11.3466 72.1486 11.6075 72.1486 11.9188C72.1486 12.2301 72.0372 12.4956 71.8146 12.7153ZM70.1741 20.3508V13.9513H71.7566V20.3508H70.1741Z" fill="white"/>
<path d="M73.7894 20.3508V13.9513H75.3719V14.8439C75.8074 14.139 76.543 13.7865 77.5786 13.7865C79.224 13.7865 80.0467 14.6333 80.0467 16.3271V20.3508H78.4642V17.0137C78.4642 16.3179 78.3529 15.8189 78.1303 15.5168C77.9077 15.2147 77.5254 15.0636 76.9834 15.0636C76.4704 15.0636 76.0736 15.2193 75.7929 15.5306C75.5122 15.8327 75.3719 16.2675 75.3719 16.8352V20.3508H73.7894Z" fill="white"/>
</svg>
