<svg width="60" height="32" viewBox="0 0 60 32" fill="none" xmlns="http://www.w3.org/2000/svg">
<path d="M22.2799 29.8998V27.9256C22.3036 27.5906 22.1794 27.2618 21.9391 27.0231C21.6988 26.7844 21.3656 26.6589 21.0245 26.6786C20.5738 26.6496 20.1428 26.8639 19.8996 27.238C19.6779 26.8751 19.272 26.6604 18.8417 26.6786C18.4671 26.66 18.1104 26.8378 17.9043 27.1458V26.7576H17.208V29.8998H17.911V28.1494C17.8795 27.9313 17.9493 27.7109 18.1011 27.5489C18.2529 27.387 18.4707 27.3006 18.6944 27.3136C19.1564 27.3136 19.3908 27.6098 19.3908 28.1428V29.8899H20.0938V28.1494C20.0648 27.9318 20.1354 27.7128 20.2867 27.5515C20.4379 27.3901 20.6542 27.303 20.8772 27.3136C21.3526 27.3136 21.5802 27.6098 21.5802 28.1428V29.8899L22.2799 29.8998ZM26.1968 28.3303V26.7609H25.4938V27.1426C25.2542 26.8387 24.8802 26.6672 24.4894 26.6819C23.565 26.6819 22.8155 27.4185 22.8155 28.3271C22.8155 29.2356 23.565 29.9722 24.4894 29.9722C24.8802 29.9869 25.2542 29.8154 25.4938 29.5116V29.8932H26.1901L26.1968 28.3303ZM23.609 28.3303C23.6399 27.814 24.0852 27.4167 24.6111 27.4361C25.137 27.4555 25.5507 27.8845 25.5422 28.4017C25.5337 28.9188 25.1061 29.3345 24.5798 29.3372C24.3104 29.3434 24.0508 29.2377 23.8647 29.0461C23.6786 28.8544 23.5834 28.5946 23.6023 28.3303H23.609ZM41.0744 26.6852C41.3036 26.6846 41.5309 26.7271 41.7439 26.8102C41.9511 26.8901 42.1401 27.0098 42.2996 27.1623C42.4545 27.3112 42.5775 27.4891 42.6612 27.6854C42.8361 28.1073 42.8361 28.5797 42.6612 29.0016C42.5776 29.198 42.4546 29.3759 42.2996 29.5247C42.1427 29.6749 41.9573 29.7934 41.754 29.8735C41.3125 30.0421 40.8228 30.0421 40.3814 29.8735C40.1789 29.7935 39.9946 29.675 39.839 29.5247C39.6856 29.3753 39.5639 29.1975 39.4808 29.0016C39.3063 28.5796 39.3063 28.1074 39.4808 27.6854C39.5639 27.4895 39.6856 27.3117 39.839 27.1623C39.9946 27.012 40.1789 26.8935 40.3814 26.8135C40.5989 26.7249 40.8321 26.6791 41.0677 26.6786L41.0744 26.6852ZM41.0744 27.3433C40.938 27.3414 40.8026 27.366 40.676 27.4156C40.5567 27.4627 40.4484 27.5332 40.3579 27.6229C40.2656 27.7174 40.1938 27.8293 40.147 27.952C40.0447 28.2147 40.0447 28.5052 40.147 28.768C40.1938 28.8906 40.2655 29.0026 40.3579 29.097C40.4484 29.1868 40.5566 29.2573 40.676 29.3043C40.931 29.4024 41.2143 29.4024 41.4694 29.3043C41.5944 29.2588 41.7085 29.1882 41.8042 29.097C41.8968 29.0028 41.9686 28.8907 42.0151 28.768C42.1173 28.5052 42.1173 28.2147 42.0151 27.952C41.9685 27.8292 41.8967 27.7172 41.8042 27.6229C41.7085 27.5317 41.5944 27.4611 41.4694 27.4156C41.3431 27.3588 41.2065 27.3275 41.0677 27.3235L41.0744 27.3433ZM29.9798 28.3303C29.9798 27.3433 29.3571 26.6852 28.4633 26.6852C27.5388 26.6979 26.7999 27.4448 26.8128 28.3534C26.8257 29.262 27.5857 29.9882 28.5101 29.9755C28.9867 29.9915 29.4527 29.8346 29.8191 29.5346L29.4843 29.0279C29.22 29.2362 28.8925 29.352 28.5536 29.3569C28.075 29.3974 27.6506 29.0561 27.5962 28.587H29.9698C29.9798 28.508 29.9798 28.4225 29.9798 28.3303ZM27.5995 28.054C27.6247 27.6146 28.0024 27.2756 28.4499 27.2906C28.6603 27.2862 28.8639 27.3642 29.0159 27.5073C29.1678 27.6505 29.2556 27.8471 29.26 28.054H27.5995ZM32.9091 27.5604C32.6034 27.3874 32.2575 27.2945 31.9048 27.2906C31.5231 27.2906 31.2955 27.4288 31.2955 27.6591C31.2955 27.8894 31.5365 27.9289 31.8378 27.9684L32.1726 28.0145C32.8689 28.1132 33.2908 28.4027 33.2908 28.9555C33.2908 29.5083 32.7551 29.9821 31.8345 29.9821C31.341 29.995 30.8564 29.852 30.4518 29.5741L30.7866 29.041C31.0938 29.2651 31.4688 29.381 31.8512 29.3701C32.3266 29.3701 32.581 29.2319 32.581 28.9884C32.581 28.8107 32.4002 28.712 32.0186 28.6594L31.6838 28.6133C30.9674 28.5146 30.5791 28.1987 30.5791 27.6854C30.5791 27.0603 31.1013 26.6786 31.9182 26.6786C32.3754 26.6636 32.8273 26.7778 33.2205 27.0077L32.9091 27.5604ZM36.2569 27.3827H35.122V28.8074C35.122 29.1365 35.2358 29.3339 35.584 29.3339C35.8013 29.3268 36.0132 29.2657 36.2 29.1562L36.4008 29.7419C36.1398 29.902 35.8381 29.9864 35.5304 29.9854C34.7069 29.9854 34.419 29.551 34.419 28.8206V27.3893H33.7695V26.7642H34.419V25.81H35.122V26.7642H36.2569V27.3827ZM38.6639 26.6786C38.8329 26.6792 39.0004 26.7081 39.1594 26.7642L38.9452 27.4222C38.8068 27.368 38.6589 27.3412 38.51 27.3433C38.0547 27.3433 37.8404 27.6328 37.8404 28.1527V29.913H37.1441V26.7708H37.8337V27.1524C38.0078 26.8585 38.3315 26.6818 38.6773 26.6918L38.6639 26.6786Z" fill="white"/>
<path d="M34.8392 4.35491H25.1589V21.6467H34.8392V4.35491Z" fill="#7673C0"/>
<path d="M25.7737 13.0019C25.771 9.62815 27.3292 6.44054 29.9992 4.35752C25.4633 0.81426 18.9495 1.33037 15.0355 5.54314C11.1216 9.75591 11.1216 16.251 15.0355 20.4637C18.9495 24.6765 25.4633 25.1926 29.9992 21.6493C27.3283 19.5657 25.7701 16.3767 25.7737 13.0019Z" fill="#EB001B"/>
<path d="M47.9002 12.9993C47.9002 17.2095 45.4815 21.05 41.6716 22.8899C37.8617 24.7297 33.3294 24.2458 29.9995 21.6436C32.6684 19.5589 34.2266 16.3717 34.2266 12.9977C34.2266 9.6238 32.6684 6.43661 29.9995 4.35183C33.3294 1.74969 37.8617 1.26578 41.6716 3.10561C45.4815 4.94544 47.9002 8.78601 47.9002 12.9962V12.9993Z" fill="#00A1DF"/>
</svg>
