<svg width="60" height="32" viewBox="0 0 60 32" fill="none" xmlns="http://www.w3.org/2000/svg">
<g clip-path="url(#clip0_1644_3655)">
<path fill-rule="evenodd" clip-rule="evenodd" d="M26.0721 25.638C26.073 25.7679 26.0209 25.8927 25.9275 25.9839C25.8342 26.0752 25.7076 26.1251 25.5766 26.1224C25.4461 26.1252 25.3202 26.075 25.2279 25.9836C25.1356 25.8921 25.085 25.7673 25.0878 25.638C25.0851 25.5081 25.1355 25.3826 25.2276 25.2901C25.3196 25.1976 25.4455 25.1459 25.5766 25.1468C25.7062 25.1442 25.8316 25.1927 25.9252 25.2817C26.0187 25.3707 26.0728 25.4929 26.0754 25.6214L26.0721 25.638ZM21.6597 28.3026C21.6439 28.7537 21.8203 29.1906 22.1458 29.5063C22.4713 29.8219 22.9157 29.9873 23.3704 29.9619C23.7896 29.9838 24.2019 29.8488 24.5254 29.5836L24.1906 29.0261C23.9489 29.2085 23.6541 29.3086 23.3503 29.3114C22.8063 29.2806 22.3812 28.8344 22.3812 28.2943C22.3812 27.7543 22.8063 27.3081 23.3503 27.2773C23.6541 27.2801 23.9489 27.3802 24.1906 27.5626L24.5254 27.0051C24.2019 26.7399 23.7896 26.6049 23.3704 26.6268C22.9157 26.6014 22.4713 26.7667 22.1458 27.0824C21.8203 27.3981 21.6439 27.835 21.6597 28.2861V28.3026ZM28.4323 26.6434C28.0854 26.6329 27.7605 26.8111 27.5853 27.108V26.7231H26.8956V29.9021H27.592V28.1334C27.592 27.6091 27.8196 27.3138 28.2615 27.3138C28.4104 27.3118 28.5583 27.3389 28.6967 27.3934L28.911 26.7297C28.752 26.6733 28.5844 26.6441 28.4155 26.6434H28.4323ZM34.9169 28.5548C34.9247 28.7827 34.8813 29.0094 34.7897 29.2185C34.7127 29.3895 34.5984 29.5414 34.4549 29.6632C34.3157 29.7795 34.1539 29.8665 33.9796 29.9187C33.6217 30.0271 33.2393 30.0271 32.8815 29.9187C32.7062 29.8664 32.5433 29.7795 32.4027 29.6632C32.2586 29.542 32.1442 29.3899 32.068 29.2185C31.977 29.0092 31.9336 28.7826 31.9407 28.5548V26.7231H32.6438V28.4918C32.6403 28.6248 32.6607 28.7574 32.704 28.8834C32.7382 28.9826 32.7955 29.0725 32.8714 29.1455C32.9425 29.213 33.0285 29.263 33.1225 29.2915C33.3234 29.3513 33.5376 29.3513 33.7385 29.2915C33.8326 29.263 33.9186 29.213 33.9896 29.1455C34.0655 29.0725 34.1229 28.9826 34.157 28.8834C34.2003 28.7574 34.2208 28.6248 34.2172 28.4918V26.7231H34.9203L34.9169 28.5548ZM30.0693 27.108C30.2445 26.8111 30.5695 26.6329 30.9163 26.6434H30.8996C31.0685 26.6441 31.236 26.6733 31.3951 26.7297L31.1808 27.3934C31.0424 27.3389 30.8945 27.3118 30.7456 27.3138C30.3037 27.3138 30.076 27.6091 30.076 28.1334V29.9021H29.3797V26.7231H30.0693V27.108ZM36.9591 26.6434C37.4185 26.6275 37.8728 26.7427 38.2681 26.9753L37.9567 27.5328C37.6508 27.3587 37.3051 27.265 36.9524 27.2607C36.5707 27.2607 36.3431 27.4199 36.3431 27.6323C36.3431 27.8447 36.5841 27.9044 36.8854 27.9443L37.2202 27.9907C37.9199 28.0903 38.3417 28.3358 38.3417 28.9431C38.3417 29.5504 37.8061 29.9818 36.8787 29.9818C36.3831 29.9957 35.8961 29.8515 35.4894 29.5703L35.8242 29.0327C36.1326 29.2589 36.5087 29.3757 36.8921 29.3645C37.3709 29.3645 37.6253 29.2252 37.6253 28.9796C37.6253 28.8004 37.4445 28.7009 37.0629 28.6478L36.7281 28.6013C36.0083 28.5017 35.62 28.1799 35.62 27.6622C35.62 27.0284 36.1456 26.6434 36.9591 26.6434ZM25.2284 29.9154H25.9315V26.7364H25.2284V29.9154Z" fill="white"/>
<path d="M25.1592 4.3524H34.8395V21.6488H25.1592V4.3524Z" fill="#007AD0"/>
<path d="M25.7738 13.0021C25.7702 9.62641 27.3285 6.43663 29.9993 4.3524C25.4634 0.808199 18.9495 1.32444 15.0356 5.53833C11.1216 9.75221 11.1216 16.249 15.0356 20.4629C18.9495 24.6767 25.4634 25.193 29.9993 21.6488C27.3293 19.5652 25.7711 16.3768 25.7738 13.0021Z" fill="#0066BA"/>
<path d="M47.8971 13.0022C47.896 17.2123 45.4779 21.0526 41.6691 22.8927C37.8603 24.7327 33.3292 24.2498 29.9993 21.6488C32.6681 19.5635 34.2264 16.3755 34.2264 13.0006C34.2264 9.6258 32.6681 6.43777 29.9993 4.35243C33.3292 1.7496 37.8615 1.26556 41.6715 3.10588C45.4814 4.94619 47.9 8.78778 47.9001 12.9991L47.8971 13.0022Z" fill="#00A2E5"/>
</g>
<defs>
<clipPath id="clip0_1644_3655">
<rect width="60" height="32" fill="white"/>
</clipPath>
</defs>
</svg>
