<svg width="85" height="32" viewBox="0 0 85 32" fill="none" xmlns="http://www.w3.org/2000/svg">
<g clip-path="url(#clip0_1623_3618)">
<path d="M30.7172 18.661C29.2478 24.5539 23.2787 28.1402 17.3846 26.6707C11.4928 25.2015 7.90612 19.2327 9.37613 13.3402C10.8448 7.44665 16.8139 3.86 22.7063 5.32917C28.6002 6.79834 32.1865 12.7678 30.7172 18.661Z" fill="#50AF95"/>
<path fill-rule="evenodd" clip-rule="evenodd" d="M21.3277 17.1367C21.2489 17.1426 20.8414 17.167 19.9323 17.167C19.2093 17.167 18.696 17.1453 18.5159 17.1367C15.7218 17.0133 13.6363 16.5251 13.6363 15.9406C13.6363 15.3561 15.7218 14.8686 18.5159 14.7433V16.6505C18.6986 16.6637 19.2218 16.6947 19.9448 16.6947C20.8124 16.6947 21.2469 16.6584 21.3251 16.6511V14.7446C24.1133 14.8693 26.1942 15.3574 26.1942 15.9406C26.1942 16.5238 24.1139 17.012 21.3251 17.136L21.3277 17.1367ZM21.3277 14.5473V12.8406H25.2188V10.2381H14.6249V12.8406H18.5152V14.5467C15.3531 14.6925 12.9751 15.3212 12.9751 16.0745C12.9751 16.8279 15.3531 17.456 18.5152 17.6024V23.0714H21.3271V17.6005C24.482 17.4547 26.856 16.8266 26.856 16.0739C26.856 15.3212 24.484 14.6931 21.3271 14.5467L21.3277 14.5473Z" fill="white"/>
</g>
<path d="M38.2267 12.307L40.1577 12.0871V13.984H41.8339V15.6335H40.1442V18.1903C40.1442 18.7951 40.3946 19.0975 40.8952 19.0975C41.217 19.0975 41.4852 19.0425 41.6998 18.9325L42.1423 20.582C41.7042 20.7561 41.2394 20.8569 40.7477 20.8844C39.9699 20.9211 39.3531 20.7332 38.8972 20.3209C38.4502 19.8993 38.2267 19.1891 38.2267 18.1903V15.6335H37.0466V13.984H38.2267V12.307Z" fill="white"/>
<path d="M49.0606 17.9841H44.1929C44.2466 18.3323 44.4298 18.6209 44.7427 18.8501C45.0556 19.07 45.4713 19.18 45.9898 19.18C46.7318 19.18 47.3039 19.0012 47.7062 18.6439L48.7924 19.881C48.1308 20.55 47.1832 20.8844 45.9496 20.8844C44.7695 20.8844 43.8532 20.5591 43.2006 19.9085C42.5569 19.2579 42.2351 18.3781 42.2351 17.2693C42.2351 16.2246 42.5525 15.3815 43.1872 14.74C43.8219 14.0894 44.6756 13.7641 45.7484 13.7641C46.9195 13.7641 47.8135 14.1306 48.4303 14.8638C49.0561 15.5969 49.2662 16.637 49.0606 17.9841ZM44.1929 16.5407H47.3308C47.3129 16.1925 47.152 15.9268 46.848 15.7435C46.5441 15.5511 46.1775 15.4548 45.7484 15.4548C45.364 15.4548 45.0332 15.5511 44.7561 15.7435C44.479 15.9359 44.2913 16.2017 44.1929 16.5407Z" fill="white"/>
<path d="M50.6708 12.307L52.6019 12.0871V13.984H54.2779V15.6335H52.5884V18.1903C52.5884 18.7951 52.8387 19.0975 53.3393 19.0975C53.6611 19.0975 53.9294 19.0425 54.1437 18.9325L54.5862 20.582C54.1482 20.7561 53.6836 20.8569 53.1917 20.8844C52.4141 20.9211 51.7971 20.7332 51.3411 20.3209C50.8941 19.8993 50.6708 19.1891 50.6708 18.1903V15.6335H49.4907V13.984H50.6708V12.307Z" fill="white"/>
<path d="M55.3108 11.1111H57.255V14.7812C57.729 14.1489 58.3993 13.8328 59.2667 13.8328C61.0277 13.8328 61.9082 14.9187 61.9082 17.0905V20.7332H59.9774V17.1043C59.9774 16.6369 59.861 16.275 59.6286 16.0183C59.4053 15.7618 59.1011 15.6335 58.7167 15.6335C58.2966 15.6335 57.9434 15.7801 57.6574 16.0733C57.3802 16.3666 57.2416 16.7744 57.2416 17.2967V20.7332H55.3108V11.1111Z" fill="white"/>
<path d="M69.481 17.9841H64.6135C64.6671 18.3323 64.8503 18.6209 65.1632 18.8501C65.476 19.07 65.8919 19.18 66.4105 19.18C67.1523 19.18 67.7245 19.0012 68.1269 18.6439L69.2131 19.881C68.5514 20.55 67.6038 20.8844 66.37 20.8844C65.1901 20.8844 64.2737 20.5591 63.621 19.9085C62.9773 19.2579 62.6558 18.3781 62.6558 17.2693C62.6558 16.2246 62.9731 15.3815 63.6078 14.74C64.2425 14.0894 65.0961 13.7641 66.1688 13.7641C67.3401 13.7641 68.2341 14.1306 68.8508 14.8638C69.4765 15.5969 69.6867 16.637 69.481 17.9841ZM64.6135 16.5407H67.7511C67.7335 16.1925 67.5724 15.9268 67.2685 15.7435C66.9646 15.5511 66.5982 15.4548 66.1688 15.4548C65.7844 15.4548 65.4539 15.5511 65.1767 15.7435C64.8994 15.9359 64.7117 16.2017 64.6135 16.5407Z" fill="white"/>
<path d="M70.282 13.9564H72.0789L72.2265 14.6987C72.6466 14.0939 73.2367 13.7915 73.9966 13.7915C74.6223 13.7915 75.163 13.9977 75.619 14.41L74.8145 15.977C74.5016 15.7479 74.1483 15.6334 73.7552 15.6334C73.3169 15.6334 72.9505 15.7754 72.6556 16.0595C72.3607 16.3344 72.2131 16.7147 72.2131 17.2004V20.7331H70.282V13.9564Z" fill="white"/>
<defs>
<clipPath id="clip0_1623_3618">
<rect width="22" height="22" fill="white" transform="translate(9.04663 5)"/>
</clipPath>
</defs>
</svg>
