<svg width="74" height="33" viewBox="0 0 74 33" fill="none" xmlns="http://www.w3.org/2000/svg">
<path d="M60.7072 13.0797V21.1789H57.803V15.4974H55.0067V21.1789H52.1025V13.0791H60.7072V13.0797Z" fill="white"/>
<path fill-rule="evenodd" clip-rule="evenodd" d="M46.1391 21.4682C48.7389 21.4682 50.6695 19.8808 50.6695 17.4744C50.6695 15.1452 49.2451 13.6329 46.8646 13.6329C45.766 13.6329 44.8595 14.018 44.1767 14.6825C44.3397 13.3091 45.5059 12.3064 46.79 12.3064C47.0864 12.3064 49.3174 12.3017 49.3174 12.3017L50.5791 9.89746C50.5791 9.89746 47.778 9.96096 46.4759 9.96096C43.5008 10.0126 41.4912 12.7056 41.4912 15.9764C41.4912 19.787 43.4512 21.4682 46.1391 21.4682ZM46.1549 15.7625C47.1202 15.7625 47.7894 16.3941 47.7894 17.4741C47.7894 18.4461 47.1948 19.247 46.1549 19.2492C45.1602 19.2492 44.491 18.5071 44.491 17.4907C44.491 16.4104 45.1602 15.7625 46.1549 15.7625Z" fill="white"/>
<path d="M39.1273 18.4675C39.1273 18.4675 38.4415 18.8611 37.4172 18.9357C36.2395 18.9705 35.1902 18.2298 35.1902 16.9138C35.1902 15.6301 36.1162 14.8943 37.3875 14.8943C38.167 14.8943 39.1983 15.4324 39.1983 15.4324C39.1983 15.4324 39.9529 14.0534 40.3438 13.3638C39.628 12.8236 38.6746 12.5273 37.5658 12.5273C34.7672 12.5273 32.5996 14.3444 32.5996 16.8975C32.5996 19.4831 34.6369 21.2579 37.5658 21.2044C38.3844 21.174 39.5138 20.8877 40.2021 20.4474L39.1273 18.4675Z" fill="white"/>
<path d="M12.3379 10.5469L15.1348 15.5254V18.5622L12.3412 23.5309L12.3379 10.5469Z" fill="#5B57A2"/>
<path d="M23.0771 13.714L25.698 12.1144L31.0617 12.1094L23.0771 16.9804V13.714Z" fill="#D90751"/>
<path d="M23.0621 10.518L23.0769 17.1094L20.2734 15.394V5.54102L23.0623 10.518H23.0621Z" fill="#FAB718"/>
<path d="M31.0615 12.1096L25.6976 12.1146L23.0621 10.518L20.2734 5.54102L31.0613 12.1096H31.0615Z" fill="#ED6F26"/>
<path d="M23.0769 23.5585V20.3606L20.2734 18.6777L20.275 28.5405L23.0769 23.5585Z" fill="#63B22F"/>
<path d="M25.6914 21.9735L15.1347 15.5254L12.3379 10.5469L31.0503 21.9669L25.6912 21.9735H25.6914Z" fill="#1487C9"/>
<path d="M20.2754 28.5414L23.077 23.5594L25.6913 21.9743L31.0502 21.9678L20.2754 28.5414Z" fill="#017F36"/>
<path d="M12.3408 23.5311L20.2961 18.6781L17.6216 17.0439L15.1345 18.5623L12.3408 23.5311Z" fill="#984995"/>
</svg>
