<svg width="60" height="32" viewBox="0 0 60 32" fill="none" xmlns="http://www.w3.org/2000/svg">
<path d="M34.8411 4.35504H25.1572V21.6469H34.8411V4.35504Z" fill="#FF5F00"/>
<path d="M25.7721 13.002C25.7694 9.62823 27.3282 6.44062 29.9992 4.3576C25.4615 0.814335 18.9452 1.33044 15.0298 5.54322C11.1144 9.75599 11.1144 16.251 15.0298 20.4638C18.9452 24.6766 25.4615 25.1927 29.9992 21.6494C27.3273 19.5658 25.7685 16.3768 25.7721 13.002Z" fill="#EB001B"/>
<path d="M47.9068 12.9994C47.9068 17.2096 45.4872 21.0502 41.6758 22.89C37.8645 24.7298 33.3304 24.2459 29.9993 21.6438C32.6691 19.559 34.228 16.3718 34.228 12.9979C34.228 9.62393 32.6691 6.43674 29.9993 4.35196C33.3304 1.74981 37.8645 1.2659 41.6758 3.10573C45.4872 4.94556 47.9068 8.78613 47.9068 12.9963V12.9994Z" fill="#F79E1B"/>
<path d="M18.5638 29.9247V28.0901C18.5638 27.3978 18.1214 26.9318 17.4095 26.9257C17.2067 26.9126 17.0042 26.954 16.8229 27.0457C16.6417 27.1373 16.4884 27.2758 16.379 27.4467C16.2793 27.2809 16.1367 27.145 15.9661 27.0533C15.7955 26.9616 15.6033 26.9175 15.4097 26.9257C15.2412 26.9176 15.0734 26.9534 14.923 27.0298C14.7726 27.1062 14.6447 27.2204 14.552 27.3611V26.9942H13.9136V29.9247H14.5581V28.3017C14.5581 27.7929 14.8399 27.5238 15.2762 27.5238C15.7124 27.5238 15.9146 27.799 15.9146 28.2956V29.9247H16.5554V28.3017C16.5554 27.7929 16.8495 27.5238 17.2735 27.5238C17.6975 27.5238 17.918 27.799 17.918 28.2956V29.9247H18.5638ZM28.1007 26.9966H27.0579V26.1087H26.4134V26.9966H25.8179V27.5788H26.4134V28.9132C26.4134 29.5933 26.6768 29.9981 27.4316 29.9981C27.7136 29.999 27.99 29.9206 28.2293 29.7718L28.0455 29.2263C27.8743 29.3282 27.6799 29.385 27.4807 29.3915C27.1621 29.3915 27.0567 29.1958 27.0567 28.9022V27.5788H28.0995L28.1007 26.9966ZM33.5449 26.9232C33.3893 26.9187 33.2353 26.9562 33.0992 27.0318C32.9631 27.1073 32.85 27.2182 32.7717 27.3525V26.9966H32.1394V29.9247H32.7778V28.2833C32.7778 27.7941 32.9862 27.5299 33.404 27.5299C33.5407 27.5279 33.6764 27.5529 33.8035 27.6033L33.9995 27.0027C33.8536 26.9507 33.6999 26.9238 33.5449 26.9232ZM25.3142 27.229C24.9528 27.0147 24.5372 26.9085 24.1171 26.9232C23.3745 26.9232 22.8917 27.2792 22.8917 27.8601C22.8917 28.3384 23.2471 28.6319 23.9039 28.7236L24.2041 28.7665C24.5533 28.8154 24.7199 28.9071 24.7199 29.0722C24.7199 29.2985 24.4871 29.4282 24.0509 29.4282C23.699 29.4393 23.3536 29.3316 23.0706 29.1224L22.7802 29.6177C23.152 29.8772 23.5974 30.0106 24.0509 29.9981C24.8976 29.9981 25.389 29.5994 25.389 29.0429C25.389 28.528 25.0018 28.2589 24.3646 28.1671L24.0644 28.1243C23.7887 28.0876 23.5669 28.0326 23.5669 27.8369C23.5669 27.6229 23.7752 27.4944 24.1256 27.4944C24.4467 27.4992 24.7613 27.5855 25.0398 27.7452L25.3142 27.229ZM42.4103 26.9232C42.2547 26.9187 42.1007 26.9562 41.9646 27.0318C41.8285 27.1073 41.7154 27.2182 41.6371 27.3525V26.9966H41.0048V29.9247H41.6433V28.2833C41.6433 27.7941 41.8516 27.5299 42.2694 27.5299C42.4061 27.5279 42.5418 27.5529 42.6689 27.6033L42.8649 27.0027C42.719 26.9507 42.5653 26.9238 42.4103 26.9232ZM34.1894 28.4607C34.1894 29.3487 34.8095 29.9981 35.7542 29.9981C36.1373 30.017 36.5136 29.8923 36.8092 29.6483L36.5029 29.1334C36.2822 29.3011 36.0132 29.3934 35.7358 29.3964C35.2261 29.3964 34.8524 29.0221 34.8524 28.4595C34.8524 27.8968 35.2273 27.5287 35.7358 27.5226C36.0132 27.5256 36.2822 27.6178 36.5029 27.7855L36.8092 27.2706C36.5136 27.0267 36.1373 26.9019 35.7542 26.9208C34.8095 26.9208 34.1894 27.5703 34.1894 28.4582V28.4607ZM40.1667 28.4607V26.993H39.5283V27.3489C39.4195 27.2087 39.2786 27.0965 39.1174 27.0219C38.9562 26.9472 38.7795 26.9121 38.6019 26.9196C37.7797 26.9196 37.1315 27.5629 37.1315 28.457C37.1315 29.3511 37.776 29.9945 38.6019 29.9945C38.7795 30.0019 38.9562 29.9669 39.1174 29.8922C39.2786 29.8175 39.4195 29.7053 39.5283 29.5651V29.9198H40.1667V28.4607ZM37.792 28.4607C37.792 27.9458 38.1289 27.5238 38.6816 27.5238C39.2097 27.5238 39.5651 27.9286 39.5651 28.4607C39.5651 28.9927 39.2097 29.3976 38.6816 29.3976C38.1289 29.3976 37.792 28.9744 37.792 28.4607ZM30.0894 26.9232C29.2317 26.9232 28.6288 27.5482 28.6288 28.4607C28.6288 29.3915 29.255 29.9981 30.1323 29.9981C30.5704 30.0134 30.9988 29.8671 31.3356 29.5872L31.0231 29.115C30.7794 29.3097 30.4775 29.4173 30.1654 29.4208C29.7537 29.4208 29.3799 29.2312 29.288 28.7041H31.4667C31.4728 28.6246 31.479 28.5451 31.479 28.4595C31.479 27.547 30.908 26.922 30.0858 26.922L30.0894 26.9232ZM30.0772 27.4932C30.4889 27.4932 30.7523 27.7501 30.8197 28.2038H29.2991C29.3665 27.7806 29.6238 27.4932 30.0784 27.4932H30.0772ZM46.0864 28.4607V25.82H45.448V27.3513C45.3391 27.2111 45.1982 27.099 45.0371 27.0243C44.8759 26.9496 44.6991 26.9145 44.5216 26.922C43.6994 26.922 43.0512 27.5654 43.0512 28.4595C43.0512 29.3535 43.6957 29.9969 44.5216 29.9969C44.6991 30.0044 44.8759 29.9693 45.0371 29.8946C45.1982 29.8199 45.3391 29.7078 45.448 29.5676V29.9223H46.0864V28.4607ZM43.7141 28.4607C43.7141 27.9458 44.0511 27.5238 44.6037 27.5238C45.1318 27.5238 45.4872 27.9286 45.4872 28.4607C45.4872 28.9927 45.1318 29.3976 44.6037 29.3976C44.0511 29.3976 43.7141 28.9744 43.7141 28.4607ZM22.1602 28.4607V26.993H21.5218V27.3489C21.4129 27.2099 21.2724 27.0988 21.112 27.0247C20.9515 26.9507 20.7757 26.9159 20.5991 26.9232C19.7769 26.9232 19.1287 27.5666 19.1287 28.4607C19.1287 29.3548 19.7732 29.9981 20.5991 29.9981C20.7766 30.0056 20.9534 29.9705 21.1145 29.8958C21.2757 29.8211 21.4166 29.709 21.5255 29.5688V29.9235H22.1639L22.1602 28.4607ZM19.7855 28.4607C19.7855 27.9458 20.1224 27.5238 20.6751 27.5238C21.2032 27.5238 21.5585 27.9286 21.5585 28.4607C21.5585 28.9927 21.2032 29.3976 20.6751 29.3976C20.1224 29.3976 19.7855 28.9756 19.7855 28.4607Z" fill="white"/>
</svg>
