<svg width="21" height="20" viewBox="0 0 21 20" fill="#8194c8" xmlns="http://www.w3.org/2000/svg">
                                      <path fill-rule="evenodd" clip-rule="evenodd" d="M12.5509 6.67888C13.9657 6.67888 15.1637 5.74811 15.6109 4.456H19.4135C20.0153 4.456 20.5 3.95788 20.5 3.33944C20.5 2.721 20.0153 2.22289 19.4135 2.22289H15.6108C15.1628 0.930081 13.961 0 12.547 0C11.133 0 9.93121 0.930081 9.48316 2.22289H1.59041C0.988629 2.22289 0.503935 2.721 0.503935 3.33944C0.503935 3.95788 0.988629 4.456 1.59041 4.456H9.48709C9.93514 5.7488 11.1369 6.67888 12.5509 6.67888ZM11.4705 3.33944C11.4705 2.72923 11.9532 2.23311 12.547 2.23311C13.1408 2.23311 13.6235 2.72923 13.6235 3.33944C13.6235 3.94965 13.1408 4.44577 12.547 4.44577C11.9541 4.44577 11.4705 3.94651 11.4705 3.33944Z" fill="#8194c8"></path>
                                      <path fill-rule="evenodd" clip-rule="evenodd" d="M8.09514 6.68063C9.50917 6.68063 10.7109 7.61071 11.159 8.90352H19.4135C20.0153 8.90352 20.5 9.40163 20.5 10.0201C20.5 10.6385 20.0153 11.1366 19.4135 11.1366H11.1592C10.7106 12.4332 9.5049 13.3595 8.09514 13.3595C6.68111 13.3595 5.47936 12.4294 5.03132 11.1366H1.59041C0.988631 11.1366 0.503937 10.6385 0.503937 10.0201C0.503937 9.40163 0.988632 8.90352 1.59041 8.90352H5.03132C5.47936 7.61071 6.68111 6.68063 8.09514 6.68063ZM7.01862 10.0201C7.01862 9.40986 7.50137 8.91374 8.09514 8.91374C8.68891 8.91374 9.17167 9.40986 9.17167 10.0201C9.17167 10.6303 8.68891 11.1264 8.09514 11.1264C7.50137 11.1264 7.01862 10.6303 7.01862 10.0201Z" fill="#8194c8"></path>
                                      <path fill-rule="evenodd" clip-rule="evenodd" d="M12.5509 20C13.9654 20 15.1642 19.0726 15.6113 17.7771H19.4135C20.0153 17.7771 20.5 17.279 20.5 16.6606C20.5 16.0421 20.0153 15.544 19.4135 15.544H15.6108C15.1628 14.2512 13.961 13.3211 12.547 13.3211C11.133 13.3211 9.93121 14.2512 9.48316 15.544H1.58648C0.984697 15.544 0.5 16.0421 0.5 16.6606C0.5 17.279 0.984697 17.7771 1.58647 17.7771H9.48709C9.93514 19.0699 11.1369 20 12.5509 20ZM11.4705 16.6606C11.4705 16.0504 11.9532 15.5542 12.547 15.5542C13.1408 15.5542 13.6235 16.0504 13.6235 16.6606C13.6235 17.2708 13.1408 17.7669 12.547 17.7669C11.9532 17.7669 11.4705 17.2708 11.4705 16.6606Z" fill="#8194c8"></path>
                                  </svg>