<svg width="21" height="20" viewBox="0 0 21 20" fill="#7886ab" xmlns="http://www.w3.org/2000/svg">
                                                <path fill-rule="evenodd" clip-rule="evenodd" d="M0.5 9.01726C0.5 4.03716 4.53716 0 9.51726 0C14.4974 0 18.5345 4.03716 18.5345 9.01726C18.5345 10.8551 17.9847 12.5646 17.0405 13.9901L19.8097 16.7593C20.514 17.4636 20.514 18.6055 19.8097 19.3097C19.1055 20.014 17.9636 20.014 17.2593 19.3097L14.4901 16.5405C13.0646 17.4847 11.3551 18.0345 9.51726 18.0345C4.53716 18.0345 0.5 13.9974 0.5 9.01726ZM13.4508 12.732C13.4117 12.765 13.3736 12.7999 13.3368 12.8368C13.2999 12.8736 13.265 12.9117 13.232 12.9508C12.2629 13.8663 10.9556 14.4276 9.51726 14.4276C6.5292 14.4276 4.1069 12.0053 4.1069 9.01726C4.1069 6.0292 6.5292 3.6069 9.51726 3.6069C12.5053 3.6069 14.9276 6.0292 14.9276 9.01726C14.9276 10.4556 14.3663 11.7629 13.4508 12.732Z">
                                                </path>
                                            </svg>