<svg width="109" height="26" viewBox="0 0 109 26" fill="none" xmlns="http://www.w3.org/2000/svg">
<path d="M79.4439 6.64795H70.8639L70.2485 10.5843L70.3723 11.1395L71.0478 7.44724L72.3175 12.8371L70.9559 19.38L70.2485 15.235L70.1106 16.0485L70.779 20.0873H79.5217L81.7993 12.8371L79.4439 6.64795ZM74.245 7.51444L77.0743 9.35351L76.4165 7.51444H78.2909L79.7976 11.6594H78.1459L75.2777 9.73547L75.8329 11.6417H73.8524L72.7242 7.51444H74.245ZM79.2883 19.7761H71.2459L72.6605 12.8548H81.474L79.3024 19.7761H79.2883Z" fill="white"/>
<path d="M69.3017 6.71802H60.6793L60.5378 11.5385L60.8349 8.3555L61.0542 12.8223L60.8951 17.6428L60.5414 14.955L60.7996 20.0867H69.3194L70.6032 12.84L69.3017 6.71802ZM66.1364 7.54914L66.7447 11.6411H64.7465L64.2054 7.56682H66.1364V7.54914ZM69.0577 19.7578H61.1815L61.4079 12.8365H70.2496L69.0577 19.7578Z" fill="white"/>
<path d="M50.5111 6.71874L49.6588 12.8726L50.5783 20.0874H59.1158L59.1866 12.7169L59.1158 6.70459L50.5111 6.71874ZM52.3007 7.58522H55.4837C55.4837 7.58522 57.5526 7.74084 57.5703 9.06002C57.588 10.3792 55.1689 10.602 55.1689 10.602H53.9841L53.878 11.663H51.8267L52.3148 7.58876L52.3007 7.58522ZM58.7692 19.7762H50.84L49.97 12.9079L58.8364 12.9256L58.7692 19.7762Z" fill="white"/>
<path d="M55.5838 9.02545C55.5838 8.57275 55.0285 8.57275 55.0285 8.57275H54.1055L54.0383 9.56302H55.0109C55.0109 9.56302 55.5838 9.45692 55.5838 9.02545Z" fill="white"/>
<path d="M47.6705 13.9647L48.6112 8.13976L49.4812 12.1256L48.7739 6.71802H40.056L38.3372 13.9647L40.4592 19.9487L49.0285 19.8603L49.6369 14.1026L48.8022 19.2025L47.6705 13.9647ZM42.4751 10.4987C42.0896 10.3749 41.4494 10.0637 41.4494 9.47309C41.4687 9.21903 41.546 8.97278 41.6754 8.75328C41.8047 8.53378 41.9827 8.34688 42.1957 8.20696C42.8785 7.80362 43.6632 7.60591 44.4556 7.63756C45.1951 7.63091 45.9285 7.77158 46.613 8.05135L45.8455 9.17955L45.552 9.0593C45.1322 8.9109 44.692 8.82857 44.247 8.81527C43.5679 8.79759 43.4477 9.07698 43.4477 9.1265C43.4477 9.17601 43.3946 9.35285 44.1939 9.45541C44.739 9.52091 45.2751 9.64664 45.7925 9.8303C45.9589 9.91196 46.102 10.0341 46.209 10.1855C46.3159 10.3369 46.383 10.5127 46.4043 10.6968C46.4075 10.8989 46.3653 11.0991 46.2809 11.2827C46.1964 11.4664 46.0718 11.6287 45.9163 11.7578C45.5166 12.1574 44.8199 12.5217 43.2567 12.5394C42.4082 12.5774 41.5621 12.4238 40.781 12.0902C40.781 12.0902 41.6829 10.8913 41.7005 10.8913C41.8707 10.9816 42.0454 11.063 42.224 11.1353C42.6391 11.2734 43.0709 11.3555 43.5078 11.3794C43.7341 11.3794 44.2929 11.3617 44.3955 11.0469C44.4981 10.7322 42.857 10.619 42.4751 10.4987ZM40.7067 19.6375L38.6908 14L47.3309 13.9647L48.5476 19.5491L40.7067 19.6375Z" fill="white"/>
<path d="M77.8714 13.9656L77.2454 16.1336L75.5549 13.9656H73.8573L72.7963 18.7012H74.7096L75.2472 16.6181L76.9342 18.7012H78.5009L79.9156 13.9656H77.8714Z" fill="#F9B300"/>
<path d="M64.3137 18.8388H66.2447L66.8176 14.0537H64.784L64.3137 18.8388Z" fill="#F9B300"/>
<path d="M52.4891 18.768H54.0877L54.6889 16.8617L55.4741 18.768H57.0373L58.4519 14.0359H56.7154L56.1566 16.1968L55.2548 14.0465H53.879L53.1717 16.1438L52.4926 14.0465H50.5793L52.4891 18.768Z" fill="#F9B300"/>
<path d="M46.9974 17.2091H46.2653L46.092 16.6008H44.2317L44.3519 17.2091H43.6234L45.2396 14.9739H43.153L41.3458 17.4496L41.6252 18.2807L44.6136 18.2984L44.8046 18.9562H46.6826L46.527 18.2807H47.2626L46.9974 17.2091ZM39.7825 18.3727L39.6057 19.1861L36.8259 16.3567L38.0673 7.60346L39.2839 9.52742L39.39 9.0924L38.0673 7.03052L29.0098 7.1154L27.5775 16.3426L31.4183 19.3806L39.8674 19.4655L39.9912 18.9279L39.7825 18.355V18.3727ZM31.7012 8.45226V8.43458H34.6897L33.8904 14.5743H31.8392L32.4651 10.0119H31.489L31.7012 8.45226ZM31.5244 19.0623L28.1009 16.3567H36.3414L39.1283 19.1507L31.5244 19.0623Z" fill="#F9B300"/>
<path d="M34.6515 17.4705L32.724 16.7632L32.3916 17.4705L30.4464 17.6085L32.5684 18.1955L33.1095 18.9029L34.6904 18.5704L36.9504 18.9241L35.946 18.1814L36.9362 17.6085L34.6409 17.4705H34.6515Z" fill="#F9B300"/>
</svg>
