<svg width="144" height="48" viewBox="0 0 144 48" fill="none" xmlns="http://www.w3.org/2000/svg">
<path d="M70.1562 30.9883C70.1584 30.9825 70.159 30.9763 70.158 30.9702C70.1571 30.9641 70.1545 30.9583 70.1507 30.9532C70.1469 30.9482 70.1418 30.9441 70.1359 30.9412C70.13 30.9384 70.1235 30.9369 70.1169 30.9368L68.378 30.94C68.369 30.94 68.36 30.9383 68.3516 30.9349C68.3432 30.9316 68.3356 30.9267 68.3292 30.9205C68.3228 30.9143 68.3178 30.907 68.3144 30.8989C68.311 30.8909 68.3094 30.8822 68.3095 30.8736L68.323 30.134C68.323 30.1011 68.3406 30.0847 68.3758 30.0847L71.3379 30.0879C71.3432 30.0879 71.3484 30.0889 71.3532 30.0908C71.3581 30.0927 71.3624 30.0954 71.3661 30.0989C71.3698 30.1024 71.3727 30.1066 71.3746 30.1111C71.3765 30.1157 71.3774 30.1205 71.3772 30.1254C71.3712 31.1072 71.0062 31.8368 70.282 32.3142C69.2228 33.012 67.749 32.9358 66.6999 32.222C65.5912 31.4674 65.3564 29.8949 66.1596 28.8724C67.3592 27.3439 70.2202 27.3503 71.1829 29.1521C71.2009 29.185 71.19 29.2014 71.1503 29.2014L70.0933 29.2025C70.0727 29.2025 70.0523 29.1986 70.0332 29.1908C70.0141 29.1831 69.9967 29.1718 69.9821 29.1575C68.7173 27.9045 66.3359 28.9688 66.874 30.7632C67.2941 32.1641 69.6271 32.4535 70.1562 30.9883Z" fill="url(#paint0_linear_2888_18641)"/>
<path d="M118.003 30.9336L116.288 30.9411C116.278 30.9411 116.267 30.939 116.257 30.935C116.247 30.931 116.238 30.9252 116.23 30.9178C116.222 30.9104 116.216 30.9017 116.212 30.892C116.208 30.8824 116.206 30.8721 116.206 30.8618L116.221 30.1661C116.222 30.1125 116.25 30.0857 116.306 30.0857H119.251C119.259 30.0857 119.267 30.0889 119.273 30.0945C119.279 30.1002 119.282 30.1078 119.282 30.1158C119.278 31.5435 118.368 32.61 116.901 32.7751C115.821 32.8973 114.623 32.5071 114.019 31.6496C113.325 30.6624 113.463 29.3247 114.396 28.5176C115.773 27.3278 118.168 27.5261 119.091 29.1554C119.111 29.1882 119.1 29.2047 119.061 29.2047L117.998 29.2014C117.955 29.2014 117.917 29.1868 117.886 29.1575C116.809 28.1456 114.892 28.6194 114.723 30.0836C114.504 31.9808 117.368 32.7183 118.054 31.0054C118.057 30.9973 118.058 30.9886 118.057 30.98C118.056 30.9714 118.053 30.9633 118.048 30.9562C118.043 30.9492 118.036 30.9434 118.028 30.9395C118.02 30.9355 118.011 30.9335 118.003 30.9336Z" fill="url(#paint1_linear_2888_18641)"/>
<path d="M76.5544 32.699L75.5042 32.7043C75.4963 32.7044 75.4886 32.7025 75.4818 32.6989C75.4749 32.6953 75.4691 32.6901 75.465 32.6837C75.4608 32.6774 75.4584 32.6702 75.458 32.6627C75.4576 32.6552 75.4592 32.6478 75.4626 32.6411L77.908 27.8809C77.9118 27.8735 77.9177 27.8672 77.9251 27.8629C77.9324 27.8585 77.9409 27.8562 77.9496 27.8562L78.9785 27.8584C78.9872 27.8584 78.9956 27.8607 79.003 27.865C79.0103 27.8694 79.0163 27.8756 79.0201 27.883L81.4542 32.6443C81.4577 32.651 81.4592 32.6585 81.4588 32.6659C81.4584 32.6734 81.456 32.6806 81.4519 32.6869C81.4477 32.6933 81.4419 32.6985 81.4351 32.7021C81.4282 32.7057 81.4205 32.7076 81.4127 32.7075L80.3141 32.6968C80.3054 32.6969 80.2969 32.6946 80.2896 32.6902C80.2822 32.6858 80.2763 32.6796 80.2725 32.6722L79.7772 31.6689C79.7735 31.6613 79.7677 31.6548 79.7603 31.6502C79.7529 31.6457 79.7444 31.6432 79.7356 31.6432L77.152 31.6421C77.1434 31.6421 77.1349 31.6444 77.1275 31.6487C77.1202 31.6531 77.1143 31.6593 77.1105 31.6668L76.5949 32.6743C76.5912 32.6816 76.5854 32.6877 76.5783 32.6921C76.5712 32.6964 76.5629 32.6988 76.5544 32.699ZM77.6081 30.7492C77.6056 30.7543 77.6046 30.7598 77.605 30.7654C77.6053 30.7709 77.6072 30.7763 77.6103 30.781C77.6135 30.7857 77.6178 30.7896 77.6229 30.7923C77.628 30.7949 77.6337 30.7964 77.6395 30.7964L79.2548 30.791C79.2607 30.7909 79.2665 30.7894 79.2716 30.7866C79.2767 30.7837 79.2809 30.7797 79.2839 30.7749C79.287 30.7701 79.2887 30.7646 79.2889 30.759C79.2891 30.7534 79.2878 30.7478 79.2852 30.7428L78.4719 29.1768C78.469 29.1714 78.4645 29.1669 78.4591 29.1637C78.4536 29.1606 78.4474 29.1589 78.441 29.1589C78.4346 29.1589 78.4284 29.1606 78.4229 29.1637C78.4175 29.1669 78.4131 29.1714 78.4101 29.1768L77.6081 30.7492Z" fill="url(#paint2_linear_2888_18641)"/>
<path d="M91.4683 29.8949C91.4691 29.7499 91.4342 29.7417 91.3638 29.8703L89.8474 32.6507C89.8272 32.6872 89.7954 32.7054 89.7519 32.7054L88.6814 32.7022C88.6551 32.7022 88.6293 32.6953 88.6069 32.6822C88.5845 32.6692 88.5664 32.6505 88.5545 32.6282C88.0468 31.6814 87.5331 30.7378 87.0134 29.7974C87.0104 29.7924 87.0066 29.7877 87.0021 29.7835C86.9564 29.7485 86.934 29.7527 86.9347 29.7963C86.946 30.7503 86.9448 31.7043 86.9314 32.6582C86.9314 32.6644 86.9301 32.6706 86.9276 32.6763C86.9251 32.682 86.9215 32.6872 86.9169 32.6916C86.9123 32.696 86.9068 32.6994 86.9009 32.7018C86.8949 32.7042 86.8884 32.7054 86.8819 32.7054L85.8665 32.7033C85.829 32.7033 85.8103 32.685 85.8103 32.6486V27.912C85.8103 27.8969 85.8165 27.8825 85.8274 27.8718C85.8384 27.8612 85.8532 27.8552 85.8687 27.8552H87.0538C87.0754 27.8551 87.0967 27.8608 87.1151 27.8716C87.1335 27.8824 87.1485 27.8979 87.1583 27.9163L89.2071 31.6432C89.209 31.647 89.2121 31.6503 89.2158 31.6526C89.2196 31.6549 89.224 31.6561 89.2285 31.6561C89.233 31.6561 89.2373 31.6549 89.2411 31.6526C89.2449 31.6503 89.2479 31.647 89.2498 31.6432L91.3009 27.9077C91.3097 27.8918 91.3229 27.8785 91.3389 27.8693C91.3549 27.86 91.3733 27.8551 91.3919 27.8552L92.5242 27.8573C92.5453 27.8573 92.5656 27.8654 92.5806 27.8799C92.5956 27.8944 92.604 27.914 92.604 27.9345L92.5983 32.6582C92.5983 32.6897 92.5819 32.705 92.5489 32.7043L91.4852 32.7033C91.4817 32.7033 91.4782 32.7026 91.475 32.7013C91.4718 32.7 91.4689 32.6981 91.4665 32.6957C91.4641 32.6933 91.4622 32.6904 91.461 32.6873C91.4597 32.6842 91.4592 32.6809 91.4593 32.6775L91.4683 29.8949Z" fill="url(#paint3_linear_2888_18641)"/>
<path d="M98.5507 27.8533L97.5712 27.8549C97.5284 27.855 97.4937 27.8882 97.4938 27.929L97.5024 32.6324C97.5025 32.6732 97.5373 32.7063 97.5801 32.7062L98.5596 32.7046C98.6024 32.7045 98.637 32.6713 98.6369 32.6305L98.6283 27.9271C98.6283 27.8863 98.5935 27.8532 98.5507 27.8533Z" fill="url(#paint4_linear_2888_18641)"/>
<path d="M104.752 32.7043L103.699 32.7033C103.689 32.7033 103.679 32.6994 103.672 32.6926C103.664 32.6857 103.66 32.6765 103.66 32.6668L103.659 27.8916C103.659 27.882 103.663 27.8727 103.671 27.8658C103.678 27.859 103.687 27.8552 103.698 27.8552L104.869 27.8573C104.875 27.8574 104.88 27.8587 104.885 27.8612C104.89 27.8636 104.895 27.867 104.898 27.8713L107.656 31.1844C107.661 31.1905 107.668 31.1949 107.675 31.1972C107.683 31.1994 107.691 31.1992 107.699 31.1967C107.706 31.1942 107.713 31.1895 107.718 31.1833C107.722 31.177 107.725 31.1695 107.725 31.1619L107.717 27.8916C107.717 27.8868 107.718 27.8821 107.72 27.8777C107.721 27.8732 107.724 27.8692 107.728 27.8658C107.731 27.8625 107.736 27.8598 107.74 27.8579C107.745 27.8561 107.75 27.8552 107.755 27.8552L108.819 27.8573C108.829 27.8573 108.838 27.8612 108.846 27.868C108.853 27.8748 108.857 27.8841 108.857 27.8938L108.855 32.669C108.855 32.6786 108.851 32.6879 108.843 32.6947C108.836 32.7016 108.826 32.7054 108.816 32.7054L107.651 32.7011C107.646 32.701 107.64 32.6997 107.635 32.6973C107.63 32.6949 107.626 32.6914 107.622 32.6872L104.859 29.3794C104.854 29.3733 104.847 29.3688 104.84 29.3666C104.832 29.3644 104.824 29.3646 104.816 29.3671C104.809 29.3696 104.802 29.3743 104.797 29.3805C104.793 29.3868 104.79 29.3942 104.79 29.4019V32.6679C104.79 32.6775 104.786 32.6868 104.779 32.6937C104.772 32.7005 104.762 32.7043 104.752 32.7043Z" fill="url(#paint5_linear_2888_18641)"/>
<path d="M41.1136 33.1931L41.1092 31.5596C41.1092 31.5367 41.0968 31.5253 41.0721 31.5253C40.0926 31.5267 39.1112 31.5271 38.128 31.5263C37.8044 31.5263 37.5716 31.4852 37.4293 31.4031C36.8497 31.0676 37.1428 30.1468 37.9067 30.1479C41.0571 30.1529 44.2076 30.1558 47.358 30.1565C47.5901 30.1565 47.7624 30.1836 47.8747 30.2379C48.333 30.4609 48.3285 31.1876 47.914 31.4138C47.7717 31.491 47.5332 31.5288 47.1985 31.5274C46.2459 31.5245 45.2934 31.5245 44.3408 31.5274C44.3019 31.5274 44.2824 31.546 44.2824 31.5831L44.2813 32.864V33.1963H44.3521C47.7219 33.2599 51.0682 33.5504 54.3909 34.0677C55.9455 34.3093 57.4792 34.6387 58.9919 35.056C59.8283 35.2868 60.5873 35.558 61.2688 35.8696C61.4695 35.9617 61.4601 35.991 61.2407 35.9575C55.3446 35.0721 49.3372 34.5404 43.3535 34.5019C42.6293 34.4976 41.8805 34.5061 41.1069 34.5276C35.4321 34.6884 29.7876 35.1786 24.1734 35.9982C24.1389 36.0032 24.1015 35.9978 24.061 35.9821C24.0453 35.9764 24.0303 35.9678 24.0161 35.9564C23.9929 35.9378 23.9948 35.9224 24.0217 35.9103C26.0931 34.9692 28.3767 34.4911 30.6615 34.1235C34.1242 33.5661 37.6082 33.256 41.1136 33.1931Z" fill="url(#paint6_linear_2888_18641)"/>
<path fill-rule="evenodd" clip-rule="evenodd" d="M67.7367 20.6393L68.8049 18.2576C68.8116 18.243 68.8225 18.2306 68.8363 18.2218C68.85 18.2131 68.8661 18.2084 68.8824 18.2083L72.2781 18.2051C72.3038 18.2051 72.3289 18.2122 72.3503 18.2256C72.3717 18.2389 72.3884 18.2579 72.3983 18.2801L73.5306 20.7551L74.2101 22.2525L74.6786 23.2783L74.9437 23.8367C75.1751 24.2626 75.5566 24.4841 76.0883 24.5013C76.1317 24.5027 76.1534 24.5238 76.1534 24.5645V25.8615C76.1534 25.9058 76.1298 25.9279 76.0827 25.9279H70.6505C70.622 25.9279 70.6078 25.9144 70.6078 25.8872L70.6055 24.6385C70.6055 24.572 70.6403 24.5349 70.71 24.527C71.1829 24.4734 71.6412 24.4798 71.4199 23.8335C71.3345 23.7063 71.181 23.6416 70.9594 23.6395C70.4164 23.6331 69.872 23.6341 69.3261 23.6427C69.0947 23.6459 68.9768 23.7456 68.9195 23.9471C68.7824 24.5045 69.2733 24.5184 69.6709 24.5463C69.6999 24.5484 69.7269 24.5609 69.7466 24.5811C69.7664 24.6014 69.7775 24.628 69.7777 24.6556L69.7833 25.8722C69.7833 25.9101 69.7638 25.929 69.7249 25.929L65.1991 25.9269C65.1325 25.9269 65.0988 25.8951 65.0981 25.8315L65.0891 24.5613C65.0891 24.522 65.1097 24.5034 65.1508 24.5056C65.6413 24.5306 65.9963 24.3548 66.2157 23.9782L66.6021 23.1421L67.2862 21.6362L67.7367 20.6393ZM70.1686 21.2299L70.6246 22.4304L69.6406 22.4347C69.5994 22.4347 69.5852 22.4158 69.5979 22.3779L69.8496 21.6737C69.9312 21.5122 69.9825 21.3689 70.0034 21.2439C70.0386 21.0373 70.0937 21.0327 70.1686 21.2299Z" fill="url(#paint7_linear_2888_18641)"/>
<path d="M77.4351 19.9083C77.1917 19.6754 76.9394 19.5457 76.678 19.5192C76.6398 19.5149 76.6203 19.4942 76.6196 19.457L76.6095 18.2683C76.6095 18.2219 76.6338 18.1983 76.6825 18.1976L81.8788 18.1901C81.8961 18.1901 81.913 18.195 81.9274 18.2041C81.9418 18.2133 81.953 18.2263 81.9597 18.2415L82.6258 19.7711L83.4447 21.6726C83.4949 21.7898 83.545 21.7898 83.5952 21.6726L83.958 20.8269L85.0813 18.2566C85.0893 18.2381 85.1029 18.2224 85.1203 18.2113C85.1377 18.2002 85.1581 18.1943 85.179 18.1944L90.5933 18.1955C90.6427 18.1955 90.6678 18.2194 90.6685 18.2673L90.6831 19.4603C90.6839 19.5031 90.6622 19.5264 90.618 19.5299C89.8485 19.5975 89.78 20.1055 89.8036 20.7497L89.8002 21.9395L89.807 22.618L89.8328 24.1604C90.0732 24.4155 90.3731 24.566 90.7326 24.6117C90.7738 24.6167 90.7966 24.6388 90.8011 24.6781C90.8161 24.7925 90.8097 24.9097 90.782 25.0297L90.7831 25.8765C90.7831 25.9108 90.7651 25.9279 90.7292 25.9279H85.6216C85.5917 25.9279 85.5771 25.9137 85.5778 25.8851L85.589 25.0404L85.5969 24.7103C85.5976 24.6696 85.6182 24.6431 85.6587 24.631C85.9612 24.5359 86.2117 24.3862 86.4102 24.1819L86.4225 22.722L86.418 21.8838L86.4191 21.0541C86.4192 21.0375 86.4142 21.0211 86.4049 21.0069C86.3956 20.9926 86.3822 20.9812 86.3663 20.9737C86.3252 20.9537 86.284 20.9541 86.2428 20.9748C86.2121 20.9905 86.1885 21.0206 86.172 21.0649C86.0088 21.4957 85.8358 21.9224 85.6531 22.3447L84.8623 24.2837L84.2164 25.8733C84.2098 25.8893 84.1983 25.9032 84.1833 25.9129C84.1682 25.9227 84.1504 25.9279 84.1321 25.9279H82.3618C82.3451 25.9279 82.3289 25.9232 82.3151 25.9144C82.3013 25.9057 82.2906 25.8932 82.2843 25.8786L81.6059 24.2698L80.7802 22.2997C80.6028 21.873 80.438 21.4807 80.286 21.1227C80.2441 21.0234 80.1688 20.9798 80.0602 20.992C80.0213 20.9963 80.0007 21.017 79.9984 21.0541L79.9771 21.5483L79.9883 23.4594C79.9771 23.8935 79.9142 24.169 80.2557 24.4005C80.4444 24.5077 80.6582 24.5774 80.8971 24.6095C80.9315 24.6138 80.9487 24.6331 80.9487 24.6674L80.9465 25.8518C80.9465 25.9026 80.9199 25.9279 80.8667 25.9279L76.6915 25.9301C76.6842 25.9301 76.6769 25.9287 76.6702 25.926C76.6634 25.9233 76.6573 25.9193 76.6522 25.9143C76.647 25.9093 76.643 25.9034 76.6403 25.8969C76.6376 25.8904 76.6363 25.8835 76.6364 25.8765L76.6421 24.6674C76.6421 24.6374 76.6574 24.6195 76.6881 24.6138C76.9015 24.5731 77.0955 24.4956 77.27 24.3812C77.6452 24.1915 77.5351 23.796 77.534 23.4519L77.5182 21.5804C77.5729 20.9602 77.5452 20.4028 77.4351 19.9083Z" fill="url(#paint8_linear_2888_18641)"/>
<path d="M92.0682 19.889C91.8787 19.6839 91.6436 19.5632 91.3627 19.5267C91.3465 19.5246 91.3316 19.5171 91.3208 19.5054C91.3101 19.4938 91.3042 19.4789 91.3043 19.4635L91.3099 18.3219C91.3099 18.2312 91.3579 18.1858 91.4537 18.1858L96.5467 18.1976C96.5661 18.1976 96.5846 18.2049 96.5983 18.218C96.612 18.2311 96.6197 18.2488 96.6197 18.2673L96.6253 19.4656C96.6253 19.5021 96.6066 19.5221 96.5692 19.5256C96.3086 19.5528 96.0584 19.6757 95.8188 19.8944C95.7162 20.6054 95.6907 21.3611 95.7424 22.1614C95.7282 22.7745 95.7256 23.3955 95.7346 24.0243C95.7375 24.2044 95.83 24.3623 96.012 24.4981C96.1992 24.6031 96.4235 24.6764 96.6849 24.7178C96.7208 24.7235 96.7388 24.7439 96.7388 24.7789L96.7365 25.8626C96.7365 25.9069 96.7129 25.929 96.6658 25.929L91.4032 25.9279C91.3802 25.9279 91.3582 25.9194 91.342 25.9041C91.3258 25.8888 91.3167 25.8681 91.3167 25.8465L91.3189 24.8068C91.3189 24.7739 91.3358 24.755 91.3695 24.75C91.6151 24.7121 91.8779 24.6085 92.158 24.4391C92.2351 23.6459 92.2512 22.8367 92.2063 22.0113C92.2175 21.474 92.2183 20.9302 92.2086 20.3799C92.2048 20.1813 92.158 20.0176 92.0682 19.889Z" fill="url(#paint9_linear_2888_18641)"/>
<path d="M104.531 20.47C103.656 19.6478 102.184 19.3809 101.406 20.4914C101.13 21.0359 101.203 21.6276 101.204 22.1968C101.202 22.8131 101.152 23.2107 101.451 23.7017C101.669 24.0404 101.96 24.2497 102.325 24.3298C102.911 24.4573 103.817 24.4488 104.078 23.811C104.176 23.4594 104.082 23.2229 103.798 23.1014C103.663 23.0446 103.432 23.05 103.253 22.9782C103.218 22.9639 103.2 22.9385 103.201 22.902L103.207 21.9009C103.207 21.8804 103.215 21.8608 103.231 21.8463C103.246 21.8319 103.267 21.8237 103.289 21.8237L108.51 21.8248C108.526 21.8251 108.542 21.8315 108.553 21.8428C108.565 21.854 108.571 21.8691 108.571 21.8848L108.573 22.8495C108.573 22.8718 108.564 22.8932 108.548 22.9095C108.532 22.9258 108.51 22.9358 108.486 22.9374C108.172 22.9589 107.918 23.0882 107.727 23.3254C107.706 23.3505 107.695 23.3817 107.694 23.4144L107.687 24.0029L107.685 24.6063V25.8411C107.685 25.8747 107.668 25.8915 107.632 25.8915L106.234 25.8754C106.217 25.8752 106.2 25.8701 106.185 25.861C106.171 25.8519 106.16 25.839 106.153 25.824C105.942 25.362 105.651 25.5185 105.263 25.6075C102.519 26.2345 99.4279 26.6107 97.4599 24.3319L97.1241 23.8367C96.8118 23.2686 96.6688 22.6587 96.695 22.007C96.6867 21.5154 96.8013 21.0459 97.0387 20.5986C97.761 19.3198 99.2224 18.4999 100.726 18.2962C102.319 18.0797 103.894 18.1215 105.387 18.7475C105.643 18.8547 105.91 18.5374 106.056 18.3809C106.067 18.3691 106.081 18.3597 106.096 18.3532C106.111 18.3467 106.127 18.3434 106.143 18.3434L107.609 18.3391C107.626 18.3391 107.642 18.3454 107.654 18.3567C107.666 18.3679 107.673 18.3832 107.673 18.3991V20.4014L107.675 21.1742C107.675 21.191 107.668 21.207 107.656 21.2189C107.643 21.2308 107.626 21.2374 107.609 21.2374L104.739 21.2406C104.729 21.2406 104.719 21.2388 104.71 21.2351C104.701 21.2314 104.692 21.226 104.685 21.2192C104.678 21.2125 104.673 21.2044 104.669 21.1956C104.665 21.1867 104.663 21.1773 104.664 21.1678C104.666 20.9334 104.622 20.7008 104.531 20.47Z" fill="url(#paint10_linear_2888_18641)"/>
<path fill-rule="evenodd" clip-rule="evenodd" d="M109.572 19.9501C111.044 17.9168 114.296 17.7989 116.561 18.2801C117.923 18.5685 119.169 19.3038 119.72 20.575L119.92 21.2171C120.007 21.668 120.023 22.1214 119.968 22.5773C119.909 23.1268 119.71 23.6452 119.371 24.1326L118.618 24.8936C116.998 26.1102 114.817 26.3406 112.857 25.9708C111.88 25.7875 110.75 25.3331 110.043 24.6396C109.767 24.3887 109.542 24.1079 109.37 23.7971C109.052 23.2004 108.922 22.5801 108.979 21.9363C108.992 21.2131 109.19 20.5511 109.572 19.9501ZM113.804 19.8172C114.736 19.0797 115.406 19.8172 115.662 20.6479L115.825 21.4411L115.821 22.872C115.79 23.3287 115.656 23.752 115.421 24.1422C114.806 24.9429 113.678 24.6771 113.331 23.7713C113.135 23.2025 113.056 22.5987 113.092 21.9599C113.095 21.2256 113.306 20.3842 113.804 19.8172Z" fill="url(#paint11_linear_2888_18641)"/>
<path fill-rule="evenodd" clip-rule="evenodd" d="M31.3298 16.5898C35.4197 12.2905 42.0201 11.0085 47.7422 12.7568C50.152 13.4928 52.2248 14.748 53.9607 16.5223C54.8765 17.4769 55.631 18.5492 56.2241 19.739C56.6494 20.6022 56.9651 21.5022 57.171 22.439L57.3743 23.7842L57.4249 24.8464C57.4249 26.3077 57.1336 27.7305 56.551 29.1146C56.2462 29.8364 55.8691 30.5234 55.4198 31.1758C55.084 31.6646 53.9921 31.5049 53.4698 31.4781C52.9845 31.4524 52.8048 31.2991 52.6419 30.8886C52.5506 30.6592 52.4588 30.4291 52.3667 30.1983C52.3532 30.1647 52.3656 30.1483 52.4038 30.149C52.8995 30.1583 53.393 30.1583 53.8843 30.149C54.1089 30.1447 54.2625 30.0511 54.3448 29.8681C54.3586 29.8365 54.3594 29.8009 54.3471 29.7685L54.1539 29.2647L53.271 27.0652C53.2582 27.033 53.2654 27.0062 53.2923 26.9848C53.4488 26.8576 53.5458 26.7011 53.5832 26.5153C53.8663 25.0962 51.6051 24.7425 51.2434 26.0115C51.0637 26.644 51.5299 27.181 52.1769 27.3107C52.1937 27.3139 52.2093 27.3213 52.2223 27.3322C52.2353 27.3431 52.2452 27.3571 52.251 27.3728L52.8318 28.9603C52.8378 28.976 52.8321 28.9839 52.8149 28.9839H51.9477C51.9268 28.9839 51.9129 28.9742 51.9062 28.9549L50.4324 25.0694L50.1145 24.2226C50.0921 24.1633 50.0475 24.1336 49.9809 24.1336L47.3411 24.1326C47.3349 24.1326 47.3288 24.134 47.3231 24.1365C47.3175 24.1391 47.3125 24.1428 47.3086 24.1474C47.3046 24.152 47.3017 24.1574 47.3002 24.1632C47.2986 24.1689 47.2984 24.1749 47.2996 24.1808L47.6321 25.7039C47.8081 26.525 47.9859 27.3442 48.1656 28.1617C48.2802 28.6805 48.1611 28.9485 47.5804 28.9485C46.8113 28.9478 46.043 28.9485 45.2754 28.9506C45.2648 28.9507 45.2546 28.947 45.2467 28.9403C45.2388 28.9335 45.2339 28.9242 45.2327 28.9142L44.8385 25.7661L44.6396 24.1958C44.6344 24.1551 44.6101 24.1343 44.5666 24.1336L44.0623 24.1293C44.0293 24.1286 44.0136 24.144 44.0151 24.1754L44.1106 25.9237L44.269 28.9056C44.2705 28.9378 44.2544 28.9538 44.2207 28.9538H41.1619C41.1148 28.9538 41.0927 28.9313 41.0957 28.8863L41.2586 25.8861L41.3552 24.1829C41.3574 24.1479 41.3402 24.1304 41.3035 24.1304L40.8047 24.1326C40.771 24.1326 40.7523 24.1486 40.7486 24.1808L40.4621 26.4864L40.1633 28.896C40.1589 28.9317 40.1375 28.9499 40.0993 28.9506L37.6528 28.9742C37.5773 28.9748 37.5027 28.9592 37.4343 28.9286C37.366 28.8981 37.3057 28.8533 37.2578 28.7975C37.21 28.7418 37.1759 28.6766 37.1579 28.6066C37.1399 28.5367 37.1386 28.4638 37.1541 28.3933L37.618 26.2892L38.074 24.1947C38.083 24.1533 38.0654 24.1326 38.0212 24.1326L35.3523 24.1336C35.3186 24.1336 35.2958 24.1486 35.2838 24.1786L34.9513 25.0426L33.5202 28.7909C33.0881 29.9171 32.8204 30.6328 32.7171 30.9379C32.589 31.3162 32.343 31.4438 31.9229 31.4792C31.3148 31.5292 30.8004 31.5253 30.3795 31.4674C29.8314 31.3924 28.9765 29.4362 28.7833 28.9549C28.2898 27.7523 28.0143 26.5018 27.9566 25.2034L28.024 23.5859L28.2172 22.3758C28.4067 21.5118 28.6931 20.6776 29.0765 19.8729C29.6546 18.6631 30.4057 17.5688 31.3298 16.5898ZM46.7458 15.9917C46.945 16.2296 47.1206 16.4504 47.2726 16.6541C47.7744 17.4044 48.1795 18.1754 48.488 18.9672C48.5052 19.0115 48.4895 19.0337 48.4408 19.0337L36.898 19.0326C36.865 19.0326 36.8541 19.0179 36.8654 18.9886C37.1657 18.2133 37.5341 17.493 37.9707 16.8277C39.2838 14.7751 41.5922 13.2938 44.1151 14.1352C45.1519 14.4814 46.055 15.1653 46.7458 15.9917ZM54.3347 19.4431C54.7062 19.4431 54.9698 19.6028 55.1255 19.9222L55.1199 20.9587C55.1199 20.9959 55.1016 21.0209 55.0649 21.0338L52.1735 22.0939C52.1413 22.106 52.1095 22.106 52.078 22.0939C50.6575 21.5636 49.235 21.0373 47.8107 20.515C47.5658 20.4249 47.2917 20.3606 47.0738 20.4442C45.6293 20.9995 44.1832 21.5543 42.7357 22.1089C42.7012 22.1217 42.6664 22.1217 42.6312 22.1089C41.2548 21.5829 39.8769 21.0599 38.4975 20.5396C38.229 20.4378 37.8943 20.3714 37.655 20.4603C36.1865 21.0063 34.7184 21.5515 33.2506 22.096C33.2224 22.1063 33.1916 22.1063 33.1642 22.096L30.3256 21.0391C30.2897 21.0263 30.2717 21.0013 30.2717 20.9641L30.2706 19.8912C30.4248 19.5925 30.6675 19.4431 30.9985 19.4431C38.7776 19.4417 46.5563 19.4417 54.3347 19.4431ZM55.1143 21.5954L54.6605 22.2396C53.9955 22.8956 53.1508 23.334 52.1263 23.5548L52.114 23.5572C51.671 23.6432 51.2268 23.7295 50.7604 23.7295C45.3342 23.731 39.9076 23.7313 34.4806 23.7306C34.238 23.7306 33.901 23.6909 33.4697 23.6116C32.4509 23.409 31.5882 23.0553 30.8322 22.3618L30.2683 21.6051C30.1815 21.4886 30.2069 21.4582 30.3447 21.514C31.1722 21.8484 32.0266 22.191 32.908 22.5419C33.1349 22.633 33.4248 22.5719 33.6786 22.4765C35.0842 21.9492 36.4917 21.4257 37.901 20.9062C37.9362 20.8934 37.9711 20.8934 38.0055 20.9062C39.5122 21.4622 41.0182 22.016 42.5234 22.5676C42.6177 22.6026 42.751 22.5887 42.9233 22.5258C44.406 21.987 45.8887 21.4475 47.3715 20.9073C47.4055 20.8955 47.4426 20.8959 47.4759 20.9084C48.8853 21.4379 50.2935 21.9649 51.7006 22.4894C51.9784 22.593 52.2559 22.5916 52.533 22.4851C53.3979 22.155 54.2344 21.8305 55.0424 21.5118C55.163 21.4647 55.1869 21.4925 55.1143 21.5954ZM45.2305 25.7918C45.7281 25.0704 46.8098 25.0136 47.34 25.7382C48.0679 26.9226 46.3392 27.8895 45.3956 26.9698C45.0833 26.6654 45.0283 26.2727 45.2305 25.7918ZM41.6158 25.7929C42.1381 25.0286 43.2805 25.019 43.7815 25.8175C43.9455 26.2199 43.9162 26.565 43.6938 26.853C42.9075 27.8745 41.0507 27.1359 41.6158 25.7929ZM40.2476 26.4564C40.4363 24.8314 37.6449 24.7982 37.8696 26.5153C38.2897 27.6354 39.9117 27.6236 40.2476 26.4564Z" fill="url(#paint12_linear_2888_18641)"/>
<defs>
<linearGradient id="paint0_linear_2888_18641" x1="72" y1="12" x2="72" y2="36" gradientUnits="userSpaceOnUse">
<stop offset="0.125" stop-color="#FFCE25"/>
<stop offset="0.552083" stop-color="#FB7429"/>
<stop offset="0.994792" stop-color="#F9342B"/>
</linearGradient>
<linearGradient id="paint1_linear_2888_18641" x1="72" y1="12" x2="72" y2="36" gradientUnits="userSpaceOnUse">
<stop offset="0.125" stop-color="#FFCE25"/>
<stop offset="0.552083" stop-color="#FB7429"/>
<stop offset="0.994792" stop-color="#F9342B"/>
</linearGradient>
<linearGradient id="paint2_linear_2888_18641" x1="72" y1="12" x2="72" y2="36" gradientUnits="userSpaceOnUse">
<stop offset="0.125" stop-color="#FFCE25"/>
<stop offset="0.552083" stop-color="#FB7429"/>
<stop offset="0.994792" stop-color="#F9342B"/>
</linearGradient>
<linearGradient id="paint3_linear_2888_18641" x1="72" y1="12" x2="72" y2="36" gradientUnits="userSpaceOnUse">
<stop offset="0.125" stop-color="#FFCE25"/>
<stop offset="0.552083" stop-color="#FB7429"/>
<stop offset="0.994792" stop-color="#F9342B"/>
</linearGradient>
<linearGradient id="paint4_linear_2888_18641" x1="72" y1="12" x2="72" y2="36" gradientUnits="userSpaceOnUse">
<stop offset="0.125" stop-color="#FFCE25"/>
<stop offset="0.552083" stop-color="#FB7429"/>
<stop offset="0.994792" stop-color="#F9342B"/>
</linearGradient>
<linearGradient id="paint5_linear_2888_18641" x1="72" y1="12" x2="72" y2="36" gradientUnits="userSpaceOnUse">
<stop offset="0.125" stop-color="#FFCE25"/>
<stop offset="0.552083" stop-color="#FB7429"/>
<stop offset="0.994792" stop-color="#F9342B"/>
</linearGradient>
<linearGradient id="paint6_linear_2888_18641" x1="72" y1="12" x2="72" y2="36" gradientUnits="userSpaceOnUse">
<stop offset="0.125" stop-color="#FFCE25"/>
<stop offset="0.552083" stop-color="#FB7429"/>
<stop offset="0.994792" stop-color="#F9342B"/>
</linearGradient>
<linearGradient id="paint7_linear_2888_18641" x1="72" y1="12" x2="72" y2="36" gradientUnits="userSpaceOnUse">
<stop offset="0.125" stop-color="#FFCE25"/>
<stop offset="0.552083" stop-color="#FB7429"/>
<stop offset="0.994792" stop-color="#F9342B"/>
</linearGradient>
<linearGradient id="paint8_linear_2888_18641" x1="72" y1="12" x2="72" y2="36" gradientUnits="userSpaceOnUse">
<stop offset="0.125" stop-color="#FFCE25"/>
<stop offset="0.552083" stop-color="#FB7429"/>
<stop offset="0.994792" stop-color="#F9342B"/>
</linearGradient>
<linearGradient id="paint9_linear_2888_18641" x1="72" y1="12" x2="72" y2="36" gradientUnits="userSpaceOnUse">
<stop offset="0.125" stop-color="#FFCE25"/>
<stop offset="0.552083" stop-color="#FB7429"/>
<stop offset="0.994792" stop-color="#F9342B"/>
</linearGradient>
<linearGradient id="paint10_linear_2888_18641" x1="72" y1="12" x2="72" y2="36" gradientUnits="userSpaceOnUse">
<stop offset="0.125" stop-color="#FFCE25"/>
<stop offset="0.552083" stop-color="#FB7429"/>
<stop offset="0.994792" stop-color="#F9342B"/>
</linearGradient>
<linearGradient id="paint11_linear_2888_18641" x1="72" y1="12" x2="72" y2="36" gradientUnits="userSpaceOnUse">
<stop offset="0.125" stop-color="#FFCE25"/>
<stop offset="0.552083" stop-color="#FB7429"/>
<stop offset="0.994792" stop-color="#F9342B"/>
</linearGradient>
<linearGradient id="paint12_linear_2888_18641" x1="72" y1="12" x2="72" y2="36" gradientUnits="userSpaceOnUse">
<stop offset="0.125" stop-color="#FFCE25"/>
<stop offset="0.552083" stop-color="#FB7429"/>
<stop offset="0.994792" stop-color="#F9342B"/>
</linearGradient>
</defs>
</svg>
