<svg width="109" height="26" viewBox="0 0 109 26" fill="none" xmlns="http://www.w3.org/2000/svg">
<path d="M46.2439 13.5537H40.7658V15.4029H43.9204C43.6202 16.0122 43.2227 16.4607 42.7308 16.7455C42.2388 17.0304 41.6357 17.1755 40.9186 17.1755C39.818 17.1755 38.8897 16.83 38.1392 16.1362C37.3888 15.4424 37.0136 14.5983 37.0136 13.5985C37.0136 12.633 37.3749 11.8127 38.1003 11.14C38.8257 10.4673 39.7179 10.1244 40.7908 10.1244C42.022 10.1244 43.0977 10.5887 44.0232 11.5146L45.4824 10.1455C44.8153 9.46229 44.1344 8.97955 43.4395 8.69729C42.6141 8.36492 41.7274 8.19873 40.7796 8.19873C39.2204 8.19873 37.9141 8.64454 36.8579 9.53879C36.8635 9.5678 36.8579 9.6021 36.8412 9.62848C36.8357 9.69706 36.7773 9.74718 36.7023 9.75246C36.6995 9.75246 36.6967 9.75246 36.6912 9.75246C36.5383 9.8738 36.4104 10.0189 36.2909 10.1745C36.2659 10.4146 36.0158 10.586 35.8573 10.7654C35.8268 10.8208 35.7962 10.8788 35.7628 10.9316C35.6739 11.0793 35.6239 11.235 35.5738 11.3959C35.5266 11.5462 35.4627 11.6887 35.4071 11.8338C35.2876 12.1371 35.2403 12.4537 35.1403 12.7623C35.0874 12.9259 35.018 13.0894 35.0068 13.2635C34.9957 13.435 35.0013 13.6012 34.9707 13.77C34.9679 13.7805 34.9652 13.7911 34.9596 13.799C35.1319 14.8964 35.5071 15.9726 36.202 16.8774C36.8218 17.682 37.7501 18.2386 38.7118 18.6105C39.7151 18.9983 40.863 19.0616 41.9275 18.8981C42.9587 18.7372 43.9509 18.3336 44.6513 17.5765C45.3629 16.8089 45.8382 15.8909 46.1022 14.9016C46.1161 14.8489 46.1522 14.8199 46.1939 14.812C46.2412 14.5403 46.2662 14.2659 46.2662 13.9863L46.2439 13.5537Z" fill="white"/>
<path d="M46.2141 14.6586C46.1224 15.3181 45.8889 15.9538 45.5193 16.5606C45.0246 17.3704 44.3853 17.9903 43.6015 18.415C42.8177 18.8423 41.895 19.0534 40.8388 19.0534C39.7076 19.0534 38.7014 18.8212 37.8148 18.3543C37.3062 18.0853 36.8559 17.7529 36.4696 17.3546C36.3862 17.2702 37.2228 17.5419 38.5208 17.6395C39.5575 17.7186 40.9333 17.6685 42.0728 17.3651C43.2318 17.0565 44.3158 16.426 45.0524 15.8272C45.8278 15.1968 46.2225 14.6032 46.2141 14.6586Z" fill="url(#paint0_linear_2_18931)"/>
<path d="M39.2491 18.8793C38.785 18.7896 38.2124 18.6181 37.626 18.2805C36.9617 17.898 36.5587 17.4574 36.2835 17.1567C36.1056 16.9589 35.8305 16.6555 35.5664 16.1939C35.2968 15.719 35.105 15.1994 34.9966 14.6349C34.8104 13.6694 34.891 12.7198 35.2385 11.7912C35.483 11.1344 35.8332 10.5619 36.2835 10.0739C36.5837 9.75211 36.8839 9.51733 36.8839 9.51733C36.8839 9.51733 36.6615 10.4564 36.4892 11.6435C36.2446 13.3265 36.6615 14.8433 36.6615 14.8433C36.9506 15.9459 37.4175 16.7267 37.6148 17.038C38.1652 17.9006 38.7905 18.502 39.2491 18.8793Z" fill="url(#paint1_linear_2_18931)"/>
<path d="M50.0079 14.8775H47.1761L46.5401 16.5517H45.621L48.2021 10.1367H48.9819L51.5677 16.5517H50.6531L50.0079 14.8775ZM47.4454 14.1813H49.7433L48.592 11.1809L47.4454 14.1813Z" fill="white"/>
<path d="M53.6288 10.1367L55.8385 15.3709L58.0482 10.1367H59.2041V16.5517H58.3128V14.0536L58.3964 11.3572L56.1774 16.5517H55.495L53.2806 11.3704L53.3688 14.0536V16.5517H52.4775V10.1367H53.6288Z" fill="white"/>
<path d="M61.4463 15.86H65.3133V16.5517H60.3925V15.9173L64.097 10.8329H60.4529V10.1367H65.1647V10.758L61.4463 15.86Z" fill="white"/>
<path d="M67.4255 16.5517H66.5342V10.1367H67.4255V16.5517Z" fill="white"/>
<path d="M71.3482 12.5952L72.9683 10.1367H74.0175L71.8821 13.3178L74.0685 16.5517H73.0101L71.3482 14.0492L69.677 16.5517H68.6232L70.8143 13.3178L68.6743 10.1367H69.7188L71.3482 12.5952Z" fill="white"/>
<path d="M50.0079 14.8775H47.1761L46.5401 16.5517H45.621L48.2021 10.1367H48.9819L51.5677 16.5517H50.6531L50.0079 14.8775ZM47.4454 14.1813H49.7433L48.592 11.1809L47.4454 14.1813Z" stroke="white" stroke-width="0.838528"/>
<path d="M53.6288 10.1367L55.8385 15.3709L58.0482 10.1367H59.2041V16.5517H58.3128V14.0536L58.3964 11.3572L56.1774 16.5517H55.495L53.2806 11.3704L53.3688 14.0536V16.5517H52.4775V10.1367H53.6288Z" stroke="white" stroke-width="0.838528"/>
<path d="M61.4463 15.86H65.3133V16.5517H60.3925V15.9173L64.097 10.8329H60.4529V10.1367H65.1647V10.758L61.4463 15.86Z" stroke="white" stroke-width="0.838528"/>
<path d="M67.4255 16.5517H66.5342V10.1367H67.4255V16.5517Z" stroke="white" stroke-width="0.838528"/>
<path d="M71.3482 12.5952L72.9683 10.1367H74.0175L71.8821 13.3178L74.0685 16.5517H73.0101L71.3482 14.0492L69.677 16.5517H68.6232L70.8143 13.3178L68.6743 10.1367H69.7188L71.3482 12.5952Z" stroke="white" stroke-width="0.838528"/>
<path d="M68.3645 9.68624C68.3506 9.52269 68.1394 8.58887 67.0248 8.58887C65.9548 8.58887 65.7213 9.68624 65.7213 9.68624C65.8242 9.56753 66.3022 9.26945 67.0415 9.26945C67.7836 9.26945 68.2617 9.56753 68.3645 9.68624Z" fill="#F2A50A"/>
<defs>
<linearGradient id="paint0_linear_2_18931" x1="36.9744" y1="18.359" x2="46.4808" y2="16.0679" gradientUnits="userSpaceOnUse">
<stop offset="0.00735868" stop-color="#352711"/>
<stop offset="1" stop-color="#F2A50A"/>
</linearGradient>
<linearGradient id="paint1_linear_2_18931" x1="35.8053" y1="10.4966" x2="37.2498" y2="18.121" gradientUnits="userSpaceOnUse">
<stop offset="0.00735868" stop-color="#352711"/>
<stop offset="1" stop-color="#F2A50A"/>
</linearGradient>
</defs>
</svg>
