<svg width="24" height="24" viewBox="0 0 24 24" fill="none" xmlns="http://www.w3.org/2000/svg">
<rect width="24" height="24" rx="12" fill="#00B6EF"/>
<path d="M5.63257 11.7642L8.67411 12.8994L9.85138 16.6855C9.92671 16.9279 10.2232 17.0176 10.42 16.8567L12.1154 15.4745C12.2932 15.3297 12.5463 15.3225 12.732 15.4573L15.7899 17.6774C16.0005 17.8305 16.2988 17.7151 16.3516 17.4607L18.5916 6.68547C18.6493 6.40757 18.3762 6.17573 18.1116 6.27808L5.629 11.0935C5.32096 11.2123 5.32364 11.6484 5.63257 11.7642ZM9.66165 12.2951L15.606 8.63397C15.7128 8.56837 15.8227 8.71282 15.731 8.79792L10.8252 13.3581C10.6528 13.5186 10.5415 13.7334 10.51 13.9666L10.3429 15.205C10.3208 15.3703 10.0885 15.3867 10.0429 15.2267L9.40016 12.9684C9.32655 12.7108 9.43382 12.4357 9.66165 12.2951Z" fill="white"/>
</svg>
