<svg width="25" height="24" viewBox="0 0 25 24" fill="none" xmlns="http://www.w3.org/2000/svg"><path d="M8.08 15.65V15l1.13-.14V9.4l-1.15.02V8.8l2.14-.47v6.54l1.12.14v.64H8.08zM14.55 15.75c-.48 0-.9-.08-1.25-.23-.36-.16-.64-.4-.83-.7-.2-.32-.3-.7-.3-1.15 0-.41.12-.78.37-1.1.25-.3.59-.54 1-.69a1.86 1.86 0 01-.85-.63c-.2-.3-.31-.63-.31-1 0-.44.09-.8.27-1.1.18-.3.43-.53.76-.69.32-.15.7-.23 1.13-.23.43 0 .8.08 1.14.23.32.16.58.4.76.7a2 2 0 01.29 1.08c0 .38-.11.72-.33 1-.21.3-.5.5-.86.64.42.15.75.38 1 .7.26.31.39.68.39 1.09 0 .45-.1.83-.3 1.14-.2.31-.48.55-.84.7-.36.16-.77.24-1.24.24zm0-.77c.28 0 .52-.05.72-.16.22-.1.38-.26.5-.46.11-.2.17-.44.17-.71 0-.27-.06-.5-.18-.72-.12-.2-.28-.37-.5-.48a1.46 1.46 0 00-.72-.18c-.27 0-.5.06-.72.18-.2.11-.37.28-.48.48-.12.2-.18.45-.18.72 0 .41.13.74.38.98.25.23.59.35 1.01.35zm0-3.49c.23 0 .44-.05.61-.15.19-.1.33-.25.43-.43.1-.18.15-.4.15-.65 0-.24-.06-.45-.16-.64-.1-.2-.24-.34-.43-.45a1.14 1.14 0 00-.6-.16c-.36 0-.64.11-.86.34-.22.23-.32.53-.32.91 0 .37.1.67.32.9.22.22.5.33.86.33z" fill="#FFF"></path><path d="M8.08 15.65V15l1.13-.14V9.4l-1.15.02V8.8l2.14-.47v6.54l1.12.14v.64H8.08zM14.55 15.75c-.48 0-.9-.08-1.25-.23-.36-.16-.64-.4-.83-.7-.2-.32-.3-.7-.3-1.15 0-.41.12-.78.37-1.1.25-.3.59-.54 1-.69a1.86 1.86 0 01-.85-.63c-.2-.3-.31-.63-.31-1 0-.44.09-.8.27-1.1.18-.3.43-.53.76-.69.32-.15.7-.23 1.13-.23.43 0 .8.08 1.14.23.32.16.58.4.76.7a2 2 0 01.29 1.08c0 .38-.11.72-.33 1-.21.3-.5.5-.86.64.42.15.75.38 1 .7.26.31.39.68.39 1.09 0 .45-.1.83-.3 1.14-.2.31-.48.55-.84.7-.36.16-.77.24-1.24.24zm0-.77c.28 0 .52-.05.72-.16.22-.1.38-.26.5-.46.11-.2.17-.44.17-.71 0-.27-.06-.5-.18-.72-.12-.2-.28-.37-.5-.48a1.46 1.46 0 00-.72-.18c-.27 0-.5.06-.72.18-.2.11-.37.28-.48.48-.12.2-.18.45-.18.72 0 .41.13.74.38.98.25.23.59.35 1.01.35zm0-3.49c.23 0 .44-.05.61-.15.19-.1.33-.25.43-.43.1-.18.15-.4.15-.65 0-.24-.06-.45-.16-.64-.1-.2-.24-.34-.43-.45a1.14 1.14 0 00-.6-.16c-.36 0-.64.11-.86.34-.22.23-.32.53-.32.91 0 .37.1.67.32.9.22.22.5.33.86.33z" stroke="#FFF" stroke-width=".46" stroke-linejoin="round"></path><path d="M20.15 7V1.85h.87V7h-.87zm-2.13-2.14V4h5.14v.87h-5.14z" fill="#FFF" stroke="#FFF" stroke-width=".91" stroke-linejoin="round"></path><path d="M24.1 8.88A12 12 0 1116.08.54l-.46 1.47a10.47 10.47 0 107 7.27l1.48-.4z" fill="#FFF"></path></svg>