<svg width="39" height="24" viewBox="0 0 39 24" fill="none" xmlns="http://www.w3.org/2000/svg"><path d="M12.3 13.42l1.23-2.18c.03-.06.08-.09.16-.09h6.12c.11 0 .13.04.12.12v7.79c0 .11-.04.13-.15.13H3.12c-.06 0-.12.01-.19-.02C6.22 13.27 9.8 7.5 13.16 1.63a.17.17 0 01.16-.1h6.5c.1 0 .12.03.12.11v7.19c0 .1-.05.1-.13.1H17.3c-.12 0-.14-.03-.14-.13V3.79c0-.19.02-.16-.18-.16h-1.17c-.1 0-.15.03-.2.11a755.76 755.76 0 01-6.53 10.98l-.71 1.18-.29.49c-.05.09.08.06.15.06H17c.12 0 .16-.02.16-.14v-2.75c0-.1-.03-.13-.15-.13h-4.51c-.08 0-.14.02-.21-.01zM35.83 19.18c-.07.02-.13.02-.18.02h-2.7c-.19 0-.3-.04-.38-.2-.9-1.65-1.93-3.25-2.88-4.88-.1-.2-.23-.37-.32-.57-.04-.08-.1-.1-.2-.1h-5.4c-.12 0-.13.03-.13.13v5.48c0 .11-.03.15-.15.15h-2.6c-.11 0-.15-.02-.15-.13V1.68c0-.09.01-.12.13-.12h4.54c.1 0 .15.03.19.1 3.38 5.85 6.73 11.73 10.23 17.52zM23.66 3.97c-.04.05-.03.11-.03.16v6.9c0 .1.02.13.14.13h4c.05 0 .1.01.16-.03l-4.27-7.16zM1.07 22.3l1.27-2.16c.09-.16.13-.27.36-.27h33.4c.12 0 .18.04.24.14.41.64.79 1.3 1.15 1.97l.16.25c.05.07.02.08-.05.08H1.07z" fill="#FFF"></path></svg>