<svg width="22" height="24" viewBox="0 0 22 24" fill="none" xmlns="http://www.w3.org/2000/svg"><g clip-path="url(#clip0_7344_658603)" fill="#FFF"><path d="M3.56 22.26C3.51 23.3 2.82 24 1.89 24c-.49 0-.9-.2-1.24-.57a1.75 1.75 0 01-.42-1.18 1.7 1.7 0 011.7-1.7c.66 0 1.18.33 1.43.9h-.58a1.07 1.07 0 00-.89-.42c-.3 0-.6.12-.81.34-.23.24-.36.57-.36.89 0 .35.12.67.33.89.23.24.54.37.84.37.5 0 .88-.26 1.13-.8H1.54v-.46h2.02zM5.08 21.24L4.6 22.5h.93l-.46-1.26zm-1.01 2.7h-.5l1.28-3.33h.46l1.28 3.32h-.52l-.36-.96H4.44l-.37.96zM6.76 23.93v-3.32h.7l.96 2.57.94-2.57h.7v3.32H9.6l.03-2.88-1.06 2.88h-.33l-1.06-2.88.03 2.88h-.46zM12.14 24c-.48 0-.89-.18-1.21-.53-.31-.33-.47-.74-.47-1.23 0-.46.17-.88.5-1.2a1.68 1.68 0 012.82.84h-.86c-.18-.33-.44-.5-.76-.5a.86.86 0 00-.87.86c0 .53.4.94.85.94.31 0 .58-.17.76-.48h.87c-.22.8-.84 1.3-1.63 1.3zM15.28 21.7l-.32 1.07h.64l-.32-1.07zm-.7 2.23h-.88l1.26-3.32h.65l1.25 3.32h-.88l-.16-.48h-1.08l-.17.48zM17.89 22.15c.4 0 .59-.1.59-.4 0-.28-.17-.4-.53-.4h-.22v.8h.16zm-.96 1.78v-3.32h1.09c.34 0 .6.03.82.19.3.2.45.51.45.92 0 .54-.28.94-.75 1.07l.8 1.14h-.98l-.63-1.07v1.07h-.8zM19.7 23.93v-3.32h1.78v.74h-.97v.53h.97v.74h-.97v.58h.97v.73h-1.77zM20.9 11.5a.8.8 0 00-.29-.1l-.07-.02h-6.58a.83.83 0 00-.81.83c0 .46.37.83.82.83h2.48c.09 0 .15.07.15.16 0 .04-.02.08-.06.11a10.66 10.66 0 01-5.03 1.19c-.47 0-.92-.03-1.37-.08v1.89c.39.03.78.04 1.18.04 2.67 0 5.1-.66 6.92-1.74a.16.16 0 01.23.2l-.38 1.04a1.07 1.07 0 00.98 1.43c.42 0 .82-.27.98-.7l1.37-3.78a1.06 1.06 0 00-.52-1.3zM11.5 4.35c1.94 0 3.71.45 5.08 1.2 0 0 .87.64 1.28.03.47-.7-.47-1.13-.47-1.13a14.2 14.2 0 00-7.25-1.25v1.23c.45-.05.9-.08 1.37-.08z"></path><path d="M1.69 0C.89 0 .24.66.24 1.47v16.01c0 .81.65 1.47 1.45 1.47h8.45V16.3c-5.08-.38-9.04-3.17-9.04-6.55 0-3.4 3.96-6.18 9.04-6.56V0H1.7z"></path><path d="M3.66 9.43c0 2.5 2.8 4.57 6.48 5v-10c-3.68.42-6.48 2.5-6.48 5z"></path></g><defs><clipPath id="clip0_7344_658603"><path fill="#fff" transform="translate(.23)" d="M0 0h21.26v24H0z"></path></clipPath></defs></svg>