<svg width="129" height="24" viewBox="0 0 129 24" fill="none" xmlns="http://www.w3.org/2000/svg"><path d="M3.51 10.65c-.58 0-1.08-.14-1.5-.4a2.65 2.65 0 01-.98-1.11A3.71 3.71 0 01.68 7.5v-.1c0-.63.12-1.18.35-1.65.23-.47.55-.84.95-1.1.4-.27.85-.4 1.36-.4a4 4 0 011.24.17c.34.1.63.26.87.44v1.26h-.7l-.08-.9c-.14-.1-.31-.16-.52-.2-.2-.05-.44-.08-.72-.08-.36 0-.68.1-.97.3-.28.21-.51.5-.68.87-.16.36-.25.79-.25 1.28v.1c0 .5.08.94.23 1.3.16.37.38.66.68.86.3.2.65.3 1.07.3.29 0 .53-.02.73-.06.2-.06.37-.12.52-.2V8.23l-1.2-.04v-.62h2.05v2.4a2.6 2.6 0 01-.78.47c-.33.14-.77.2-1.32.2zM8.08 10.65c-.49 0-.86-.12-1.1-.35a1.3 1.3 0 01-.39-1c0-.3.08-.55.24-.76.17-.22.4-.4.7-.51.32-.12.68-.19 1.1-.19h.84V7.4c0-.28-.09-.5-.26-.65-.17-.15-.4-.23-.72-.23a1.59 1.59 0 00-.9.27l-.09.64h-.65V6.36c.21-.17.45-.3.73-.38.28-.09.59-.13.93-.13.56 0 1 .13 1.32.4.32.27.49.65.49 1.15V9.97l.46.05v.54H9.56a5.75 5.75 0 01-.09-.64c-.16.2-.37.38-.61.52-.25.14-.5.2-.78.2zm.12-.7c.28 0 .54-.08.77-.21.23-.13.4-.3.5-.48v-.84H8.6c-.4 0-.68.1-.88.28-.2.18-.29.39-.29.62 0 .2.06.35.19.46.13.1.32.16.57.16zM11.44 10.56v-.54l.7-.12V6.6l-.7-.12v-.54h1.46l.05.6c.15-.22.34-.4.58-.51a1.78 1.78 0 011.61.03c.22.15.4.36.5.64.15-.26.34-.47.58-.62.25-.15.53-.23.85-.23.47 0 .85.16 1.12.49.28.32.42.8.42 1.45v2.1l.7.13v.54h-2.26v-.54l.7-.12V7.78c0-.45-.07-.77-.23-.96-.16-.2-.4-.29-.7-.29a.9.9 0 00-.72.32c-.17.2-.28.46-.3.77V9.9l.7.12v.54h-2.25v-.54l.7-.12V7.78c0-.43-.08-.74-.25-.94-.16-.2-.4-.3-.7-.3-.26 0-.47.05-.63.15-.17.1-.3.25-.39.45V9.9l.7.12v.54h-2.24zM22.4 10.65c-.3 0-.56-.06-.78-.18a1.5 1.5 0 01-.56-.5l-.08.59h-.73v-6l-.7-.12v-.55h1.55v2.6a1.47 1.47 0 011.3-.64c.38 0 .71.1.98.31.27.2.48.5.62.87.15.37.22.8.22 1.3v.1c0 .43-.07.82-.22 1.16-.14.33-.35.59-.62.78-.27.18-.6.28-.97.28zm-.2-.69c.4 0 .69-.14.88-.42.2-.28.3-.66.3-1.12v-.09c0-.35-.05-.67-.14-.93a1.35 1.35 0 00-.39-.64.97.97 0 00-.66-.23c-.27 0-.49.07-.67.2-.17.12-.32.28-.42.5v2.04c.1.21.25.38.43.5.18.13.4.2.66.2zM24.78 10.56v-.54l.7-.12V4.56l-.7-.12v-.55h1.54v6l.7.13v.54h-2.24zM27.6 10.56v-.54l.7-.12V6.6l-.7-.12v-.54h1.55V9.9l.7.12v.54H27.6zm.66-5.76v-.9h.89v.9h-.9zM30.43 10.56v-.54l.7-.12V6.6l-.7-.12v-.54h1.46l.06.68c.15-.24.35-.43.58-.56.23-.14.5-.21.8-.21.5 0 .89.15 1.16.44.28.29.42.74.42 1.35V9.9l.7.12v.54h-2.25v-.54l.7-.12V7.66c0-.41-.08-.7-.24-.87-.17-.17-.41-.26-.74-.26a1.21 1.21 0 00-1.1.66v2.7l.7.13v.54h-2.25zM38.2 12.42a3.12 3.12 0 01-1.4-.34l.21-.65a2.54 2.54 0 001.19.28c.38 0 .65-.1.83-.31.18-.21.26-.51.26-.9v-.44c-.15.19-.33.34-.54.44-.21.1-.46.15-.73.15-.38 0-.7-.1-.98-.28a1.82 1.82 0 01-.64-.78 2.9 2.9 0 01-.22-1.17v-.09c0-.5.08-.93.22-1.3.15-.37.36-.66.64-.87.27-.2.6-.31.99-.31a1.5 1.5 0 011.32.67l.08-.58h.71v4.56c0 .4-.07.74-.23 1.02-.15.3-.36.51-.65.67-.3.15-.64.23-1.05.23zm.03-2.46c.25 0 .47-.05.64-.17.17-.12.31-.28.42-.49V7.17c-.1-.2-.25-.35-.42-.46a1.11 1.11 0 00-.63-.18 1 1 0 00-.68.23 1.4 1.4 0 00-.4.64c-.09.27-.13.58-.13.93v.1c0 .45.1.83.3 1.1.2.3.5.43.9.43zM40 6.62l-.33-.68h1.04v.53l-.7.15zM43.3 10.56v-.54l.7-.12V6.6l-.7-.12v-.54h1.55V9.9l.7.12v.54H43.3zm.66-5.76v-.9h.9v.9h-.9zM48.02 10.65a3.9 3.9 0 01-1.75-.39v-1.1h.64l.15.67.47.14c.15.03.31.04.49.04.34 0 .59-.06.74-.2.15-.12.22-.29.22-.48a.58.58 0 00-.23-.46 1.97 1.97 0 00-.81-.33c-.56-.12-.98-.3-1.24-.5-.27-.22-.4-.51-.4-.87 0-.25.07-.47.22-.67.15-.2.35-.36.6-.47a2.99 2.99 0 011.81-.06c.27.08.48.19.67.32l.04 1.05h-.63l-.14-.61c-.1-.07-.22-.13-.36-.17a1.7 1.7 0 00-.47-.06c-.26 0-.48.06-.64.18a.56.56 0 00-.25.46c0 .11.02.2.07.29.05.08.14.15.27.21.14.07.34.13.6.2.65.14 1.1.33 1.35.57.26.23.39.52.39.86 0 .39-.15.72-.44.98-.29.26-.75.4-1.37.4zM54.22 10.65c-.48 0-.85-.12-1.1-.35a1.3 1.3 0 01-.38-1c0-.3.08-.55.24-.76.17-.22.4-.4.7-.51.31-.12.68-.19 1.1-.19h.84V7.4c0-.28-.09-.5-.26-.65-.17-.15-.4-.23-.72-.23a1.59 1.59 0 00-.9.27l-.09.64H53V6.36c.2-.17.45-.3.73-.38.28-.09.59-.13.92-.13.57 0 1.01.13 1.33.4.32.27.48.65.48 1.15V9.8l.02.17.45.05v.54H55.7a5.72 5.72 0 01-.09-.64c-.16.2-.37.38-.61.52-.25.14-.5.2-.79.2zm.13-.7c.28 0 .54-.08.77-.21.23-.13.4-.3.5-.48v-.84h-.86c-.4 0-.68.1-.88.28-.2.18-.3.39-.3.62 0 .2.07.35.2.46.12.1.31.16.57.16zM59.41 10.65c-.38 0-.7-.1-.97-.28a1.79 1.79 0 01-.62-.78 2.93 2.93 0 01-.22-1.17v-.09c0-.5.07-.93.22-1.3.14-.37.35-.66.62-.87.27-.2.6-.31.98-.31.28 0 .52.05.73.15.2.1.39.25.54.44V4.56l-.7-.12v-.55H61.54v6l.7.13v.54H60.8l-.07-.56a1.5 1.5 0 01-.56.48c-.21.11-.47.17-.76.17zm.22-.69c.25 0 .46-.05.63-.17.18-.11.32-.27.43-.48V7.17a1.3 1.3 0 00-.43-.47 1.12 1.12 0 00-.62-.17c-.27 0-.5.08-.67.23-.18.15-.3.37-.4.64-.08.26-.12.58-.12.93v.1c0 .45.1.83.29 1.1.19.3.49.43.89.43zM64.65 10.65c-.38 0-.7-.1-.98-.28a1.79 1.79 0 01-.62-.78 2.93 2.93 0 01-.21-1.17v-.09c0-.5.07-.93.21-1.3.15-.37.35-.66.63-.87.27-.2.6-.31.98-.31.27 0 .51.05.72.15.21.1.4.25.54.44V4.56l-.7-.12v-.55H66.77v6l.7.13v.54h-1.44l-.06-.56a1.5 1.5 0 01-.56.48c-.22.11-.47.17-.76.17zm.21-.69c.25 0 .47-.05.64-.17.17-.11.31-.27.42-.48V7.17a1.3 1.3 0 00-.42-.47 1.12 1.12 0 00-.63-.17c-.27 0-.5.08-.67.23-.17.15-.3.37-.39.64-.08.26-.13.58-.13.93v.1c0 .45.1.83.3 1.1.18.3.48.43.88.43zM68.02 10.56v-.54l.7-.12V6.6l-.7-.12v-.54h1.55V9.9l.7.12v.54h-2.25zm.66-5.76v-.9h.9v.9h-.9zM72.96 10.65a1.98 1.98 0 01-1.83-1.1 2.68 2.68 0 01-.26-1.21v-.18c0-.44.09-.84.25-1.18.17-.35.4-.62.72-.83.31-.2.69-.3 1.12-.3.37 0 .7.06.98.18.29.13.52.3.72.5l.02 1.12h-.66l-.15-.8c-.1-.1-.22-.19-.37-.25a1.36 1.36 0 00-.51-.09c-.25 0-.48.08-.67.22-.19.15-.33.35-.44.6-.1.25-.16.52-.16.83v.18c0 .33.05.62.15.87.1.25.24.44.42.58.19.13.4.2.66.2a1 1 0 001.06-.88h.77v.02a1.55 1.55 0 01-.85 1.3c-.26.15-.58.22-.97.22zM77.09 10.63c-.35 0-.62-.1-.82-.3-.2-.2-.3-.52-.3-.97v-2.8h-.74v-.62h.74V4.82h.84v1.12h1.01v.62h-1v2.8c0 .23.04.39.13.5.09.1.2.15.35.15a2.46 2.46 0 00.63-.07l.11.55a3.53 3.53 0 01-.95.14zM78.55 10.56v-.54l.7-.12V6.6l-.7-.12v-.54h1.55V9.9l.7.12v.54h-2.25zm.66-5.76v-.9h.9v.9h-.9zM83.32 10.56l-1.66-4.02-.48-.06v-.54h1.95v.54l-.6.08 1.03 2.63.12.38h.02l.14-.38.96-2.63-.62-.08v-.54h1.94v.54l-.49.06-1.57 4.02h-.74zM88.58 10.65a1.99 1.99 0 01-1.86-1.1 2.68 2.68 0 01-.26-1.21v-.2c0-.43.09-.82.27-1.17.18-.34.42-.62.72-.82.3-.2.64-.3 1-.3.42 0 .77.09 1.05.26s.5.4.64.72c.14.3.21.67.21 1.09v.52h-3.02v.02c0 .3.05.56.15.8.1.22.24.4.43.53.18.13.4.2.67.2.28 0 .53-.04.75-.12.22-.08.4-.2.56-.34l.33.55c-.16.16-.38.3-.66.4-.27.11-.6.17-.98.17zm-1.22-2.87h2.14v-.1c0-.23-.04-.43-.12-.6a.9.9 0 00-.35-.41 1.04 1.04 0 00-1.1 0c-.15.12-.28.26-.38.45-.1.2-.17.4-.2.64l.01.02zM91.27 11.88l-.48-.31c.14-.2.24-.42.3-.63.08-.21.11-.44.11-.68v-.65h.85v.64c0 .28-.07.57-.21.87-.14.3-.33.56-.57.76zM.53 21.8v-.54l.66-.12v-5.07l-.7-.12v-.54H1.9l.08.56a1.57 1.57 0 011.34-.65c.38 0 .7.1.98.32.27.2.48.49.62.86.15.37.22.8.22 1.3v.1c0 .44-.07.83-.22 1.16-.14.33-.35.6-.62.78-.27.19-.6.28-.97.28a1.9 1.9 0 01-.76-.14c-.21-.1-.4-.24-.55-.43v1.6l.74.11v.55H.53zm2.55-2.34c.4 0 .7-.14.9-.43.22-.3.32-.67.32-1.14v-.09c0-.35-.05-.66-.14-.93-.1-.27-.23-.48-.41-.63-.18-.16-.4-.23-.68-.23a1.14 1.14 0 00-1.04.6v2.25c.11.2.25.34.42.45.17.1.38.15.63.15zM5.72 20.03v-.54l.7-.12v-5.34l-.7-.12v-.54h1.55v6l.7.12v.54H5.72zM10.6 20.12a1.99 1.99 0 01-1.86-1.1 2.68 2.68 0 01-.25-1.21v-.19c0-.44.09-.83.27-1.17.18-.35.42-.62.73-.82.3-.2.63-.3.99-.3.42 0 .77.08 1.05.25.28.17.5.41.64.72.14.3.21.67.21 1.09v.53H9.37l-.02.02c0 .3.06.56.16.79.1.22.24.4.43.53.18.14.4.2.67.2.28 0 .53-.04.75-.12.22-.08.4-.2.56-.34l.33.55c-.16.16-.38.3-.66.4-.27.11-.6.17-.98.17zm-1.2-2.86h2.14v-.11c0-.23-.04-.42-.12-.6a.91.91 0 00-.36-.41 1.04 1.04 0 00-1.1.01c-.15.11-.28.26-.38.45-.1.18-.17.4-.2.64l.01.02zM14.62 20.12c-.49 0-.86-.12-1.1-.35a1.3 1.3 0 01-.39-1c0-.29.08-.54.25-.76.16-.22.4-.39.7-.5.3-.13.67-.2 1.1-.2h.83v-.45c0-.27-.09-.49-.26-.64-.17-.16-.4-.23-.72-.23a1.6 1.6 0 00-.9.26l-.08.64h-.66v-1.05c.21-.17.46-.3.73-.38.28-.1.59-.14.93-.14.56 0 1 .14 1.32.4.33.27.49.66.49 1.15v2.57l.46.05v.54H16.1a5.78 5.78 0 01-.09-.64c-.16.21-.36.38-.61.52-.24.14-.5.2-.78.2zm.12-.7c.28 0 .54-.07.77-.2.23-.14.4-.3.5-.49v-.84h-.86c-.39 0-.68.1-.88.28-.2.19-.29.4-.29.62 0 .2.06.36.19.47.13.1.32.15.57.15zM19.86 20.12a3.9 3.9 0 01-1.74-.39l-.01-1.1h.64l.16.67a2.66 2.66 0 00.95.19c.34 0 .6-.07.74-.2.15-.13.22-.3.22-.49a.58.58 0 00-.22-.46 1.97 1.97 0 00-.82-.32c-.56-.13-.98-.3-1.24-.51-.27-.22-.4-.5-.4-.87 0-.25.07-.47.22-.67.15-.2.35-.35.61-.47s.57-.18.91-.18c.35 0 .66.04.9.12.26.08.48.19.66.32l.04 1.06h-.63l-.14-.62c-.1-.07-.22-.13-.36-.17a1.7 1.7 0 00-.47-.06c-.26 0-.48.06-.64.19a.56.56 0 00-.25.46c0 .1.03.2.07.28.05.08.14.15.28.22.13.06.33.12.59.18.65.16 1.1.35 1.35.58.26.23.39.52.39.86 0 .4-.15.72-.44.99-.29.26-.75.39-1.37.39zM24.49 20.12a1.99 1.99 0 01-1.86-1.1 2.68 2.68 0 01-.26-1.21v-.19c0-.44.09-.83.27-1.17.18-.35.43-.62.73-.82.3-.2.63-.3.99-.3.42 0 .77.08 1.05.25.28.17.5.41.64.72.14.3.21.67.21 1.09v.53h-3.01l-.02.02c.01.3.06.56.16.79.1.22.24.4.43.53.18.14.4.2.67.2.29 0 .54-.04.75-.12.22-.08.4-.2.56-.34l.34.55c-.17.16-.4.3-.67.4-.27.11-.6.17-.98.17zm-1.22-2.86h2.15v-.11c0-.23-.04-.42-.12-.6a.91.91 0 00-.36-.41 1.04 1.04 0 00-1.1.01c-.15.11-.28.26-.38.45-.1.18-.16.4-.2.64l.01.02zM28.99 21.8v-.54l.66-.12v-5.07l-.7-.12v-.54h1.42l.08.56a1.57 1.57 0 011.34-.65c.38 0 .7.1.98.32.27.2.48.49.62.86.15.37.22.8.22 1.3v.1c0 .44-.07.83-.22 1.16-.14.33-.35.6-.62.78-.27.19-.6.28-.97.28a1.9 1.9 0 01-.76-.14c-.21-.1-.4-.24-.55-.43v1.6l.74.11v.55H29zm2.55-2.34c.4 0 .7-.14.9-.43.21-.3.32-.67.32-1.14v-.09c0-.35-.05-.66-.14-.93-.1-.27-.23-.48-.41-.63-.18-.16-.4-.23-.68-.23a1.14 1.14 0 00-1.04.6v2.25c.1.2.25.34.42.45.17.1.38.15.63.15zM34.18 20.03v-.54l.7-.12v-5.34l-.7-.12v-.54h1.55v6l.7.12v.54h-2.25zM38.54 20.12c-.49 0-.85-.12-1.1-.35a1.3 1.3 0 01-.38-1c0-.29.08-.54.24-.76.16-.22.4-.39.7-.5.3-.13.67-.2 1.1-.2h.83v-.45c0-.27-.09-.49-.26-.64-.17-.16-.4-.23-.71-.23a1.6 1.6 0 00-.9.26l-.1.64h-.65v-1.05c.21-.17.46-.3.73-.38.28-.1.59-.14.93-.14.56 0 1 .14 1.33.4.32.27.48.66.48 1.15v2.4l.01.17.45.05v.54h-1.21a5.78 5.78 0 01-.1-.64c-.16.21-.36.38-.61.52-.24.14-.5.2-.78.2zm.12-.7c.28 0 .54-.07.77-.2.23-.14.4-.3.5-.49v-.84h-.86c-.39 0-.68.1-.88.28-.19.19-.29.4-.29.62 0 .2.07.36.2.47.12.1.3.15.56.15zM42.84 21.9l-.26-.03-.24-.04.08-.67a2.55 2.55 0 00.38.03c.18 0 .33-.07.44-.2.11-.15.22-.33.32-.57l.2-.49-1.65-3.91-.5-.07v-.54h1.96v.54l-.57.09.91 2.3.22.6h.03l1.07-2.9-.6-.09v-.54h1.92v.54l-.48.07-1.83 4.72c-.09.22-.2.42-.32.6a1.27 1.27 0 01-1.08.56zM49.14 20.03v-.54l.7-.12v-3.3l-.7-.12v-.54h1.45l.08.59v.08c.14-.24.3-.42.5-.56.19-.13.4-.2.66-.2l.27.03.2.04-.11.78-.6-.03a.8.8 0 00-.55.15 1.1 1.1 0 00-.36.46v2.62l.7.12v.54h-2.24zM54.85 20.12a1.99 1.99 0 01-1.86-1.1 2.68 2.68 0 01-.26-1.21v-.19c0-.44.09-.83.27-1.17.18-.35.43-.62.73-.82.3-.2.63-.3.99-.3.42 0 .77.08 1.05.25.28.17.5.41.64.72.14.3.21.67.21 1.09v.53h-3.01l-.02.02c0 .3.06.56.16.79.1.22.24.4.43.53.18.14.4.2.67.2.28 0 .54-.04.75-.12.22-.08.4-.2.56-.34l.33.55c-.16.16-.38.3-.66.4-.27.11-.6.17-.98.17zm-1.22-2.86h2.15v-.11c0-.23-.04-.42-.12-.6a.91.91 0 00-.36-.41 1.04 1.04 0 00-1.1.01c-.15.11-.28.26-.38.45-.1.18-.17.4-.2.64l.01.02zM59.2 20.12a3.9 3.9 0 01-1.75-.39l-.01-1.1h.64l.16.67a2.66 2.66 0 00.95.19c.35 0 .6-.07.74-.2.15-.13.23-.3.23-.49a.58.58 0 00-.23-.46 1.97 1.97 0 00-.82-.32c-.56-.13-.97-.3-1.24-.51-.26-.22-.4-.5-.4-.87 0-.25.08-.47.22-.67.15-.2.35-.35.61-.47s.57-.18.91-.18c.36 0 .66.04.9.12.26.08.48.19.66.32l.05 1.06h-.64l-.14-.62c-.1-.07-.22-.13-.35-.17a1.7 1.7 0 00-.48-.06c-.26 0-.47.06-.64.19a.56.56 0 00-.25.46c0 .1.03.2.07.28.05.08.14.15.28.22.13.06.33.12.6.18.64.16 1.1.35 1.35.58.25.23.38.52.38.86 0 .4-.14.72-.44.99-.29.26-.74.39-1.37.39zM61.57 21.8v-.54l.66-.12v-5.07l-.7-.12v-.54h1.43l.08.56a1.57 1.57 0 011.33-.65c.39 0 .71.1.99.32.27.2.48.49.62.86s.21.8.21 1.3v.1c0 .44-.07.83-.22 1.16-.14.33-.34.6-.61.78-.27.19-.6.28-.98.28a1.9 1.9 0 01-.75-.14c-.22-.1-.4-.24-.55-.43v1.6l.74.11v.55h-2.25zm2.55-2.34c.4 0 .7-.14.91-.43.21-.3.31-.67.31-1.14v-.09c0-.35-.04-.66-.13-.93-.1-.27-.23-.48-.42-.63-.18-.16-.4-.23-.68-.23a1.14 1.14 0 00-1.03.6v2.25c.1.2.24.34.41.45.17.1.38.15.63.15zM69.13 20.12c-.43 0-.8-.1-1.12-.3a2 2 0 01-.72-.83 2.8 2.8 0 01-.25-1.22v-.1c0-.45.09-.85.25-1.2a2 2 0 01.72-.84c.31-.2.68-.3 1.1-.3.44 0 .8.1 1.12.3a2 2 0 01.72.83c.17.35.25.76.25 1.22v.09c0 .46-.08.87-.25 1.22-.17.35-.41.63-.72.83a2 2 0 01-1.1.3zm0-.66c.26 0 .49-.07.67-.22.18-.14.32-.35.41-.6.1-.25.14-.55.14-.87v-.1c0-.32-.04-.6-.14-.86a1.3 1.3 0 00-.41-.6 1.05 1.05 0 00-.68-.22c-.27 0-.5.07-.68.22a1.3 1.3 0 00-.42.6c-.09.25-.13.54-.13.87v.09c0 .32.04.62.13.87.1.25.23.46.42.6.18.15.41.22.69.22zM71.85 20.03v-.54l.7-.12v-3.3l-.7-.12v-.54h1.46l.06.69a1.56 1.56 0 011.38-.77c.5 0 .89.14 1.17.43.27.3.4.74.4 1.35v2.26l.7.12v.54h-2.24v-.54l.7-.12v-2.24c0-.4-.08-.7-.24-.87-.16-.17-.41-.25-.74-.25a1.21 1.21 0 00-1.1.65v2.71l.7.12v.54h-2.25zM79.51 20.12a3.9 3.9 0 01-1.74-.39l-.01-1.1h.64l.16.67a2.66 2.66 0 00.95.19c.35 0 .6-.07.74-.2.15-.13.23-.3.23-.49a.58.58 0 00-.23-.46 1.97 1.97 0 00-.82-.32c-.56-.13-.97-.3-1.24-.51-.26-.22-.4-.5-.4-.87 0-.25.08-.47.22-.67.15-.2.35-.35.61-.47s.57-.18.91-.18c.36 0 .66.04.9.12.26.08.48.19.66.32l.05 1.06h-.64l-.14-.62c-.1-.07-.22-.13-.35-.17a1.7 1.7 0 00-.48-.06c-.26 0-.47.06-.64.19a.56.56 0 00-.25.46c0 .1.03.2.07.28.05.08.14.15.28.22.13.06.33.12.6.18.64.16 1.09.35 1.35.58.25.23.38.52.38.86 0 .4-.14.72-.44.99-.29.26-.74.39-1.37.39zM82 20.03v-.54l.7-.12v-3.3l-.7-.12v-.54h1.54v3.96l.7.12v.54h-2.25zm.65-5.76v-.9h.89v.9h-.89zM87.3 20.12c-.3 0-.57-.06-.8-.17a1.5 1.5 0 01-.55-.51l-.08.59h-.73v-6l-.7-.12v-.54h1.54v2.59a1.47 1.47 0 011.3-.64c.4 0 .72.1.99.32.27.2.48.49.62.86.15.37.22.8.22 1.3v.1c0 .44-.07.83-.22 1.16-.14.33-.35.6-.62.78-.27.19-.6.28-.97.28zm-.22-.68c.4 0 .7-.15.89-.43.2-.28.29-.65.29-1.12v-.09c0-.35-.04-.66-.13-.93a1.35 1.35 0 00-.4-.63.97.97 0 00-.66-.23c-.26 0-.48.06-.66.18-.18.13-.32.3-.43.5v2.05c.11.21.25.38.43.5.19.13.41.2.67.2zM89.66 20.03v-.54l.7-.12v-5.34l-.7-.12v-.54h1.55v6l.7.12v.54h-2.25zM93.53 21.9l-.26-.03-.25-.04.1-.67a2.56 2.56 0 00.37.03c.18 0 .33-.07.44-.2.11-.15.22-.33.32-.57l.2-.49-1.65-3.91-.5-.07v-.54h1.95v.54l-.56.09.9 2.3.23.6h.02l1.08-2.9-.6-.09v-.54h1.92v.54l-.48.07-1.84 4.72c-.08.22-.19.42-.31.6a1.27 1.27 0 01-1.08.56z" fill="#FFF"></path><path d="M112.12.78l9.29.02 6.55 6.59-.03 9.28-6.58 6.55-9.29-.02-6.55-6.59.03-9.28 6.58-6.55z" stroke="#FFF" stroke-width="1.55"></path><path d="M113.33 12.46V6.91a1.11 1.11 0 012.22 0m0 0v4.81m0-4.81V5.43a1.1 1.1 0 011.54-1.03 1.12 1.12 0 01.68 1.03v6.29m0-4.81a1.11 1.11 0 012.22 0v4.81" stroke="#FFF" stroke-width="1.03" stroke-linecap="round" stroke-linejoin="round"></path><path d="M120 8.39a1.11 1.11 0 012.21 0v6.29a4.44 4.44 0 01-4.44 4.44h-1.48.16a4.44 4.44 0 01-3.86-2.22c-.23-.35-1.04-1.77-2.43-4.24a1.1 1.1 0 01.4-1.5 1.38 1.38 0 011.68.21l1.1 1.09" stroke="#FFF" stroke-width="1.03" stroke-linecap="round" stroke-linejoin="round"></path></svg>