<svg width="172" height="24" viewBox="0 0 172 24" fill="none" xmlns="http://www.w3.org/2000/svg"><path d="M.13 8.6l.24-.9C.9 5.32 2.73 3.83 5.05 3.98c.61.04 1.22.32 1.81.54.33.16.65.34.95.55l.24-.86h3.6v2.02l-.84.15a2.6 2.6 0 00-.07.4v7.55c0 1.4-.42 2.62-1.67 3.42-.48.3-1 .53-1.55.67-1.32.35-2.7.36-4.02.03C1.8 18.02.69 17 .4 15.19h2.54c1.01 1.34 2.23 1.73 3.7 1.14.89-.35 1.59-.88 1.19-3.05l-.6.39a4.2 4.2 0 01-6.28-1.48C.58 11.46.4 10.63.13 9.85V8.6zm2.84.63l.1.04c.02.35.06.7.12 1.04.23 1.1.9 1.75 1.86 1.88a2.3 2.3 0 002.54-1.32 3.61 3.61 0 00-.08-3.5c-.94-1.72-3.32-1.27-3.92 0-.25.6-.46 1.23-.62 1.85v.01zM44.66 0v5.14c.2-.11.39-.23.57-.36 1.91-1.7 4.67-.9 5.9.57a6.14 6.14 0 011.38 4.3c-.03.87-.2 1.73-.5 2.55-1.06 2.96-4.17 3.9-6.85 2.13l-.43-.29-.29.81h-3.6v-2.01l1-.1V2.33l-1.07-.26.25-2.06h3.64zm-.15 9.42c.13.68.18 1.34.4 1.96.31.95 1.04 1.45 2.08 1.5a2.13 2.13 0 002.22-1.3c.6-1.3.57-2.65.09-3.97a2.15 2.15 0 00-2.11-1.48c-1.02 0-1.8.46-2.19 1.39-.24.6-.33 1.26-.49 1.9zM56.65 0c.09.4.15.81.18 1.22V12.68l1 .19v1.98h-4.74v-1.99l.93-.13V2.29l-1-.19V0l3.63.01zM24.46 6.37l-.9-.15v-2h3.52l.31.93a4.02 4.02 0 012.87-1.29c1.2 0 2.03.55 2.67 1.58.24-.21.43-.4.64-.55.28-.22.57-.42.89-.6 2.4-1.22 4.74.1 4.8 2.75.04 1.54 0 3.07 0 4.61v1.06l.96.14v2h-3.63c-.02-.26-.07-.52-.07-.8V7.99c0-.65-.07-1.27-.7-1.65-.91-.27-1.57.16-1.97.86a4.6 4.6 0 00-.6 1.86c-.1 1.18-.03 2.37-.03 3.61l1 .2v1.99h-3.73V7.92c0-.6-.05-1.2-.6-1.59-1.02-.3-1.7.18-2.15.97-.27.45-.43.96-.48 1.48-.06 1.28-.02 2.57-.02 3.9l.98.18v2h-4.67v-1.98l.9-.19V6.38zM87.94 7.3l-1.86 7.54h-2.43l-2.53-8.9-1.03-.13v-1.7a75.9 75.9 0 014.16 0v1.67l-1.11.18 1.64 6.65.17.02 2.01-8.48h2.15c.66 2.82 1.3 5.59 1.96 8.35h.21L92.9 6l-1.1-.2V4.13h4.07v1.68l-1 .12-2.5 8.94h-2.39l-1.9-7.57-.14-.02zM68.85 10.04h-7.73c.03 1.54.62 2.45 1.77 2.8 1.2.37 2.03-.02 3-1.42h2.71c-.21 2.2-2.32 3.43-3.9 3.67-4.67.7-6.94-3-6.45-6.46.36-2.6 1.97-4.3 4.43-4.71a4.9 4.9 0 014.99 1.92 6.14 6.14 0 011.18 4.2zM61.21 8.1h4.6c-.38-1.35-.98-1.9-2.1-1.98-1.1-.07-1.97.6-2.5 1.98zM19.28 7.91c-.05-1.43-.26-1.74-1.3-1.94-1.31-.25-2.04.16-2.7 1.56h-2.56c.02-1.36.57-2.3 1.62-2.89a6.03 6.03 0 015.92-.04c1.27.63 1.64 1.85 1.67 3.17.02 1.29 0 2.58 0 3.87v1.06l.83.16v2h-3.27l-.18-.97-.79.56a4.53 4.53 0 01-4.83.03 3.13 3.13 0 01-1.47-3.06c.1-1.2.79-1.98 1.86-2.47 1.42-.65 2.96-.74 4.47-.95l.73-.09zm.02 2.02a5.72 5.72 0 00-.68 0c-.66.1-1.33.2-1.98.34-.28.05-.55.15-.8.3-.53.3-.82.75-.73 1.38a1.35 1.35 0 00.97 1.13c1.26.47 2.79-.3 3.1-1.59.1-.46.08-.96.12-1.56zM103.5 13.63c-1.04.91-2.05 1.52-3.34 1.54-1.2.03-2.27-.24-3.07-1.18a3.07 3.07 0 011.25-4.94c.88-.34 1.85-.48 2.79-.65.76-.15 1.54-.2 2.3-.3.22-1.4-.17-2.14-1.24-2.43-1.6-.42-2.54.04-3.2 1.62h-2.24c.11-1.44.8-2.41 2.1-2.94a6.6 6.6 0 014.5-.2c1.44.43 2.3 1.4 2.37 2.9.08 1.6.06 3.2.09 4.8v1.28l1.2.12v1.59h-3.34l-.17-1.2zm.05-4.1c-.4.02-.8.07-1.2.14-.89.23-1.8.41-2.64.77a1.4 1.4 0 00-.86 1.73 1.83 1.83 0 001.5 1.31c1.47.23 3.08-.98 3.2-2.42.03-.48 0-.97 0-1.53zM78.96 13.17l1.2.07v1.6h-3.3l-.15-1.15-.93.67a4.4 4.4 0 01-4.06.58A3.08 3.08 0 0169.54 12c-.03-1.38.66-2.55 2.06-2.97 1.35-.4 2.79-.57 4.17-.83.3-.06.62-.08.92-.12.17-1.41-.24-2.15-1.31-2.42-1.6-.43-2.54.05-3.2 1.62h-2.22a3.2 3.2 0 012.28-3.03 6.61 6.61 0 014.4-.08 3.1 3.1 0 012.3 3.06c.04 1.6 0 3.21 0 4.81l.02 1.12zm-2.18-3.65c-.4.03-.8.08-1.2.15-.83.19-1.68.33-2.46.64-.91.37-1.26 1.15-1.04 1.95.23.79 1 1.26 1.89 1.25.7-.03 1.36-.3 1.87-.77.52-.47.85-1.1.93-1.78.04-.45 0-.9 0-1.44zM125.7 10.03h-7.64c-.08 1.53.73 2.76 2 3.15 1.4.42 2.3 0 3.24-1.56h2.17c-.21 1.6-1.78 3.15-3.5 3.46-3.1.57-5.72-1.23-6.22-4.29-.33-2.06-.02-3.95 1.55-5.52 2.05-2.06 6.89-2.2 8.16 2 .33 1.07.4 1.7.23 2.76zm-2.42-1.61c-.12-1.77-.91-2.66-2.29-2.71-1.37-.06-2.58 1.05-2.87 2.64.24.02.48.07.72.07h4.44zM111.23 13.16l1.2.1v1.6h-4.64v-1.59l1.18-.12c.06-2.38 0-4.76.03-7.2l-1.14-.16V4.1a30.3 30.3 0 013.33 0v1.8c1.03-1.57 2.28-2.43 4.25-1.87V6c-.51-.03-.98-.12-1.42-.06a3.18 3.18 0 00-2.77 3.11c-.06 1.35-.02 2.67-.02 4.11zM155.15 13.81l.5-.37v-5.9l-.49-.36V6.11h2.11v4.45c1.06-.6 1.6-1.5 2.42-2.03h1.41v.95l-1.76 1.25c.88 1.04 1.12 2.4 2.36 3.1v1.03h-1.59l-1.87-3.01-.87.7v.97l.64.21v1.1h-2.81l-.05-1.02zM147.51 8.54h2.2c.32 1.71-.26 3.44.35 5.02 1.31.23 2.03-.29 2.09-1.41.03-.7 0-1.4 0-2.17l-.57-.4v-1h2.25v4.91l.58.24v1.13h-2.12l-.2-.41c-.06 0-.12 0-.18.02-.35.17-.67.42-1.04.52-1.48.37-2.65-.18-2.75-1.84-.03-.46 0-.91 0-1.37V9.96l-.6-.4V8.54zM143.55 11.7c0 1.95-1.37 3.4-3.25 3.4a3.3 3.3 0 01-3.34-3.45 3.31 3.31 0 013.32-3.38c1.87 0 3.27 1.48 3.27 3.42zm-3.3-2a2.22 2.22 0 00-1.47 1.47 2.15 2.15 0 00.44 2.03 1.41 1.41 0 002.14-.07 2.17 2.17 0 00-.2-2.89 2.23 2.23 0 00-.9-.54zM134.6 12.6h1.5a2.79 2.79 0 01-2.5 2.47c-1.53.21-2.93-.49-3.5-1.81a4.09 4.09 0 01-.12-2.86c.65-2.15 3.07-2.66 4.32-1.7l1.74-.26v2.39h-1.42c-.08-.13-.2-.34-.34-.53a1.41 1.41 0 00-1.38-.62 1.51 1.51 0 00-1.23 1.04c-.23.63-.22 1.32.04 1.95.48 1.2 1.8 1.37 2.6.35.12-.14.2-.3.29-.43zM149.82 21.28c.13.14.25.28.36.43.51.89.12 1.77-.9 2-.25.06-.5.09-.74.1h-2.2v-4.5c1.2.09 2.34-.2 3.4.27.58.57.56 1.13.08 1.7zm-.77.74l-1.34-.07v.7c.48-.02.98.24 1.34-.63zm-1.31-1.54c.4.7.43.7 1.13.08l-1.13-.08zM69.74 23.79l-.86-.06v-4.35h1.32l1.07 2.81.96-2.81h1.38v4.35l-.9.04V21.4l-.17-.05-.93 2.41h-.77l-.93-2.42-.17.05v2.4zM129.75 19.37h1.34l1.18 1.93.15-1.92h1.24v4.34h-1.34l-1.16-1.94-.16.04v1.9h-1.26v-4.35zM101.98 23.75h-1.37l-.36-1.4-.99-.1-.16 1.47H97.8v-4.37c.96-.04 1.95-.12 2.92.04.96.16 1.37.98.95 1.9-.05.1-.1.2-.18.29l.48 2.17zm-1.4-2.69c-.69-.65-1.04-.72-1.37-.39l.07.62 1.3-.23zM107.97 19.4v1.1l-2.27.1c.59.64 1.35.2 2.04.53l.05.92-2.08.16v.25c.7.35 1.5 0 2.27.23v1.06h-3.7V19.4h3.69zM168.55 4.31l.75-2.56h1.52c.49.48-.12.72-.21 1.06v2.2l.51 1h-1.35V3.43l-.19-.03a1549 1549 0 00-.8 2.65h-.64l-.87-2.88-.12.01v2.84h-1.35c.7-1.06.43-2.16.49-3.12l-.48-1.12h1.8l.77 2.56.17-.03zM124.95 19.26a2.27 2.27 0 012.18 1.43c.11.28.16.59.15.9a2.26 2.26 0 01-2.36 2.3 2.3 2.3 0 01-2.11-1.42 2.23 2.23 0 01-.16-.87 2.2 2.2 0 011.4-2.18c.28-.11.6-.17.9-.16zm-.03 1.11c-.78.51-1 1.09-.72 1.76.15.35.4.64.8.55.29-.08.54-.27.7-.53.36-.7.06-1.34-.78-1.78zM110.45 21.1c-.07-1.23.37-1.75 1.57-1.83 1.28-.08 1.9.35 1.97 1.45l-1.04.05c-.35-.21-.6-.68-1.2-.27a3 3 0 00.57.38c.4.15.83.2 1.21.38a1.24 1.24 0 01.74.84 1.2 1.2 0 01-.25 1.08c-.58.72-1.4.8-2.23.68-.75-.1-1.37-.41-1.54-1.22 0-.1.02-.22.04-.32l1.06-.07c.82.73.82.73 1.48.25-.61-.72-1.85-.37-2.38-1.4zM139.85 20.72h-1.22c-.27-.1-.5-.66-1.12-.19.21.15.44.28.68.39.37.13.78.17 1.13.33a1.32 1.32 0 01.72.97 1.29 1.29 0 01-.38 1.14c-.74.73-2.53.72-3.24-.03-.21-.24-.31-.58-.54-1.01l1.27-.07c.73.7.73.7 1.5.28a3.75 3.75 0 00-.59-.38c-.36-.14-.75-.21-1.1-.36-.89-.37-1.1-1.29-.48-1.97.6-.64 1.4-.64 2.19-.49.69.13 1.15.54 1.18 1.4zM76.42 19.35c1.12.02 2.19-.23 3.16.27.45.6.38 1.14-.02 1.7.16.18.3.38.41.58.39.85-.02 1.67-.96 1.8-.83.12-1.69.09-2.6.13v-4.48zm2.72 3.08c-.38-.83-1.04-.55-1.65-.56v1.05c.62-.03 1.22.26 1.65-.49zm-.24-1.73c-.05-.42-.31-.53-.66-.53-.26 0-.53.04-.85.07l.1.9c.55-.05 1.12.18 1.4-.44zM118 22.43l-.14 1.32h-1.22v-4.36c.88 0 1.76-.08 2.62.02.86.1 1.3.77 1.23 1.67-.06.82-.56 1.27-1.47 1.35-.31.02-.63 0-1.03 0zm0-1.84v.73c.48.07.91.14 1.2-.38-.3-.55-.74-.37-1.21-.35zM59.92 20.79l-.83.08-.47-.62c-.84-.24-1.3-.03-1.58.57-.29.6-.2 1.45.22 1.86.55.55 1.2.43 1.76-.38l-.85-.32v-.54h1.8v2.32l-.91-.14c-1.4.55-2.6.14-3.07-1.15-.46-1.29.13-2.75 1.33-3.12 1.19-.37 2.2.14 2.6 1.44zM91.58 23.74h-3.35v-4.36h3.27l.05.8-2.28.1-.05.84h2.08v.74l-2.03.11v.9h2.21l.1.87zM160.37 23.74h-1.5c.35-1.72-.84-2.89-1.52-4.35h1.52l.74 1.4.78-1.4h1.43c-.49 1.47-1.91 2.6-1.45 4.35zM63.86 19.35h1.05l1.68 4.37-1.01.07-.44-.92H63.6l-.42.86h-1l1.68-4.38zm1.02 2.62l-.41-1.1-.2-.02-.39 1.12h1zM154.14 22.55l2 .1.05 1.08h-3.37v-4.35h1.32v3.17zM164.32 4.99l.57 1.02h-1.93a4.8 4.8 0 00.07-3.49l-.3.92-.62-.05V1.77h3.43v1.57l-.55.11-.39-1.17c-.45 1.06-.17 1.92-.28 2.7zM82.63 23.73v-4.34l.96-.07v3.55h2.13l.07.86h-3.16zM142.38 19.37h1.32v4.36h-1.32v-4.36zM144.53 14.83v-1.57h1.73l.08.77v.8h-1.81zM126.74 13.22h1.68v1.66h-1.68v-1.66z" fill="#FFF"></path></svg>